<?xml version="1.0" encoding="utf-8"?>
<!-- Generator: Adobe Illustrator 23.0.3, SVG Export Plug-In . SVG Version: 6.00 Build 0)  -->
<svg version="1.1" id="Layer_1" xmlns="http://www.w3.org/2000/svg" xmlns:xlink="http://www.w3.org/1999/xlink" x="0px" y="0px"
	 viewBox="0 0 50 50" style="enable-background:new 0 0 50 50;" xml:space="preserve">
<style type="text/css">
	.st0{fill:#393939;}
</style>
<g id="surface1">
	<path class="st0" d="M50.06,10.44c-1.85,0.82-3.83,1.37-5.91,1.62c2.12-1.27,3.76-3.29,4.52-5.69c-1.98,1.18-4.19,2.03-6.53,2.49
		c-1.88-2-4.55-3.25-7.5-3.25c-5.68,0-10.29,4.6-10.29,10.28c0,0.8,0.09,1.59,0.27,2.34C16.08,17.81,8.5,13.72,3.43,7.5
		c-0.89,1.52-1.39,3.29-1.39,5.17c0,3.57,1.81,6.71,4.57,8.56c-1.69-0.05-3.27-0.52-4.66-1.29c0,0.04,0,0.09,0,0.13
		c0,4.98,3.55,9.14,8.25,10.09c-0.86,0.23-1.77,0.36-2.71,0.36c-0.66,0-1.31-0.06-1.94-0.19c1.31,4.08,5.11,7.06,9.61,7.14
		c-3.52,2.76-7.95,4.4-12.77,4.4c-0.83,0-1.65-0.05-2.45-0.14c4.55,2.92,9.95,4.62,15.76,4.62c18.91,0,29.26-15.67,29.26-29.25
		c0-0.45-0.01-0.89-0.03-1.33C46.94,14.31,48.68,12.5,50.06,10.44z"/>
</g>
</svg>
