<?xml version="1.0" encoding="utf-8"?>
<!-- Generator: Adobe Illustrator 23.0.3, SVG Export Plug-In . SVG Version: 6.00 Build 0)  -->
<svg version="1.1" id="Layer_1" xmlns="http://www.w3.org/2000/svg" xmlns:xlink="http://www.w3.org/1999/xlink" x="0px" y="0px"
	 viewBox="0 0 50 50" style="enable-background:new 0 0 50 50;" xml:space="preserve">
<style type="text/css">
	.st0{fill:#393939;}
</style>
<path class="st0" d="M9,4C6.24,4,4,6.24,4,9v32c0,2.76,2.24,5,5,5h32c2.76,0,5-2.24,5-5V9c0-2.76-2.24-5-5-5H9z M15,8h2.4l1.6,4
	l1.6-4H23l-3,7v4h-2v-4.01C17.4,13.38,15.41,9.01,15,8z M25,11c0.89,0,1.77,0.27,2.33,0.95c0.43,0.49,0.67,1.28,0.67,2.32v1.46
	c0,1.04-0.2,1.76-0.62,2.25C26.82,18.65,25.89,19,25,19s-1.8-0.35-2.36-1.02C22.21,17.49,22,16.77,22,15.73v-1.45
	c0-1.04,0.23-1.84,0.67-2.33C23.23,11.27,23.99,11,25,11z M29,11h2v6c0.05,0.27,0.34,0.39,0.61,0.39c0.41,0,0.93-0.48,1.39-1.01V11
	h2v8h-2v-1.38c-0.81,0.79-1.5,1.38-2.41,1.35c-0.66-0.02-1.12-0.26-1.35-0.74C29.1,17.95,29,17.5,29,16.84V11z M25,12.62
	c-0.14,0-0.27,0.03-0.39,0.08s-0.23,0.13-0.32,0.22c-0.09,0.09-0.16,0.2-0.21,0.32C24.03,13.37,24,13.5,24,13.64v2.81
	c0,0.28,0.11,0.54,0.29,0.72c0.09,0.09,0.2,0.17,0.32,0.22c0.12,0.05,0.25,0.08,0.39,0.08s0.27-0.03,0.39-0.08
	c0.36-0.16,0.61-0.52,0.61-0.94v-2.81C26,13.08,25.55,12.62,25,12.62z M24.99,22h0.02c0,0,6.71,0,11.19,0.32
	c0.63,0.07,1.99,0.08,3.21,1.33c0.96,0.94,1.27,3.1,1.27,3.1S41,28.28,41,30.81v2.37c0,2.53-0.32,4.06-0.32,4.06
	s-0.31,2.16-1.27,3.1c-1.22,1.25-2.58,1.26-3.21,1.33C31.72,41.99,25,42,25,42s-8.32-0.08-10.88-0.32
	c-0.71-0.13-2.31-0.09-3.53-1.33c-0.96-0.95-1.27-3.11-1.27-3.11S9,35.71,9,33.18v-2.37c0-2.53,0.32-4.06,0.32-4.06
	s0.31-2.16,1.27-3.1c1.22-1.25,2.58-1.26,3.21-1.33C18.28,22,24.99,22,24.99,22z M12,26v1.98h2V38h2V27.98h2V26H12z M25,26v12h2
	v-1.25c0.63,0.78,1.45,1.25,2.12,1.25c0.75,0,1.41-0.4,1.66-1.18c0.12-0.42,0.21-0.81,0.21-1.7v-2.75c0-0.99-0.13-1.73-0.26-2.15
	C30.49,29.44,29.88,29,29.12,29c-0.98-0.01-1.38,0.5-2.12,1.38V26H25z M18,29v6.69c0,0.72,0.1,1.21,0.23,1.52
	C18.45,37.72,18.9,38,19.54,38c0.73,0,1.67-0.51,2.46-1.37V38h2v-9h-2v6.27c-0.44,0.58-1.08,1.02-1.48,1.02
	c-0.26,0-0.47-0.11-0.52-0.4V29H18z M35.03,29c-1.01,0-1.8,0.32-2.37,0.92c-0.42,0.44-0.66,1.16-0.66,2.1v3.07
	c0,0.93,0.27,1.58,0.69,2.02c0.57,0.6,1.36,0.9,2.39,0.9c1.03,0,1.84-0.31,2.39-0.95c0.24-0.28,0.39-0.6,0.46-0.95
	C37.94,35.94,38,35.51,38,35h-2v0.8c0,0.46-0.45,0.84-1,0.84s-1-0.38-1-0.84V34h4v-0.58v-1.45c0-0.93-0.23-1.62-0.64-2.06
	C36.8,29.32,36.02,29,35.03,29z M35,30.45c0.55,0,1,0.38,1,0.84v1.33h-2v-1.33C34,30.82,34.45,30.45,35,30.45z M28.22,30.75
	c0.55,0,0.78,0.33,0.78,1.38v2.75c0,1.04-0.23,1.4-0.78,1.4c-0.31,0-0.9-0.21-1.22-0.53v-4.38C27.32,31.06,27.91,30.75,28.22,30.75z
	"/>
</svg>
