<svg id="Icons" xmlns="http://www.w3.org/2000/svg" width="125" height="125" viewBox="0 0 125 125"><title>apprenticeship</title><path d="M71.47,78.37l1.13,4.37c17.45,4.57,30.32,10.19,30.32,29.07H21.6c0-18.88,12.88-24.5,30.33-29.07l1.13-4.37" style="fill:#e51921;stroke:#2d2a2a;stroke-linecap:round;stroke-linejoin:round;stroke-width:3px"/><path d="M76.15,83.71a14.71,14.71,0,0,1-27.77,0C32.76,88.15,21.6,94.23,21.6,111.81h81.32C102.92,94.23,91.76,88.15,76.15,83.71Z" style="fill:#e51921;stroke:#2d2a2a;stroke-linecap:round;stroke-linejoin:round;stroke-width:3px"/><path d="M62.26,93.56a14.73,14.73,0,0,0,13.89-9.85c-1.16-.33-2.35-.66-3.55-1l-1.13-4.37H53.06l-1.13,4.37c-1.21.31-2.39.64-3.55,1A14.72,14.72,0,0,0,62.26,93.56Z" style="fill:#3dbfe3;stroke:#2d2a2a;stroke-linecap:round;stroke-linejoin:round;stroke-width:3px"/><rect x="35.67" y="11.81" width="53.19" height="67.02" rx="25.07" style="fill:#3dbfe3;stroke:#2d2a2a;stroke-linecap:round;stroke-linejoin:round;stroke-width:3px"/><circle cx="54.63" cy="48.53" r="2.04" style="fill:#2d2d2d;stroke:#2d2a2a;stroke-miterlimit:10;stroke-width:0px"/><circle cx="69.9" cy="48.53" r="2.04" style="fill:#2d2d2d;stroke:#2d2a2a;stroke-miterlimit:10;stroke-width:0px"/><path d="M70,59.21a7.72,7.72,0,1,1-15.43,0Z" style="fill:#fff;stroke:#2d2a2a;stroke-linejoin:round;stroke-width:3px"/><rect x="32.37" y="23.21" width="60.05" height="14.39" style="fill:#fed330;stroke:#2d2a2a;stroke-linejoin:round;stroke-width:3px"/><path d="M81.9,43a3,3,0,0,1-6,0c0-1.65,3-7.61,3-7.61S81.9,41.37,81.9,43Z" style="fill:#fff;stroke:#2d2a2a;stroke-linejoin:round;stroke-width:3px"/><line x1="32.37" y1="30.41" x2="92.42" y2="30.41" style="fill:none;stroke:#2d2a2a;stroke-linejoin:round;stroke-width:3px"/></svg>