<svg id="Icons" xmlns="http://www.w3.org/2000/svg" width="125" height="125" viewBox="0 0 125 125"><title>apprenticeship_inverse</title><path d="M71.47,76.94l1.13,4.37c17.45,4.57,30.32,10.18,30.32,29.07H21.6c0-18.89,12.88-24.5,30.33-29.07l1.13-4.37" style="fill:#f03330;stroke:#2d2a2a;stroke-linecap:round;stroke-linejoin:round;stroke-width:3px"/><path d="M76.15,82.27a14.71,14.71,0,0,1-27.77,0C32.76,86.72,21.6,92.8,21.6,110.38h81.32C102.92,92.8,91.76,86.72,76.15,82.27Z" style="fill:#f03330;stroke:#2d2a2a;stroke-linecap:round;stroke-linejoin:round;stroke-width:3px"/><path d="M62.26,92.13a14.73,14.73,0,0,0,13.89-9.86c-1.16-.33-2.35-.65-3.55-1l-1.13-4.37H53.06l-1.13,4.37c-1.21.31-2.39.63-3.55,1A14.71,14.71,0,0,0,62.26,92.13Z" style="fill:#3dbfe3;stroke:#2d2a2a;stroke-linecap:round;stroke-linejoin:round;stroke-width:3px"/><rect x="35.67" y="10.38" width="53.19" height="67.02" rx="25.07" style="fill:#3dbfe3;stroke:#2d2a2a;stroke-linecap:round;stroke-linejoin:round;stroke-width:3px"/><circle cx="54.63" cy="47.1" r="2.04" style="fill:#2d2d2d;stroke:#2d2a2a;stroke-miterlimit:10;stroke-width:0px"/><circle cx="69.9" cy="47.1" r="2.04" style="fill:#2d2d2d;stroke:#2d2a2a;stroke-miterlimit:10;stroke-width:0px"/><path d="M70,57.78a7.72,7.72,0,0,1-15.43,0Z" style="fill:#fff;stroke:#2d2a2a;stroke-linejoin:round;stroke-width:3px"/><rect x="32.37" y="21.78" width="60.05" height="14.39" style="fill:#fed330;stroke:#2d2a2a;stroke-linejoin:round;stroke-width:3px"/><path d="M81.9,41.59a3,3,0,0,1-6,0c0-1.66,3-7.61,3-7.61S81.9,39.93,81.9,41.59Z" style="fill:#fff;stroke:#2d2a2a;stroke-linejoin:round;stroke-width:3px"/><line x1="32.37" y1="28.98" x2="92.42" y2="28.98" style="fill:none;stroke:#2d2a2a;stroke-linejoin:round;stroke-width:3px"/></svg>
