<svg id="Icons" xmlns="http://www.w3.org/2000/svg" width="125" height="125" viewBox="0 0 125 125"><title>design</title><line x1="16.19" y1="50.77" x2="16.19" y2="96.85" style="fill:none;stroke:#2d2a2a;stroke-linecap:round;stroke-linejoin:round;stroke-width:3px"/><path d="M13.93,50.88a2.26,2.26,0,1,1,2.26,2.26A2.26,2.26,0,0,1,13.93,50.88Z" style="fill:#2d2a2a"/><circle cx="16.19" cy="96.74" r="2.26" style="fill:#2d2a2a"/><rect x="55.34" y="21.4" width="53.32" height="44.2" transform="translate(163.99 87) rotate(-180)" style="fill:#3dbfe3;stroke:#2d2a2a;stroke-linecap:round;stroke-linejoin:round;stroke-width:3px"/><rect x="105.5" y="17.94" width="6.76" height="6.76" transform="translate(217.76 42.64) rotate(-180)" style="fill:#fff;stroke:#2d2a2a;stroke-linecap:round;stroke-linejoin:round;stroke-width:3px"/><rect x="52" y="17.94" width="6.76" height="6.76" transform="translate(110.76 42.64) rotate(-180)" style="fill:#fff;stroke:#2d2a2a;stroke-linecap:round;stroke-linejoin:round;stroke-width:3px"/><rect x="105.5" y="62.21" width="6.76" height="6.76" transform="translate(217.76 131.17) rotate(-180)" style="fill:#fff;stroke:#2d2a2a;stroke-linecap:round;stroke-linejoin:round;stroke-width:3px"/><circle cx="46.68" cy="73.71" r="29.22" style="fill:#fed330;stroke:#2d2a2a;stroke-linecap:round;stroke-linejoin:round;stroke-width:3px"/><circle cx="16.19" cy="73.81" r="3.93" style="fill:#fff;stroke:#2d2a2a;stroke-linecap:round;stroke-linejoin:round;stroke-width:3px"/><rect x="43.3" y="41.11" width="6.76" height="6.76" transform="translate(93.36 88.98) rotate(-180)" style="fill:#fff;stroke:#2d2a2a;stroke-linecap:round;stroke-linejoin:round;stroke-width:3px"/><rect x="43.3" y="99.56" width="6.76" height="6.76" transform="translate(93.36 205.88) rotate(-180)" style="fill:#fff;stroke:#2d2a2a;stroke-linecap:round;stroke-linejoin:round;stroke-width:3px"/><rect x="72.52" y="70.43" width="6.76" height="6.76" transform="translate(151.81 147.62) rotate(-180)" style="fill:#fff;stroke:#2d2a2a;stroke-linecap:round;stroke-linejoin:round;stroke-width:3px"/><polygon points="82.45 93.75 82.45 93.75 73.01 86.96 63.56 80.17 65.72 91.6 67.88 103.04 74.36 105.1 77.23 109.61 84.46 105.01 81.58 100.5 82.45 93.75" style="fill:#fff;stroke:#2d2a2a;stroke-linecap:round;stroke-linejoin:round;stroke-width:3px"/><rect x="75.42" y="104.38" width="12.07" height="7.77" transform="translate(-45.41 60.71) rotate(-32.49)" style="fill:#e51921;stroke:#2d2a2a;stroke-linecap:round;stroke-linejoin:round;stroke-width:3px"/><line x1="64.92" y1="82.3" x2="75.41" y2="98.78" style="fill:none;stroke:#2d2a2a;stroke-linecap:round;stroke-linejoin:round;stroke-width:3px"/><path d="M73.45,99.9a2.26,2.26,0,1,0,.69-3.12A2.25,2.25,0,0,0,73.45,99.9Z" style="fill:#2d2a2a"/></svg>