<svg id="Icons" xmlns="http://www.w3.org/2000/svg" width="125" height="125" viewBox="0 0 125 125"><title>design_inverse</title><rect x="55.46" y="20.44" width="52.35" height="43.4" transform="translate(163.28 84.28) rotate(-180)" style="fill:#3dbfe3;stroke:#2d2a2a;stroke-linecap:round;stroke-linejoin:round;stroke-width:3px"/><rect x="104.72" y="17.05" width="6.64" height="6.64" transform="translate(216.07 40.74) rotate(-180)" style="fill:#fff;stroke:#2d2a2a;stroke-linecap:round;stroke-linejoin:round;stroke-width:3px"/><rect x="51.04" y="15.89" width="8.95" height="8.95" transform="translate(111.02 40.74) rotate(-180)" style="fill:#fff;stroke:#2d2a2a;stroke-linecap:round;stroke-linejoin:round;stroke-width:3px"/><rect x="103.34" y="15.89" width="8.95" height="8.95" transform="translate(215.63 40.74) rotate(-180)" style="fill:#fff;stroke:#2d2a2a;stroke-linecap:round;stroke-linejoin:round;stroke-width:3px"/><rect x="103.34" y="59.1" width="8.95" height="8.95" transform="translate(215.63 127.14) rotate(-180)" style="fill:#fff;stroke:#2d2a2a;stroke-linecap:round;stroke-linejoin:round;stroke-width:3px"/><circle cx="46.96" cy="71.81" r="28.69" style="fill:#fed330;stroke:#2d2a2a;stroke-linecap:round;stroke-linejoin:round;stroke-width:3px"/><polygon points="77.47 88.71 77.47 88.71 68.19 82.04 58.92 75.38 61.04 86.6 63.16 97.82 69.52 99.85 72.34 104.28 79.43 99.76 76.61 95.33 77.47 88.71" style="fill:#fff;stroke:#2d2a2a;stroke-linecap:round;stroke-linejoin:round;stroke-width:3px"/><rect x="70.87" y="99.06" width="11.85" height="8.78" transform="translate(-43.55 57.45) rotate(-32.49)" style="fill:#f03330;stroke:#2d2a2a;stroke-linecap:round;stroke-linejoin:round;stroke-width:3px"/><line x1="60.25" y1="77.46" x2="70.53" y2="93.61" style="fill:none;stroke:#2d2a2a;stroke-linecap:round;stroke-linejoin:round;stroke-width:3px"/><path d="M68.57,94.73a2.26,2.26,0,1,0,.69-3.12A2.25,2.25,0,0,0,68.57,94.73Z" style="fill:#2d2a2a"/><line x1="17.03" y1="49.32" x2="17.03" y2="94.48" style="fill:none;stroke:#fff;stroke-linecap:round;stroke-linejoin:round;stroke-width:3px"/><path d="M14.78,49.43A2.26,2.26,0,1,1,17,51.69,2.25,2.25,0,0,1,14.78,49.43Z" style="fill:#fff"/><circle cx="17.03" cy="94.37" r="2.26" style="fill:#fff"/><circle cx="17.03" cy="71.9" r="4.74" style="fill:#fff;stroke:#2d2a2a;stroke-linecap:round;stroke-linejoin:round;stroke-width:3px"/><rect x="42.49" y="38.65" width="8.95" height="8.95" transform="translate(93.93 86.24) rotate(-180)" style="fill:#fff;stroke:#2d2a2a;stroke-linecap:round;stroke-linejoin:round;stroke-width:3px"/><rect x="71.18" y="67.43" width="8.95" height="8.95" transform="translate(151.3 143.8) rotate(-180)" style="fill:#fff;stroke:#2d2a2a;stroke-linecap:round;stroke-linejoin:round;stroke-width:3px"/><rect x="42.49" y="96.03" width="8.95" height="8.95" transform="translate(93.93 201.02) rotate(-180)" style="fill:#fff;stroke:#2d2a2a;stroke-linecap:round;stroke-linejoin:round;stroke-width:3px"/></svg>