<svg id="Icons" xmlns="http://www.w3.org/2000/svg" width="125" height="125" viewBox="0 0 125 125"><title>grow_sustainably</title><circle cx="65.52" cy="71.11" r="40.39" style="fill:#fed330;stroke:#2d2d2d;stroke-linecap:round;stroke-linejoin:round;stroke-width:3px"/><path d="M110.07,36.11h0a0,0,0,0,1,0,0V63.69a47.19,47.19,0,0,1-47.19,47.19h0a0,0,0,0,1,0,0V83.3A47.19,47.19,0,0,1,110.07,36.11Z" style="fill:#e51921;stroke:#2d2d2d;stroke-linecap:round;stroke-linejoin:round;stroke-width:3px"/><line x1="62.87" y1="110.89" x2="83.68" y2="74.85" style="fill:none;stroke:#2d2d2d;stroke-linecap:round;stroke-linejoin:round;stroke-width:3px"/><path d="M27.48,55.92h0A37.59,37.59,0,0,1,65.07,93.51v22a0,0,0,0,1,0,0h0A37.59,37.59,0,0,1,27.48,77.89v-22A0,0,0,0,1,27.48,55.92Z" transform="translate(113.16 156.5) rotate(165)" style="fill:#3dbfe3;stroke:#2d2d2d;stroke-linecap:round;stroke-linejoin:round;stroke-width:3px"/><line x1="72.14" y1="109.6" x2="48.71" y2="86.17" style="fill:#3dbfe3;stroke:#2d2d2d;stroke-linecap:round;stroke-linejoin:round;stroke-width:3px"/><line x1="65.52" y1="11.5" x2="65.52" y2="20.76" style="fill:none;stroke:#2d2d2d;stroke-linecap:round;stroke-linejoin:round;stroke-width:3px"/><line x1="94.77" y1="20.13" x2="90.13" y2="28.15" style="fill:none;stroke:#2d2d2d;stroke-linecap:round;stroke-linejoin:round;stroke-width:3px"/><line x1="34.59" y1="18.09" x2="39.22" y2="26.12" style="fill:none;stroke:#2d2d2d;stroke-linecap:round;stroke-linejoin:round;stroke-width:3px"/><line x1="14.93" y1="41.9" x2="22.95" y2="46.53" style="fill:none;stroke:#2d2d2d;stroke-linecap:round;stroke-linejoin:round;stroke-width:3px"/></svg>