<svg id="Icons" xmlns="http://www.w3.org/2000/svg" width="125" height="125" viewBox="0 0 125 125"><title>plan_inverse</title><path d="M51.74,33.07h8.64a2.15,2.15,0,0,1,2.15,2.15v8.62" style="fill:none;stroke:#fff;stroke-linecap:round;stroke-linejoin:round;stroke-width:3px"/><polygon points="66.17 43.35 58.88 43.35 62.53 47 66.17 43.35" style="fill:#fff"/><line x1="51.32" y1="67.8" x2="46.55" y2="67.8" style="fill:none;stroke:#fff;stroke-linecap:round;stroke-linejoin:round;stroke-width:3px"/><polygon points="47.04 71.44 47.04 64.15 43.39 67.8 47.04 71.44" style="fill:#fff"/><path d="M91.7,53.84v-3.4a2.15,2.15,0,0,0-2.15-2.15H84.9a2.15,2.15,0,0,1-2.15-2.15V38.8" style="fill:none;stroke:#fff;stroke-linecap:round;stroke-linejoin:round;stroke-width:3px"/><polygon points="88.05 53.35 95.34 53.35 91.7 57 88.05 53.35" style="fill:#fff"/><path d="M81.78,99.42H90a2.15,2.15,0,0,0,2.15-2.15v-7.1" style="fill:none;stroke:#fff;stroke-linecap:round;stroke-linejoin:round;stroke-width:3px"/><polygon points="82.26 95.77 82.26 103.06 78.62 99.42 82.26 95.77" style="fill:#fff"/><path d="M48,104.83H45a2.08,2.08,0,0,1-2.15-2v-2.59a2.07,2.07,0,0,0-2.14-2H34.29a2.08,2.08,0,0,1-2.15-2v-5.7" style="fill:none;stroke:#fff;stroke-linecap:round;stroke-linejoin:round;stroke-width:3px"/><polygon points="47.47 108.48 47.47 101.19 51.12 104.83 47.47 108.48" style="fill:#fff"/><rect x="75.44" y="12.5" width="15.97" height="22.81" style="fill:#f03330;stroke:#2d2a2a;stroke-linecap:round;stroke-linejoin:round;stroke-width:3px"/><line x1="80.17" y1="19.18" x2="86.61" y2="19.18" style="fill:none;stroke:#2d2a2a;stroke-linecap:round;stroke-linejoin:round;stroke-width:3px"/><line x1="80.17" y1="23.32" x2="83.78" y2="23.32" style="fill:none;stroke:#2d2a2a;stroke-linecap:round;stroke-linejoin:round;stroke-width:3px"/><rect x="32.28" y="26.73" width="15.97" height="22.81" style="fill:#f03330;stroke:#2d2a2a;stroke-linecap:round;stroke-linejoin:round;stroke-width:3px"/><line x1="37.02" y1="33.41" x2="43.46" y2="33.41" style="fill:none;stroke:#2d2a2a;stroke-linecap:round;stroke-linejoin:round;stroke-width:3px"/><line x1="37.02" y1="37.55" x2="40.62" y2="37.55" style="fill:none;stroke:#2d2a2a;stroke-linecap:round;stroke-linejoin:round;stroke-width:3px"/><rect x="23.85" y="62.15" width="15.97" height="22.81" style="fill:#fed330;stroke:#2d2a2a;stroke-linecap:round;stroke-linejoin:round;stroke-width:3px"/><line x1="28.59" y1="68.83" x2="35.03" y2="68.83" style="fill:none;stroke:#2d2a2a;stroke-linecap:round;stroke-linejoin:round;stroke-width:3px"/><line x1="28.59" y1="72.97" x2="32.19" y2="72.97" style="fill:none;stroke:#2d2a2a;stroke-linecap:round;stroke-linejoin:round;stroke-width:3px"/><rect x="56.61" y="53.61" width="15.97" height="22.81" style="fill:#fed330;stroke:#2d2a2a;stroke-linecap:round;stroke-linejoin:round;stroke-width:3px"/><line x1="61.35" y1="60.29" x2="67.79" y2="60.29" style="fill:none;stroke:#2d2a2a;stroke-linecap:round;stroke-linejoin:round;stroke-width:3px"/><line x1="61.35" y1="64.43" x2="64.95" y2="64.43" style="fill:none;stroke:#2d2a2a;stroke-linecap:round;stroke-linejoin:round;stroke-width:3px"/><rect x="84.01" y="61.47" width="15.97" height="22.81" style="fill:#fed330;stroke:#2d2a2a;stroke-linecap:round;stroke-linejoin:round;stroke-width:3px"/><line x1="88.74" y1="68.15" x2="95.18" y2="68.15" style="fill:none;stroke:#2d2a2a;stroke-linecap:round;stroke-linejoin:round;stroke-width:3px"/><line x1="88.74" y1="72.29" x2="92.35" y2="72.29" style="fill:none;stroke:#2d2a2a;stroke-linecap:round;stroke-linejoin:round;stroke-width:3px"/><rect x="56.29" y="89.69" width="15.97" height="22.81" style="fill:#3dbfe3;stroke:#2d2a2a;stroke-linecap:round;stroke-linejoin:round;stroke-width:3px"/><line x1="61.02" y1="96.37" x2="67.46" y2="96.37" style="fill:none;stroke:#2d2a2a;stroke-linecap:round;stroke-linejoin:round;stroke-width:3px"/><line x1="61.02" y1="100.51" x2="64.62" y2="100.51" style="fill:none;stroke:#2d2a2a;stroke-linecap:round;stroke-linejoin:round;stroke-width:3px"/></svg>