<svg id="Icons" xmlns="http://www.w3.org/2000/svg" width="125" height="125" viewBox="0 0 125 125"><title>practice_empathy</title><path d="M85.29,23.36a13.83,13.83,0,0,0-3.22-.81,17.5,17.5,0,0,0-23.94-8.18,13.49,13.49,0,0,0-22,12.05,15.19,15.19,0,0,0,15,26.44,17.36,17.36,0,0,0,7.3,5.32,17.56,17.56,0,0,0,21.51-7.63,14.07,14.07,0,0,0,5.41-27.19Z" style="fill:#fed330;stroke:#2d2d2d;stroke-linecap:round;stroke-linejoin:round;stroke-width:3px"/><circle cx="105.12" cy="46.96" r="5.23" style="fill:#fed330;stroke:#2d2d2d;stroke-linecap:round;stroke-linejoin:round;stroke-width:3px"/><circle cx="93.49" cy="58.36" r="3.58" style="fill:#fed330;stroke:#2d2d2d;stroke-linecap:round;stroke-linejoin:round;stroke-width:3px"/><circle cx="18.17" cy="42.52" r="5.23" style="fill:#fed330;stroke:#2d2d2d;stroke-linecap:round;stroke-linejoin:round;stroke-width:3px"/><circle cx="26.47" cy="59.39" r="3.58" style="fill:#fed330;stroke:#2d2d2d;stroke-linecap:round;stroke-linejoin:round;stroke-width:3px"/><polygon points="51.46 42.62 61.53 23.85 71.59 42.62 51.46 42.62" style="fill:#fff;stroke:#2d2d2d;stroke-linecap:round;stroke-linejoin:round;stroke-width:3px"/><path d="M85.86,97.7l-.53-2A12.39,12.39,0,0,0,93.44,84V76.77a12.4,12.4,0,0,0-24.8,0V84a12.39,12.39,0,0,0,8.11,11.62l-.53,2c-8.13,2.13-14.14,4.75-14.14,13.55H100C100,102.45,94,99.83,85.86,97.7Z" style="fill:#3dbfe3;stroke:#2d2d2d;stroke-linecap:round;stroke-linejoin:round;stroke-width:3px"/><path d="M46.83,97.7l-.52-2A12.38,12.38,0,0,0,54.41,84V76.77a12.4,12.4,0,1,0-24.79,0V84a12.38,12.38,0,0,0,8.1,11.62l-.52,2c-8.14,2.13-14.14,4.75-14.14,13.55H61C61,102.45,55,99.83,46.83,97.7Z" style="fill:#e51921;stroke:#2d2d2d;stroke-linecap:round;stroke-linejoin:round;stroke-width:3px"/></svg>