<svg id="Icons" xmlns="http://www.w3.org/2000/svg" width="125" height="125" viewBox="0 0 125 125"><title>practice_empathy_inverse</title><path d="M87.26,22.6A13.83,13.83,0,0,0,84,21.79a17.51,17.51,0,0,0-24-8.18,13.5,13.5,0,0,0-22,12.05A15.19,15.19,0,0,0,53,52.1a17.52,17.52,0,0,0,28.82-2.32A14.06,14.06,0,0,0,87.26,22.6Z" style="fill:#fed330;stroke:#2d2d2d;stroke-linecap:round;stroke-linejoin:round;stroke-width:3px"/><circle cx="100.94" cy="46.2" r="6.03" style="fill:#fed330;stroke:#2d2d2d;stroke-linecap:round;stroke-linejoin:round;stroke-width:3px"/><circle cx="90.34" cy="57.6" r="4.48" style="fill:#fed330;stroke:#2d2d2d;stroke-linecap:round;stroke-linejoin:round;stroke-width:3px"/><circle cx="22.18" cy="41.76" r="5.87" style="fill:#fed330;stroke:#2d2d2d;stroke-linecap:round;stroke-linejoin:round;stroke-width:3px"/><circle cx="31.51" cy="56.58" r="4.21" style="fill:#fed330;stroke:#2d2d2d;stroke-linecap:round;stroke-linejoin:round;stroke-width:3px"/><polygon points="53.43 41.86 63.49 23.09 73.56 41.86 53.43 41.86" style="fill:#fff;stroke:#2d2d2d;stroke-linecap:round;stroke-linejoin:round;stroke-width:3px"/><path d="M65.07,112a1.5,1.5,0,0,1-1.5-1.5c0-9.75,6.94-12.74,14.32-14.75a14,14,0,0,1-7.76-12.46V76a13.9,13.9,0,0,1,27.8,0v7.27a14,14,0,0,1-7.76,12.46c7.38,2,14.32,5,14.32,14.75A1.5,1.5,0,0,1,103,112Z" style="fill:#3dbfe3"/><path d="M84,63.61A12.4,12.4,0,0,1,96.43,76v7.27A12.39,12.39,0,0,1,88.32,94.9l.53,2C97,99.07,103,101.69,103,110.49H65.07c0-8.8,6-11.42,14.14-13.55l.53-2a12.39,12.39,0,0,1-8.11-11.62V76A12.4,12.4,0,0,1,84,63.61m0-3A15.42,15.42,0,0,0,68.63,76v7.27a15.45,15.45,0,0,0,5.73,12c-6.49,2.2-12.29,6-12.29,15.25a3,3,0,0,0,3,3H103a3,3,0,0,0,3-3c0-9.29-5.8-13-12.29-15.25a15.45,15.45,0,0,0,5.73-12V76A15.42,15.42,0,0,0,84,60.61Z" style="fill:#2d2d2d"/><path d="M24,112a1.5,1.5,0,0,1-1.5-1.5c0-9.74,6.94-12.74,14.32-14.75a14,14,0,0,1-7.76-12.46V76a13.9,13.9,0,1,1,27.8,0v7.27a14,14,0,0,1-7.77,12.46c7.39,2,14.32,5,14.32,14.75a1.5,1.5,0,0,1-1.5,1.5Z" style="fill:#e51921"/><path d="M43,63.61A12.4,12.4,0,0,1,55.36,76v7.27A12.39,12.39,0,0,1,47.25,94.9l.52,2c8.14,2.13,14.14,4.75,14.14,13.55H24c0-8.8,6-11.42,14.14-13.55l.53-2a12.39,12.39,0,0,1-8.11-11.62V76A12.4,12.4,0,0,1,43,63.61m0-3A15.42,15.42,0,0,0,27.56,76v7.27a15.47,15.47,0,0,0,5.72,12c-6.49,2.2-12.28,6-12.28,15.25a3,3,0,0,0,3,3H61.91a3,3,0,0,0,3-3c0-9.29-5.79-13-12.28-15.25a15.48,15.48,0,0,0,5.73-12V76A15.42,15.42,0,0,0,43,60.61Z" style="fill:#2d2d2d"/></svg>