<svg id="Icons" xmlns="http://www.w3.org/2000/svg" xmlns:xlink="http://www.w3.org/1999/xlink" width="125" height="125" viewBox="0 0 125 125"><defs><clipPath id="clip-path"><path d="M97.05,10.87A65.87,65.87,0,0,0,55,57.47c-.22.89-.41,1.78-.59,2.67l-.06.32c-.16.81-.3,1.61-.42,2.41,0,.24-.07.48-.11.73-.09.67-.18,1.33-.26,2,0,.37-.07.76-.11,1.14-.05.54-.1,1.08-.14,1.62a65.81,65.81,0,0,0,.09,10c.18-.35.36-.69.55-1A31.8,31.8,0,0,1,65.29,65.88,31.68,31.68,0,0,1,61,81.47c-.19.34-.41.66-.62,1a64.35,64.35,0,0,0,8.74-4.93l1.33-.93.94-.67q.81-.6,1.59-1.23c.2-.15.4-.3.59-.46.63-.5,1.25-1,1.87-1.56l.25-.22c.68-.59,1.35-1.21,2-1.83A65.93,65.93,0,0,0,97.05,10.87Z" style="fill:#fed330;stroke:#2d2a2a;stroke-linecap:round;stroke-linejoin:round;stroke-width:3px"/></clipPath></defs><title>rocket_inverse</title><line x1="27.09" y1="110.87" x2="37.12" y2="93.5" style="fill:none;stroke:#fff;stroke-linecap:round;stroke-linejoin:round;stroke-width:3px"/><line x1="40.24" y1="110.87" x2="46.96" y2="99.22" style="fill:none;stroke:#fff;stroke-linecap:round;stroke-linejoin:round;stroke-width:3px"/><line x1="53.11" y1="110.87" x2="57.08" y2="103.99" style="fill:none;stroke:#fff;stroke-linecap:round;stroke-linejoin:round;stroke-width:3px"/><path d="M37.92,76.49a1.56,1.56,0,0,1-.63-.14,1.5,1.5,0,0,1-.85-1.56,22.1,22.1,0,0,1,18.2-18.91l.25,0a1.47,1.47,0,0,1,1.09.48,1.49,1.49,0,0,1,.37,1.37c-.23.93-.42,1.8-.59,2.67l-.06.32c-.15.78-.29,1.56-.42,2.35l-.1.71c-.09.65-.18,1.3-.25,2,0,.26-.06.53-.08.79l0,.42c-.05.5-.1,1-.13,1.49l0,.32a1.5,1.5,0,0,1-1.49,1.41h-.07l-.74,0A18,18,0,0,0,39,76,1.49,1.49,0,0,1,37.92,76.49Z" style="fill:#f03330"/><path d="M54.89,57.36a.13.13,0,0,0,0,.06c-.22.89-.42,1.78-.59,2.67,0,.11,0,.21-.06.32-.16.8-.3,1.6-.43,2.41,0,.24-.07.48-.1.72-.1.67-.19,1.34-.26,2,0,.38-.08.76-.11,1.14-.06.54-.11,1.09-.15,1.63,0,.11,0,.22,0,.33l-.81,0A19.52,19.52,0,0,0,37.92,75a20.63,20.63,0,0,1,17-17.63m0-3a2.94,2.94,0,0,0-.51,0A23.59,23.59,0,0,0,35,74.6,3,3,0,0,0,40.14,77a16.55,16.55,0,0,1,12.21-5.37l.68,0h.13a3,3,0,0,0,3-2.81v-.07a1.94,1.94,0,0,1,0-.24c0-.48.07-1,.12-1.42V67l0-.33c0-.25,0-.5.08-.75.07-.65.16-1.28.25-1.92l0-.3.06-.39c.11-.7.24-1.45.4-2.3l0-.17,0-.13c.16-.83.35-1.69.56-2.55a.36.36,0,0,0,0-.1,3,3,0,0,0-2.92-3.67Zm0,6Z" style="fill:#2d2a2a"/><path d="M70.9,95.53a1.45,1.45,0,0,1-.86-.28,1.48,1.48,0,0,1-.56-1.68,18,18,0,0,0-2-15.1,1.49,1.49,0,0,1,.44-2l.26-.19c.36-.24.71-.49,1.06-.74l.52-.36.64-.46c.53-.39,1-.8,1.56-1.2l.57-.45q.93-.75,1.83-1.53l.24-.21c.67-.58,1.32-1.18,2-1.79a1.56,1.56,0,0,1,1.08-.44,1.17,1.17,0,0,1,.32,0,1.49,1.49,0,0,1,1.09.91,22.1,22.1,0,0,1-7.27,25.22A1.54,1.54,0,0,1,70.9,95.53Z" style="fill:#f03330"/><path d="M77.68,70.52A20.59,20.59,0,0,1,70.9,94a19.51,19.51,0,0,0-2.12-16.36l.27-.19,1.33-.94.94-.67c.54-.39,1.07-.81,1.6-1.22l.59-.46c.63-.51,1.25-1,1.86-1.57l.25-.21c.68-.6,1.35-1.21,2-1.84a.12.12,0,0,0,.05,0m0-3a3,3,0,0,0-2,.81l-.08.07c-.64.61-1.29,1.2-1.91,1.75l-.11.09-.13.12c-.65.56-1.23,1-1.78,1.49l-.32.25-.25.19c-.5.4-1,.79-1.52,1.17l-.62.45-.27.19-.11.08L67.37,75l-.19.14-.07,0a3,3,0,0,0-.87,4.1,16.49,16.49,0,0,1,1.81,13.85,3,3,0,0,0,1.13,3.36A3,3,0,0,0,70.9,97a3,3,0,0,0,1.83-.62A23.6,23.6,0,0,0,80.5,69.48a3,3,0,0,0-2.14-1.88,3.08,3.08,0,0,0-.68-.08Z" style="fill:#2d2a2a"/><path d="M97.05,10.87A65.87,65.87,0,0,0,55,57.47c-.22.89-.41,1.78-.59,2.67l-.06.32c-.16.81-.3,1.61-.42,2.41,0,.24-.07.48-.11.73-.09.67-.18,1.33-.26,2,0,.37-.07.76-.11,1.14-.05.54-.1,1.08-.14,1.62a65.81,65.81,0,0,0,.09,10c.18-.35.36-.69.55-1A31.8,31.8,0,0,1,65.29,65.88,31.68,31.68,0,0,1,61,81.47c-.19.34-.41.66-.62,1a64.35,64.35,0,0,0,8.74-4.93l1.33-.93.94-.67q.81-.6,1.59-1.23c.2-.15.4-.3.59-.46.63-.5,1.25-1,1.87-1.56l.25-.22c.68-.59,1.35-1.21,2-1.83A65.93,65.93,0,0,0,97.05,10.87Z" style="fill:#fed330"/><g style="clip-path:url(#clip-path)"><line x1="97.14" y1="34.57" x2="76.49" y2="22.64" style="fill:#fed330;stroke:#2d2a2a;stroke-linecap:round;stroke-linejoin:round;stroke-width:3px"/><line x1="84.25" y1="63.42" x2="57.94" y2="48.23" style="fill:#fed330;stroke:#2d2a2a;stroke-linecap:round;stroke-linejoin:round;stroke-width:3px"/></g><path d="M97.05,10.87A65.87,65.87,0,0,0,55,57.47c-.22.89-.41,1.78-.59,2.67l-.06.32c-.16.81-.3,1.61-.42,2.41,0,.24-.07.48-.11.73-.09.67-.18,1.33-.26,2,0,.37-.07.76-.11,1.14-.05.54-.1,1.08-.14,1.62a65.81,65.81,0,0,0,.09,10c.18-.35.36-.69.55-1A31.8,31.8,0,0,1,65.29,65.88,31.68,31.68,0,0,1,61,81.47c-.19.34-.41.66-.62,1a64.35,64.35,0,0,0,8.74-4.93l1.33-.93.94-.67q.81-.6,1.59-1.23c.2-.15.4-.3.59-.46.63-.5,1.25-1,1.87-1.56l.25-.22c.68-.59,1.35-1.21,2-1.83A65.93,65.93,0,0,0,97.05,10.87Z" style="fill:none;stroke:#2d2a2a;stroke-linecap:round;stroke-linejoin:round;stroke-width:3px"/><path d="M49.66,93A31.83,31.83,0,0,0,65.29,65.88,31.83,31.83,0,0,0,49.66,93Z" style="fill:#f03330;stroke:#2d2a2a;stroke-linecap:round;stroke-linejoin:round;stroke-width:3px"/><path d="M84.7,45.53a6.63,6.63,0,1,1-2.43-9.06A6.64,6.64,0,0,1,84.7,45.53Z" style="fill:#3dbfe3;stroke:#2d2a2a;stroke-linecap:round;stroke-linejoin:round;stroke-width:3px"/></svg>