<svg id="Icons" xmlns="http://www.w3.org/2000/svg" width="125" height="125" viewBox="0 0 125 125"><title>trust_is_everything_inverse</title><path d="M35.24,37.51l2.43,2.43-2.43-2.43-2.43-2.43Z" style="fill:none;stroke:#fff;stroke-linecap:round;stroke-linejoin:round;stroke-width:3px"/><path d="M23.11,65.09h0Z" style="fill:none;stroke:#fff;stroke-linecap:round;stroke-linejoin:round;stroke-width:3px"/><path d="M90.41,37.51,88,39.94l2.44-2.43,2.43-2.43Z" style="fill:none;stroke:#fff;stroke-linecap:round;stroke-linejoin:round;stroke-width:3px"/><path d="M102.54,65.09h0Z" style="fill:none;stroke:#fff;stroke-linecap:round;stroke-linejoin:round;stroke-width:3px"/><path d="M62.82,35.86a1.51,1.51,0,0,1-1.07-.43l-11-11A7.85,7.85,0,0,1,61.86,13.3l1,1,1-1a7.85,7.85,0,1,1,11.1,11.1l-11,11a1.52,1.52,0,0,1-.91.43Z" style="fill:#e51921"/><path d="M56.31,12.5a6.34,6.34,0,0,1,4.49,1.86l2,2,2-2a6.35,6.35,0,1,1,9,9l-11,11h0l0,0-11-11A6.35,6.35,0,0,1,56.31,12.5m0-3a9.35,9.35,0,0,0-6.61,16l11,11a3,3,0,0,0,2.12.88h0A3,3,0,0,0,64,37.11a2.84,2.84,0,0,0,.93-.63l11-11A9.35,9.35,0,0,0,62.83,12.15,9.3,9.3,0,0,0,56.31,9.5Z" style="fill:#2d2a2a"/><path d="M85.66,71.52c-4.68,4.64-15.51,15.17-19.25,17a12,12,0,0,1-3.28,1.06A10.26,10.26,0,0,0,67.24,89L88.52,112.5A53.62,53.62,0,0,0,108,94Z" style="fill:#fed330;stroke:#2d2a2a;stroke-linecap:round;stroke-linejoin:round;stroke-width:3px"/><path d="M57,53.41l.1.09,0,0L57,53.41Z" style="fill:#3dbfe3;stroke:#2d2a2a;stroke-linecap:round;stroke-linejoin:round;stroke-width:3px"/><path d="M45.49,65.12l.32.26-.29-.29Z" style="fill:#3dbfe3;stroke:#2d2a2a;stroke-linecap:round;stroke-linejoin:round;stroke-width:3px"/><path d="M88,63.65a4.12,4.12,0,0,0-5.81-.1l-.26.24-.09-.09,2.32-2.23a4.11,4.11,0,1,0-5.71-5.91l-2.32,2.23L76,57.7l4.11-4a4.11,4.11,0,0,0-5.71-5.91l-4.11,4-.08-.08,4.11-4a4.11,4.11,0,0,0-5.71-5.91l-4.11,4-1.6,1.63a4.27,4.27,0,0,1-6,6.06l0,0,2.45,2.44A4.3,4.3,0,1,1,53.29,62l-2.39-2.4h0l1.84,1.85a4,4,0,0,1-5.61,5.61l-1.35-1.35A4,4,0,0,1,40,71.11l-.19-.19L17.62,93.43a53.51,53.51,0,0,0,19.5,18.48L57.85,89.18a10.61,10.61,0,0,0,8.56-.54c4.82-2.34,21.44-19.18,21.44-19.18A4.12,4.12,0,0,0,88,63.65Z" style="fill:#3dbfe3;stroke:#2d2a2a;stroke-linecap:round;stroke-linejoin:round;stroke-width:3px"/><path d="M45.34,65.27l0,0,.45.45-.19-.24Z" style="fill:#3dbfe3;stroke:#2d2a2a;stroke-linecap:round;stroke-linejoin:round;stroke-width:3px"/><rect x="37.72" y="61.71" width="7.93" height="11.02" rx="3.97" transform="translate(-35.32 49.16) rotate(-45)" style="fill:#fed330;stroke:#2d2a2a;stroke-linecap:round;stroke-linejoin:round;stroke-width:3px"/><rect x="42.98" y="53.11" width="7.93" height="16.37" rx="3.97" transform="translate(-29.6 51.15) rotate(-45)" style="fill:#fed330;stroke:#2d2a2a;stroke-linecap:round;stroke-linejoin:round;stroke-width:3px"/><rect x="47.93" y="44.77" width="8.59" height="20.2" rx="4.3" transform="translate(-23.51 53) rotate(-45)" style="fill:#fed330;stroke:#2d2a2a;stroke-linecap:round;stroke-linejoin:round;stroke-width:3px"/><rect x="52.61" y="39.28" width="8.59" height="16.3" rx="4.3" transform="translate(-16.88 54.13) rotate(-45)" style="fill:#fed330;stroke:#2d2a2a;stroke-linecap:round;stroke-linejoin:round;stroke-width:3px"/></svg>