<svg id="Icons" xmlns="http://www.w3.org/2000/svg" width="125" height="125" viewBox="0 0 125 125"><title>trust_is_everything</title><path d="M34.92,37.51l2.43,2.43-2.43-2.43-2.43-2.43Z" style="fill:none;stroke:#2d2a2a;stroke-linecap:round;stroke-linejoin:round;stroke-width:3px"/><path d="M22.79,65.09h0Z" style="fill:none;stroke:#2d2a2a;stroke-linecap:round;stroke-linejoin:round;stroke-width:3px"/><path d="M90.08,37.51l-2.43,2.43,2.43-2.43,2.43-2.43Z" style="fill:none;stroke:#2d2a2a;stroke-linecap:round;stroke-linejoin:round;stroke-width:3px"/><path d="M102.21,65.09h0Z" style="fill:none;stroke:#2d2a2a;stroke-linecap:round;stroke-linejoin:round;stroke-width:3px"/><path d="M62.5,35.86a1.51,1.51,0,0,1-1.07-.43l-11-11A7.85,7.85,0,0,1,61.54,13.3l1,1,1-1a7.85,7.85,0,1,1,11.11,11.1l-11,11a1.53,1.53,0,0,1-.94.44Z" style="fill:#e51921"/><path d="M56,12.5a6.34,6.34,0,0,1,4.49,1.86l2,2,2-2a6.35,6.35,0,1,1,9,9l-11,11h0v0l-11-11A6.35,6.35,0,0,1,56,12.5m0-3a9.35,9.35,0,0,0-6.62,16l11,11a3,3,0,0,0,2.13.88h0a3,3,0,0,0,1.22-.26,2.8,2.8,0,0,0,.92-.63l11-11A9.35,9.35,0,0,0,69,9.51a9.27,9.27,0,0,0-6.51,2.64A9.26,9.26,0,0,0,56,9.5Z" style="fill:#2d2a2a"/><path d="M85.34,71.52c-4.68,4.64-15.52,15.17-19.26,17a11.78,11.78,0,0,1-3.27,1.06,10.19,10.19,0,0,0,4.1-.62L88.2,112.5A53.51,53.51,0,0,0,107.7,94Z" style="fill:#fed330;stroke:#2d2a2a;stroke-linecap:round;stroke-linejoin:round;stroke-width:3px"/><path d="M56.69,53.41l.1.09,0,0-.13-.11Z" style="fill:#3dbfe3;stroke:#2d2a2a;stroke-linecap:round;stroke-linejoin:round;stroke-width:3px"/><path d="M45.17,65.12l.31.26a3.83,3.83,0,0,0-.28-.29Z" style="fill:#3dbfe3;stroke:#2d2a2a;stroke-linecap:round;stroke-linejoin:round;stroke-width:3px"/><path d="M87.63,63.65a4.12,4.12,0,0,0-5.81-.1l-.26.24-.08-.09,2.31-2.23a4.11,4.11,0,1,0-5.71-5.91l-2.31,2.23-.08-.09,4.11-4a4.11,4.11,0,0,0-5.71-5.91l-4.11,4-.09-.08,4.12-4a4.11,4.11,0,0,0-5.71-5.91l-4.11,4-1.6,1.63a4.27,4.27,0,0,1-6,6.06l0,0L59,55.94A4.3,4.3,0,1,1,53,62l-2.4-2.4h0l1.85,1.85a4,4,0,0,1-5.61,5.61l-1.35-1.35a4,4,0,0,1-5.8,5.37l-.2-.19L17.3,93.43a53.51,53.51,0,0,0,19.5,18.48L57.52,89.18a10.61,10.61,0,0,0,8.56-.54c4.83-2.34,21.45-19.18,21.45-19.18A4.12,4.12,0,0,0,87.63,63.65Z" style="fill:#3dbfe3;stroke:#2d2a2a;stroke-linecap:round;stroke-linejoin:round;stroke-width:3px"/><path d="M45,65.27l0,0,.45.45-.19-.24Z" style="fill:#3dbfe3;stroke:#2d2a2a;stroke-linecap:round;stroke-linejoin:round;stroke-width:3px"/><rect x="37.39" y="61.71" width="7.93" height="11.02" rx="3.97" transform="translate(-35.42 48.94) rotate(-45)" style="fill:#fed330;stroke:#2d2a2a;stroke-linecap:round;stroke-linejoin:round;stroke-width:3px"/><rect x="42.65" y="53.11" width="7.93" height="16.37" rx="3.97" transform="translate(-29.69 50.92) rotate(-45)" style="fill:#fed330;stroke:#2d2a2a;stroke-linecap:round;stroke-linejoin:round;stroke-width:3px"/><rect x="47.6" y="44.77" width="8.59" height="20.2" rx="4.3" transform="translate(-23.6 52.77) rotate(-45)" style="fill:#fed330;stroke:#2d2a2a;stroke-linecap:round;stroke-linejoin:round;stroke-width:3px"/><rect x="52.29" y="39.28" width="8.59" height="16.3" rx="4.3" transform="translate(-16.97 53.9) rotate(-45)" style="fill:#fed330;stroke:#2d2a2a;stroke-linecap:round;stroke-linejoin:round;stroke-width:3px"/></svg>