<svg id="Layer_1" data-name="Layer 1" xmlns="http://www.w3.org/2000/svg" xmlns:xlink="http://www.w3.org/1999/xlink" width="25" height="25" viewBox="0 0 25 25"><defs><clipPath id="clip-path"><rect x="0.43" y="0.65" width="24.14" height="23.7" style="fill:none"/></clipPath></defs><title>star--red</title><g id="Artwork_19" data-name="Artwork 19"><g style="clip-path:url(#clip-path)"><g style="clip-path:url(#clip-path)"><path d="M22.12,9.92a2.43,2.43,0,0,0-2,1.06H15.59L20,5.79l.2,0a2.52,2.52,0,0,0,2.45-2.58,2.46,2.46,0,1,0-4.91,0,2.42,2.42,0,0,0,0,.47l-5.74,6.69L8.49,4.15a2.55,2.55,0,0,0,.17-.92A2.52,2.52,0,0,0,6.21.65,2.52,2.52,0,0,0,3.76,3.23,2.53,2.53,0,0,0,5.93,5.78l3,5.2H4.86a2.43,2.43,0,0,0-2-1.06,2.58,2.58,0,0,0,0,5.16,2.43,2.43,0,0,0,2-1.06H9L4.52,19.21l-.19,0a2.58,2.58,0,0,0,0,5.16,2.52,2.52,0,0,0,2.45-2.58,2.42,2.42,0,0,0,0-.47l4.87-5.68,3.14,5.44a2.77,2.77,0,0,0-.11.71,2.46,2.46,0,1,0,2.54-2.57l-3-5.18h6a2.43,2.43,0,0,0,2,1.06,2.58,2.58,0,0,0,0-5.16" style="fill:#e81e25"/></g></g></g></svg>