<?xml version="1.0" encoding="utf-8"?>
<!-- Generator: Adobe Illustrator 23.0.4, SVG Export Plug-In . SVG Version: 6.00 Build 0)  -->
<svg version="1.1" id="Layer_1" xmlns="http://www.w3.org/2000/svg" xmlns:xlink="http://www.w3.org/1999/xlink" x="0px" y="0px"
	 viewBox="0 0 187.8 220" style="enable-background:new 0 0 187.8 220;" xml:space="preserve">
<style type="text/css">
	.st0{fill:#33BFE5;}
	.st1{fill:none;stroke:#FED504;stroke-width:2.828;stroke-linecap:round;stroke-miterlimit:10;}
	.st2{fill:none;stroke:#F03330;stroke-width:3.5762;stroke-linecap:round;stroke-miterlimit:10;}
	.st3{fill:none;stroke:#33BFE5;stroke-width:3.5762;stroke-linecap:round;stroke-miterlimit:10;}
	.st4{fill:#F03330;}
	.st5{fill:none;stroke:#33BFE5;stroke-width:2.828;stroke-linecap:round;stroke-miterlimit:10;}
	.st6{fill:#FED504;}
</style>
<g id="texture-shapes">
	<path id="sprite-3_2_" class="st0" d="M251,209.5l-2.7,5.6l2.6,5.8c1,2.2,0.9,5.4-0.2,7.3c-1.1,2-2.7,1.8-3.7-0.4l-2.4-5.2
		l-2.5,5.2c-1,2-2.6,2.2-3.7,0.2c-1-2-1-5.2,0-7.3l2.7-5.6l-2.6-5.8c-1-2.2-0.9-5.4,0.2-7.3c0.5-1,1.1-1.4,1.8-1.4s1.4,0.6,1.9,1.6
		l2.4,5.2l2.5-5.2c0.5-1,1.2-1.6,1.9-1.6c0.7,0,1.3,0.4,1.8,1.4C252,204.1,252,207.5,251,209.5z"/>
	<ellipse id="sprite-14_6_" class="st1" cx="93.9" cy="55.6" rx="8.8" ry="9.3"/>
	<path id="sprite-2_6_" class="st2" d="M25,16.2c5.2,0,5.2,6.8,10.5,6.8c5.2,0,5.2-6.8,10.5-6.8c5.2,0,5.2,6.8,10.5,6.8
		s5.2-6.8,10.5-6.8S72.2,23,77.4,23"/>
	<path id="sprite-2_1_" class="st3" d="M108.9,113c0,5.2-6.8,5.2-6.8,10.5c0,5.2,6.8,5.2,6.8,10.5c0,5.2-6.8,5.2-6.8,10.5
		s6.8,5.2,6.8,10.5c0,5.2-6.8,5.2-6.8,10.5"/>
	<path id="sprite-4_1_" class="st4" d="M159.2,84.6c-0.8,0-1.5,0.4-2,1.1h-4.5l4.4-5.2c0.1,0,0.1,0,0.2,0c1.3,0,2.4-1.2,2.4-2.6
		s-1.1-2.6-2.4-2.6c-1.4,0-2.4,1.2-2.4,2.6c0,0.2,0,0.3,0.1,0.5l-5.7,6.7l-3.6-6.2c0.1-0.3,0.2-0.6,0.2-0.9c0-1.4-1.1-2.6-2.4-2.6
		c-1.4,0-2.4,1.2-2.4,2.6c0,1.3,0.9,2.4,2.2,2.5l3,5.2h-4.1c-0.4-0.6-1.2-1.1-2-1.1c-1.3,0-2.4,1.2-2.4,2.6s1.1,2.6,2.4,2.6
		c0.8,0,1.5-0.4,2-1.1h4.1l-4.5,5.2c-0.1,0-0.1,0-0.2,0c-1.3,0-2.4,1.2-2.4,2.6s1.1,2.6,2.4,2.6c1.4,0,2.4-1.2,2.4-2.6
		c0-0.2,0-0.3-0.1-0.5l4.9-5.7l3.1,5.4c-0.1,0.2-0.1,0.5-0.1,0.7c0,1.4,1.1,2.6,2.4,2.6c1.3,0,2.4-1.2,2.4-2.6
		c0-1.4-1.1-2.5-2.4-2.6l-3-5.2h5.9c0.4,0.6,1.2,1.1,2,1.1c1.3,0,2.4-1.2,2.4-2.6C161.7,85.8,160.6,84.6,159.2,84.6z"/>
	<ellipse id="sprite-17_2_" class="st4" cx="47.8" cy="102.7" rx="3.4" ry="3.6"/>
	<ellipse id="sprite-17_3_" class="st4" cx="114.9" cy="197.1" rx="3.4" ry="3.6"/>
	<ellipse id="sprite-16_2_" class="st0" cx="150.9" cy="9.7" rx="6.2" ry="6.5"/>
	<ellipse id="sprite-14_1_" class="st5" cx="265.8" cy="181.3" rx="8.8" ry="9.3"/>
	<path id="sprite-3_1_" class="st6" d="M78.6,139.9l-2.7-2.8l2.6-2.9c1-1.1,0.9-2.7-0.2-3.7s-2.7-0.9-3.7,0.2l-2.4,2.6l-2.5-2.5
		c-1-1-2.6-1-3.7-0.1c-1,1-1.1,2.6-0.1,3.7l2.7,2.8l-2.6,2.9c-1,1.1-0.9,2.7,0.2,3.7c0.5,0.5,1.1,0.7,1.8,0.7c0.7,0,1.4-0.3,1.9-0.8
		l2.4-2.6l2.5,2.5c0.5,0.5,1.2,0.8,1.9,0.8c0.6,0,1.3-0.2,1.8-0.7C79.6,142.6,79.6,141,78.6,139.9z"/>
	<path id="sprite-3_3_" class="st4" d="M22.3,371.9l-2.7-2.8l2.6-2.9c1-1.1,0.9-2.7-0.2-3.7s-2.7-0.9-3.7,0.2l-2.4,2.6l-2.5-2.5
		c-1-1-2.6-1-3.7-0.1c-1,1-1.1,2.6,0,3.7l2.7,2.8l-2.6,2.9c-1,1.1-0.9,2.7,0.2,3.7c0.5,0.5,1.1,0.7,1.8,0.7s1.4-0.3,1.9-0.8L16,373
		l2.5,2.5c0.5,0.5,1.2,0.8,1.9,0.8c0.6,0,1.3-0.2,1.8-0.7C23.2,374.6,23.3,372.9,22.3,371.9z"/>
	<ellipse id="sprite-17_1_" class="st6" cx="-26" cy="215" rx="3.4" ry="3.6"/>
	<ellipse id="sprite-16_1_" class="st6" cx="157.1" cy="172" rx="6.2" ry="6.5"/>
</g>
<g id="color-shapes">
</g>
</svg>
