<?xml version="1.0" encoding="utf-8"?>
<!-- Generator: Adobe Illustrator 23.0.3, SVG Export Plug-In . SVG Version: 6.00 Build 0)  -->
<svg version="1.1" id="Layer_1" xmlns="http://www.w3.org/2000/svg" xmlns:xlink="http://www.w3.org/1999/xlink" x="0px" y="0px"
	 viewBox="0 0 540 360" style="enable-background:new 0 0 540 360;" xml:space="preserve">
<style type="text/css">
	.st0{fill:none;}
	.shape-texture{fill:#3f3f3f;}
</style>
<g id="_x31_27">
	<g>
		<path class="st0" d="M90,360h90v-90C180,319.71,139.71,360,90,360z"/>
		<path class="st0" d="M0,270v90h90C40.29,360,0,319.71,0,270z"/>
		<path class="st0" d="M0,180v90h90C40.29,270,0,229.71,0,180z"/>
		<path class="st0" d="M90,270h90v-90C180,229.71,139.71,270,90,270z"/>
	</g>
	<g>
		<path class="shape-texture" d="M90,360c49.71,0,90-40.29,90-90H90H0C0,319.71,40.29,360,90,360z"/>
		<path class="shape-texture" d="M180,180L180,180L0,180c0,49.71,40.29,90,90,90C139.71,270,180,229.71,180,180z"/>
	</g>
</g>
<g>
	<path class="shape-texture" d="M270,90c-49.71,0-90,40.29-90,90h180C360,130.29,319.71,90,270,90z"/>
	<path class="shape-texture" d="M270,90c49.71,0,90-40.29,90-90h-54c0,19.85-16.15,36-36,36s-36-16.15-36-36h-54C180,49.71,220.29,90,270,90z"
		/>
</g>
<g id="_x37_5">
	<g>
		<polygon class="st0" points="0,180 90,180 90,90 		"/>
		<polygon class="st0" points="0,0 90,90 90,0 		"/>
		<polygon class="st0" points="180,90 180,0 90,90 180,180 		"/>
	</g>
	<g>
		<polygon class="shape-texture" points="90,90 90,180 180,180 		"/>
		<polygon class="shape-texture" points="90,90 180,0 90,0 		"/>
	</g>
</g>
<g id="_x31_39">
	<g>
		<path class="st0" d="M396,270c0-19.85-16.15-36-36-36v72C379.85,306,396,289.85,396,270z"/>
		<path class="st0" d="M540,180H360c49.71,0,90,40.29,90,90C450,220.29,490.29,180,540,180z"/>
		<path class="st0" d="M504,270c0,19.85,16.15,36,36,36v-72C520.15,234,504,250.15,504,270z"/>
		<path class="st0" d="M450,270c0,49.71-40.29,90-90,90h180C490.29,360,450,319.71,450,270z"/>
	</g>
	<g>
		<path class="shape-texture" d="M360,180v54c19.85,0,36,16.15,36,36c0,19.85-16.15,36-36,36v54c49.71,0,90-40.29,90-90S409.71,180,360,180z"
			/>
	</g>
</g>
<g id="_x37_7">
	<g>
		<polygon class="shape-texture" points="360,360 360,270 270,360 		"/>
		<polygon class="st0" points="360,270 270,270 270,360 		"/>
	</g>
	<g>
		<polygon class="shape-texture" points="270,270 180,270 270,360 		"/>
		<polygon class="st0" points="270,360 180,270 180,360 		"/>
	</g>
	<g>
		<polygon class="shape-texture" points="270,180 270,270 360,270 		"/>
		<polygon class="st0" points="360,270 360,180 270,180 		"/>
	</g>
	<g>
		<polygon class="shape-texture" points="180,270 270,180 180,180 		"/>
		<polygon class="st0" points="270,270 270,180 180,270 		"/>
	</g>
</g>
<g>
	<polygon class="shape-texture" points="450,0 450,90 540,0 	"/>
	<polygon class="shape-texture" points="360,0 360,90 450,180 450,90 	"/>
</g>
</svg>
