<?xml version="1.0" encoding="utf-8"?>
<!-- Generator: Adobe Illustrator 23.0.3, SVG Export Plug-In . SVG Version: 6.00 Build 0)  -->
<svg version="1.1" id="Layer_1" xmlns="http://www.w3.org/2000/svg" xmlns:xlink="http://www.w3.org/1999/xlink" x="0px" y="0px"
	 viewBox="0 0 540 360" style="enable-background:new 0 0 540 360;" xml:space="preserve">
<style type="text/css">
	.st0{fill:none;}
	.st1{fill:#2D2D2D;}
</style>
<g id="_x31_27">
	<g>
		<path class="st0" d="M90,360h90v-90C180,319.7,139.7,360,90,360z"/>
		<path class="st0" d="M0,270v90h90C40.3,360,0,319.7,0,270z"/>
		<path class="st0" d="M0,180v90h90C40.3,270,0,229.7,0,180z"/>
		<path class="st0" d="M90,270h90v-90C180,229.7,139.7,270,90,270z"/>
	</g>
	<g>
		<path class="st1" d="M90,360c49.7,0,90-40.3,90-90H90H0C0,319.7,40.3,360,90,360z"/>
		<path class="st1" d="M180,180L180,180H0c0,49.7,40.3,90,90,90S180,229.7,180,180z"/>
	</g>
</g>
<g>
	<path class="st1" d="M270,90c-49.7,0-90,40.3-90,90h180C360,130.3,319.7,90,270,90z"/>
	<path class="st1" d="M270,90c49.7,0,90-40.3,90-90h-54c0,19.9-16.1,36-36,36s-36-16.1-36-36h-54C180,49.7,220.3,90,270,90z"/>
</g>
<g id="_x37_5">
	<g>
		<polygon class="st0" points="0,180 90,180 90,90 		"/>
		<polygon class="st0" points="0,0 90,90 90,0 		"/>
		<polygon class="st0" points="180,90 180,0 90,90 180,180 		"/>
	</g>
	<g>
		<polygon class="st1" points="90,90 90,180 180,180 		"/>
		<polygon class="st1" points="90,90 180,0 90,0 		"/>
	</g>
</g>
<g id="_x31_39">
	<g>
		<path class="st0" d="M396,270c0-19.9-16.1-36-36-36v72C379.9,306,396,289.9,396,270z"/>
		<path class="st0" d="M540,180H360c49.7,0,90,40.3,90,90C450,220.3,490.3,180,540,180z"/>
		<path class="st0" d="M504,270c0,19.9,16.2,36,36,36v-72C520.2,234,504,250.1,504,270z"/>
		<path class="st0" d="M450,270c0,49.7-40.3,90-90,90h180C490.3,360,450,319.7,450,270z"/>
	</g>
	<g>
		<path class="st1" d="M360,180v54c19.9,0,36,16.1,36,36s-16.1,36-36,36v54c49.7,0,90-40.3,90-90S409.7,180,360,180z"/>
	</g>
</g>
<g id="_x37_7">
	<g>
		<polygon class="st1" points="360,360 360,270 270,360 		"/>
		<polygon class="st0" points="360,270 270,270 270,360 		"/>
	</g>
	<g>
		<polygon class="st1" points="270,270 180,270 270,360 		"/>
		<polygon class="st0" points="270,360 180,270 180,360 		"/>
	</g>
	<g>
		<polygon class="st1" points="270,180 270,270 360,270 		"/>
		<polygon class="st0" points="360,270 360,180 270,180 		"/>
	</g>
	<g>
		<polygon class="st1" points="180,270 270,180 180,180 		"/>
		<polygon class="st0" points="270,270 270,180 180,270 		"/>
	</g>
</g>
<g>
	<polygon class="st1" points="450,0 450,90 540,0 	"/>
	<polygon class="st1" points="360,0 360,90 450,180 450,90 	"/>
</g>
</svg>
