<?xml version="1.0" encoding="utf-8"?>
<!-- Generator: Adobe Illustrator 23.0.3, SVG Export Plug-In . SVG Version: 6.00 Build 0)  -->
<svg version="1.1" id="Layer_1" xmlns="http://www.w3.org/2000/svg" xmlns:xlink="http://www.w3.org/1999/xlink" x="0px" y="0px"
	 viewBox="0 0 448.8 123.8" style="enable-background:new 0 0 448.8 123.8;" xml:space="preserve">
<style type="text/css">
	.st0{fill:#2D2A2A;}
	.st1{fill:#f03330;}
	.st2{fill:#FED504;}
	.st3{fill:#33BFE5;}
</style>
<g>
	<g>
		<path class="st0" d="M193.2,78.3c-2.9,2.9-6.3,4.2-10.5,4.2c-4,0-7.3-1.4-10.1-4.1c-1.6-1.6-2.6-3.5-3-5.6s-0.6-5.2-0.6-9.3
			s0.2-7.2,0.6-9.3c0.4-2.1,1.4-4,3-5.6c2.7-2.7,6.1-4.1,10.1-4.1c8.5,0,13,5.5,14,12h-7.3c-0.9-3.6-3.1-5.5-6.7-5.5
			c-1.9,0-3.5,0.7-4.7,2c-1.3,1.7-1.8,3.1-1.8,10.5c0,7.3,0.3,8.8,1.8,10.5c1.1,1.3,2.7,1.9,4.7,1.9c2.1,0,3.9-0.7,5.2-2.1
			c1.1-1.3,1.7-2.9,1.7-5v-1.4h-6.9v-6h14.1V67C196.7,72.4,195.7,75.6,193.2,78.3z"/>
		<path class="st0" d="M228,82.3l-2.2-6.6h-13.2l-2.3,6.6h-7.6L216.3,45h5.7l13.6,37.3H228z M219.4,56l-4.7,13.5h9.2L219.4,56z"/>
		<path class="st0" d="M254.3,82.6c-5.6,0-9.9-1.2-13.6-4.9l4.7-4.7c2.4,2.3,5.5,3.1,9,3.1c4.3,0,6.6-1.6,6.6-4.6
			c0-1.3-0.4-2.4-1.1-3.2c-0.8-0.7-1.6-1-3.3-1.3l-4.5-0.6c-3.2-0.5-5.6-1.5-7.2-3.1c-1.8-1.8-2.7-4.2-2.7-7.3
			c0-6.7,4.9-11.3,13-11.3c5.1,0,8.8,1.2,12.1,4.3l-4.6,4.6c-2.4-2.2-5.2-2.6-7.6-2.6c-3.9,0-5.8,2.2-5.8,4.7c0,1,0.3,1.9,1.1,2.7
			c0.7,0.7,1.9,1.2,3.5,1.5l4.4,0.6c3.4,0.5,5.5,1.4,7.1,2.9c2,1.9,2.9,4.6,2.9,7.9C268.1,78.5,262.1,82.6,254.3,82.6z"/>
		<path class="st0" d="M278.1,82.3V45h7.3v30.8h16.9v6.5H278.1z"/>
		<path class="st0" d="M311.4,82.3V45h7.3v37.3H311.4z"/>
		<path class="st0" d="M353.4,78.3c-2.9,2.9-6.3,4.2-10.5,4.2c-4,0-7.3-1.4-10-4.1c-1.6-1.6-2.6-3.5-3.1-5.6
			c-0.4-2.1-0.6-5.2-0.6-9.3s0.2-7.2,0.6-9.3s1.4-4,3.1-5.6c2.7-2.7,6.1-4.1,10-4.1c8.5,0,13,5.5,14,12h-7.3
			c-0.9-3.6-3.1-5.5-6.7-5.5c-1.9,0-3.5,0.7-4.7,2c-1.4,1.7-1.8,3.1-1.8,10.5c0,7.3,0.3,8.8,1.8,10.5c1.1,1.3,2.7,1.9,4.7,1.9
			c2.2,0,3.9-0.7,5.2-2.1c1.1-1.3,1.7-2.9,1.7-5v-1.4h-6.9v-6H357V67C357,72.4,356,75.6,353.4,78.3z"/>
		<path class="st0" d="M386.8,82.3V66.7h-12.6v15.6h-7.3V45h7.3v15.2h12.6V45h7.3v37.3H386.8z"/>
		<path class="st0" d="M420.1,51.5v30.8h-7.3V51.5h-9.7V45h26.8v6.5H420.1z"/>
	</g>
</g>
<polygon class="st1" points="68.5,87.3 61.5,80.3 68.5,73.4 75.4,80.3 "/>
<polyline class="st2" points="75.4,80.3 82.3,87.3 75.4,94.2 68.5,87.3 "/>
<rect x="77.4" y="75.4" transform="matrix(0.7072 -0.7071 0.7071 0.7072 -32.7014 81.7199)" class="st3" width="9.8" height="9.8"/>
<path class="st0" d="M75.4,16.3L18.9,72.8h21.8l34.7,34.7l34.7-34.7h21.8L75.4,16.3z M75.4,94.2l-6.9-6.9l0,0l-6.9-6.9l6.9-6.9
	l7-6.9l6.9,6.9l6.9,6.9l-6.9,6.9l0,0L75.4,94.2z M93.6,76L75.4,57.9l-0.2,0.2l-18,18L46.7,65.5l28.7-28.7l28.7,28.7L93.6,76z"/>
</svg>
