<?xml version="1.0" encoding="utf-8"?>
<!-- Generator: Adobe Illustrator 23.0.3, SVG Export Plug-In . SVG Version: 6.00 Build 0)  -->
<svg version="1.1" id="Icons" xmlns="http://www.w3.org/2000/svg" xmlns:xlink="http://www.w3.org/1999/xlink" x="0px" y="0px"
	 viewBox="0 0 125 125" style="enable-background:new 0 0 125 125;" xml:space="preserve">
<style type="text/css">
	.st0{fill:none;stroke:#FFFFFF;stroke-width:3;stroke-linecap:round;stroke-linejoin:round;}
	.st1{fill:#f03330;}
	.st2{fill:#2D2A2A;}
	.st3{fill:#FED330;stroke:#2D2A2A;stroke-width:3;stroke-linecap:round;stroke-linejoin:round;}
	.st4{fill:#3DBFE3;stroke:#2D2A2A;stroke-width:3;stroke-linecap:round;stroke-linejoin:round;}
</style>
<title>Gaslight_Icons_All_2.0</title>
<path class="st0" d="M34.09,36.47L36.62,39L34.09,36.47l-2.54-2.54L34.09,36.47z"/>
<path class="st0" d="M21.45,65.2L21.45,65.2z"/>
<path class="st0" d="M91.56,36.47L89,39l2.53-2.53l2.53-2.54L91.56,36.47z"/>
<path class="st0" d="M104.2,65.2L104.2,65.2z"/>
<path class="st1" d="M62.82,34.68c-0.4,0-0.78-0.15-1.07-0.43L50.29,22.76c-3.17-3.17-3.17-8.31,0-11.48
	c3.17-3.17,8.31-3.17,11.49,0l1,1.06l1-1.05c3.17-3.19,8.33-3.22,11.53-0.05s3.22,8.33,0.04,11.53l0,0L63.9,34.24
	c-0.26,0.25-0.59,0.41-0.95,0.44H62.82z"/>
<path class="st2" d="M56,10.41c1.76,0,3.44,0.7,4.68,1.94l2.11,2.11l2.1-2.11c2.53-2.64,6.72-2.73,9.36-0.2s2.73,6.72,0.2,9.36
	c-0.06,0.07-0.13,0.13-0.2,0.2L62.84,33.18l0,0L51.36,21.7c-2.58-2.59-2.57-6.78,0.02-9.36C52.61,11.12,54.27,10.42,56,10.41
	 M56,7.41c-5.31,0-9.62,4.31-9.62,9.62c0,2.55,1.01,4.99,2.82,6.8l11.49,11.48c0.92,0.92,2.32,1.15,3.48,0.56
	c0.31-0.14,0.59-0.34,0.83-0.57l11.41-11.47c3.76-3.75,3.77-9.84,0.01-13.6s-9.84-3.77-13.6-0.01C61.02,8.4,58.56,7.39,56,7.41z"/>
<path class="st3" d="M86.62,71.9c-4.88,4.83-16.17,15.8-20.06,17.7c-1.08,0.53-2.23,0.9-3.41,1.1c1.45,0.08,2.91-0.14,4.27-0.65
	l22.18,24.54c8.3-4.59,15.29-11.21,20.32-19.25L86.62,71.9z"/>
<path class="st4" d="M56.77,53l0.1,0.09l0,0L56.77,53z"/>
<path class="st4" d="M44.77,65.22l0.32,0.28c-0.09-0.11-0.19-0.21-0.29-0.31L44.77,65.22z"/>
<path class="st4" d="M89,63.7c-1.64-1.66-4.3-1.71-6-0.11l-0.27,0.25l-0.08-0.09L85,61.43c1.7-1.66,1.74-4.38,0.08-6.08
	c-1.66-1.7-4.38-1.74-6.08-0.08l-2.41,2.32L76.5,57.5l4.29-4.13c1.7-1.64,1.75-4.35,0.11-6.05c-1.64-1.7-4.35-1.75-6.06-0.11l0,0
	l-4.29,4.13l-0.08-0.09l4.28-4.13c1.9-1.4,2.31-4.08,0.91-5.98s-4.08-2.31-5.98-0.91c-0.3,0.22-0.57,0.48-0.8,0.77l-4.29,4.13
	l-1.67,1.7c1.6,1.87,1.38,4.68-0.49,6.27c-1.65,1.41-4.06,1.43-5.73,0.05l0,0l2.54,2.55c1.62,1.87,1.41,4.7-0.46,6.32
	c-1.69,1.46-4.19,1.45-5.88-0.02l-2.49-2.5l0,0l1.92,1.93c1.59,1.64,1.55,4.25-0.09,5.84c-1.6,1.55-4.15,1.55-5.75,0l-1.41-1.4
	c1.55,1.68,1.45,4.29-0.23,5.84c-1.68,1.55-4.29,1.45-5.84-0.23l-0.2-0.21L15.73,94.73c5.02,8.05,12.02,14.68,20.32,19.27
	l21.59-23.7c2.92,1.07,6.16,0.87,8.92-0.57c5-2.44,22.34-20,22.34-20C90.58,68.09,90.62,65.4,89,63.7z"/>
<path class="st4" d="M44.61,65.38L44.61,65.38l0.47,0.47l-0.2-0.25L44.61,65.38z"/>
<path class="st3" d="M36.74,63.36L36.74,63.36c1.62-1.62,4.23-1.62,5.85-0.01l2.28,2.28c1.61,1.61,1.61,4.23,0,5.84l-0.01,0.01
	c-1.61,1.61-4.23,1.61-5.84,0l-2.28-2.28C35.13,67.59,35.13,64.98,36.74,63.36z"/>
<path class="st3" d="M40.24,55.21L40.24,55.21c1.62-1.62,4.23-1.62,5.85-0.01l6.22,6.22c1.61,1.61,1.61,4.23,0,5.84l-0.01,0.01
	c-1.61,1.61-4.23,1.61-5.84,0l-6.22-6.22C38.63,59.44,38.63,56.83,40.24,55.21z"/>
<path class="st3" d="M44.33,47.11L44.33,47.11c1.75-1.75,4.58-1.75,6.33,0l8.55,8.55c1.75,1.75,1.75,4.58,0,6.33l0,0
	c-1.75,1.75-4.58,1.75-6.33,0l-8.55-8.55C42.59,51.7,42.59,48.86,44.33,47.11z"/>
<path class="st3" d="M50.65,40.8L50.65,40.8c1.75-1.75,4.58-1.75,6.33,0l5.68,5.68c1.75,1.75,1.75,4.58,0,6.33l0,0
	c-1.75,1.75-4.58,1.75-6.33,0l-5.68-5.68C48.9,45.38,48.9,42.55,50.65,40.8z"/>
</svg>
