<svg id="Layer_1" data-name="Layer 1" xmlns="http://www.w3.org/2000/svg" viewBox="0 0 559 177"><defs><style>.cls-1,.cls-11,.cls-4,.cls-6,.cls-8,.cls-9{fill:none;stroke-miterlimit:10;}.cls-1,.cls-8,.cls-9{stroke:#31bee4;}.cls-1,.cls-11,.cls-13,.cls-4,.cls-6,.cls-8,.cls-9{stroke-linecap:round;}.cls-1,.cls-6{stroke-width:3.27px;}.cls-2{fill:#31bee4;}.cls-3{fill:#e51e25;}.cls-4,.cls-6{stroke:#e51e25;}.cls-11,.cls-4{stroke-width:4.14px;}.cls-5{fill:#fdd402;}.cls-7{fill:#ffd603;}.cls-8{stroke-width:3.92px;}.cls-9{stroke-width:1.58px;}.cls-10{fill:#33bfe5;}.cls-11{stroke:#fdd402;}.cls-12,.cls-13{fill:#fff;}.cls-13{stroke:#2d2d2d;stroke-linejoin:round;stroke-width:5.75px;}.cls-14{fill:#2d2d2d;}</style></defs><title>404 coffee mug</title><ellipse id="sprite-25" class="cls-1" cx="389.59" cy="137.43" rx="10.14" ry="10.74"/><path id="sprite-24" class="cls-2" d="M408.08,144l-3.11-3.2,3-3.31a3,3,0,1,0-4.42-4.07l-2.81,3.06-2.87-3a3,3,0,1,0-4.31,4.19l3.11,3.2-3,3.32a3,3,0,0,0,4.43,4.06l2.81-3.06,2.87,3a3,3,0,0,0,4.25.06A3,3,0,0,0,408.08,144Z"/><path id="sprite-23" class="cls-3" d="M368.55,167.46l-3.11-3.21,3.05-3.31a3,3,0,1,0-4.42-4.06l-2.82,3.06-2.87-3a3,3,0,0,0-4.31,4.18l3.11,3.21-3,3.31a3,3,0,1,0,4.42,4.07l2.81-3.06,2.87,2.95a3,3,0,1,0,4.31-4.18Z"/><ellipse id="sprite-22" class="cls-2" cx="403.96" cy="146.06" rx="3.98" ry="4.21"/><path id="sprite-21" class="cls-4" d="M358.53,143.81c6.07,0,6.07,7.83,12.14,7.83s6.07-7.83,12.14-7.83,6.07,7.83,12.14,7.83,6.07-7.83,12.14-7.83,6.07,7.83,12.14,7.83"/><path id="sprite-20" class="cls-5" d="M434.22,130.59a2.81,2.81,0,0,0-2.29,1.23h-5.27l5.16-6,.22,0a3,3,0,1,0-2.84-3,3.31,3.31,0,0,0,.05.55l-6.63,7.73-4.17-7.22a3.12,3.12,0,0,0,.2-1.06,2.85,2.85,0,1,0-3.17,3l3.47,6h-4.71a2.8,2.8,0,0,0-2.28-1.23,3,3,0,0,0,0,6,2.79,2.79,0,0,0,2.28-1.22H419l-5.16,6a1.46,1.46,0,0,0-.22,0,3,3,0,1,0,2.84,3,3.31,3.31,0,0,0-.05-.55l5.63-6.57,3.64,6.3a3.12,3.12,0,0,0-.12.82,2.84,2.84,0,1,0,2.93-3l-3.46-6h6.89a2.8,2.8,0,0,0,2.29,1.22,3,3,0,0,0,0-6Z"/><ellipse id="sprite-19" class="cls-6" cx="410.89" cy="146.61" rx="10.14" ry="10.74"/><path id="sprite-18" class="cls-7" d="M421.56,153l-3.11-3.21,3-3.31a3,3,0,1,0-4.42-4.06l-2.81,3.06-2.87-3a3,3,0,0,0-4.31,4.18l3.11,3.21-3.05,3.31a3,3,0,0,0,4.43,4.07l2.81-3.06,2.87,2.95a3,3,0,0,0,4.24.07A3,3,0,0,0,421.56,153Z"/><ellipse id="sprite-16" class="cls-3" cx="333.5" cy="166.77" rx="7.14" ry="7.57"/><ellipse id="sprite-14" class="cls-1" cx="381.57" cy="158.7" rx="10.14" ry="10.74"/><path id="sprite-13" class="cls-3" d="M293.23,166.82l-3.11-3.21,3.05-3.31a3,3,0,0,0-4.43-4.07l-2.81,3.06-2.87-2.95a3,3,0,1,0-4.31,4.18l3.11,3.21-3,3.31a3,3,0,1,0,4.42,4.07l2.81-3.06,2.87,2.95a3,3,0,0,0,2.16.91,3,3,0,0,0,2.15-5.09Z"/><path id="sprite-12" class="cls-2" d="M361.33,155.78a2.8,2.8,0,0,0-2.28,1.23h-5.27l5.15-6,.23,0a3,3,0,1,0-2.84-3,3.31,3.31,0,0,0,.05.55l-6.64,7.73-4.16-7.22a3.07,3.07,0,0,0,.19-1.06,2.84,2.84,0,1,0-3.17,3l3.48,6h-4.71a2.81,2.81,0,0,0-2.29-1.23,3,3,0,0,0,0,6,2.8,2.8,0,0,0,2.29-1.22h4.77l-5.16,6-.22,0a3,3,0,1,0,2.84,3,2.51,2.51,0,0,0-.06-.55l5.64-6.57,3.64,6.3a3.12,3.12,0,0,0-.12.82,2.84,2.84,0,1,0,2.93-3l-3.46-6h6.89a2.79,2.79,0,0,0,2.28,1.22,3,3,0,0,0,0-6Z"/><path id="sprite-11" class="cls-8" d="M416.17,130.25c.17,5.75-7.24,6-7.07,11.71s7.58,5.52,7.75,11.27-7.23,6-7.06,11.71"/><ellipse id="sprite-9" class="cls-3" cx="190.58" cy="170.13" rx="3.98" ry="4.21"/><ellipse id="sprite-8" class="cls-9" cx="405.22" cy="158.25" rx="4.9" ry="5.2"/><path id="sprite-7" class="cls-5" d="M325.44,168.76l-3.11-3.2,3-3.31a3,3,0,1,0-4.42-4.07l-2.81,3.06-2.87-3a3,3,0,1,0-4.31,4.18l3.11,3.2L311,169a3,3,0,1,0,4.42,4.06l2.82-3.06,2.87,3a3,3,0,0,0,4.24.06A3,3,0,0,0,325.44,168.76Z"/><ellipse id="sprite-6" class="cls-2" cx="414.58" cy="149.9" rx="3.98" ry="4.21"/><ellipse id="sprite-5" class="cls-10" cx="400.63" cy="155.1" rx="7.14" ry="7.57"/><ellipse id="sprite-5-2" data-name="sprite-5" class="cls-1" cx="313.58" cy="161.71" rx="10.14" ry="10.74"/><path id="sprite-4" class="cls-5" d="M409.89,129.44a2.79,2.79,0,0,0-2.28,1.23h-5.27l5.15-6,.23,0a3,3,0,1,0-2.84-3,3.41,3.41,0,0,0,.05.55L398.29,130l-4.16-7.22a3.11,3.11,0,0,0,.19-1.06,2.84,2.84,0,1,0-3.17,3l3.48,6h-4.72a2.78,2.78,0,0,0-2.28-1.23,3,3,0,0,0,0,6,2.78,2.78,0,0,0,2.28-1.23h4.78l-5.16,6-.23,0a3,3,0,1,0,2.85,3,3.31,3.31,0,0,0-.06-.55l5.64-6.57,3.64,6.3a2.76,2.76,0,0,0-.13.82,2.85,2.85,0,1,0,2.94-3l-3.46-6h6.89a2.79,2.79,0,0,0,2.28,1.23,3,3,0,0,0,0-6Z"/><path id="sprite-3" class="cls-5" d="M381.16,150.63l-3.11-3.21,3-3.31a3,3,0,1,0-4.42-4.06l-2.81,3.06-2.87-3a3,3,0,0,0-4.31,4.18l3.11,3.21-3.05,3.31a3,3,0,0,0,4.43,4.07l2.81-3.06,2.87,2.95a3,3,0,1,0,4.31-4.18Z"/><path id="sprite-3-2" data-name="sprite-3" class="cls-5" d="M223.16,169.08l-3.11-3.2,3-3.32a3,3,0,1,0-4.42-4.06l-2.81,3.06-2.87-3a3,3,0,1,0-4.31,4.19l3.11,3.2-3,3.32a3,3,0,0,0,2.21,5,3,3,0,0,0,2.22-1l2.81-3.06,2.87,3a3,3,0,0,0,2.15.91,3,3,0,0,0,2.09-.85A3,3,0,0,0,223.16,169.08Z"/><path id="sprite-2" class="cls-11" d="M244.44,164.51c6.07,0,6.07,7.83,12.14,7.83s6.07-7.83,12.15-7.83,6.07,7.83,12.14,7.83,6.07-7.83,12.14-7.83,6.07,7.83,12.14,7.83"/><path id="sprite-1" class="cls-3" d="M418.49,111.5c-8,0-14.45,5.33-14.45,11.89,0,6,5.37,10.93,12.35,11.76v7l7.15-7.58c5.48-1.69,9.39-6,9.39-11.14C432.93,116.83,426.46,111.5,418.49,111.5Zm2.81,18.3H410.47v-1.54H421.3Zm5.21-3.68h-16v-1.54h16Zm0-3.68h-16V120.9h16Zm0-3.69h-16v-1.53h16Z"/><circle class="cls-12" cx="377.94" cy="165.57" r="4.63"/><polygon class="cls-12" points="373.83 172.78 369.84 162.1 371.18 161.16 376.79 172.52 373.83 172.78"/><polygon class="cls-12" points="380.26 156.31 382.57 155.15 388.36 169.04 386.05 170.2 380.26 156.31"/><path class="cls-3" d="M393.52,154.11a11.77,11.77,0,0,1,5.57-7.78,13.72,13.72,0,0,0-6,1.09l-.23.1c-3.36,1.49-4.38,4-5.63,6.73Z"/><path class="cls-3" d="M391.19,166.37c3.75,1.18,10.05,1.11,11.56.55a12.88,12.88,0,0,0,4.19-3.22,11.75,11.75,0,0,1-10.77-2.37A37.27,37.27,0,0,1,391.19,166.37Z"/><path class="cls-5" d="M361.65,171.4a.81.81,0,0,0,0,.68.92.92,0,0,0,.24.31.87.87,0,0,0,.27.14c.47.14,11.67,3.33,22.15-1.11s16-14.7,16.21-15.13a.78.78,0,0,0-.21-1,.94.94,0,0,0-.26-.14c-.48-.13-11.68-3.32-22.15,1.11S361.88,171,361.65,171.4Zm20.73-15.75,5.44,12.86-1.25.77L381,156.1Zm-3,12.81a3.61,3.61,0,0,1-3.62-.48,3.67,3.67,0,0,1-1.09-1.43,3.59,3.59,0,0,1,5.53-4.22,3.64,3.64,0,0,1,1.09,1.42A3.6,3.6,0,0,1,379.39,168.46Zm-8.22-7.12,4.68,11.16-1.43.23-4.35-10.39Z"/><path class="cls-3" d="M404.54,154c0-.38-5.44.8-8.74,2.2-3,1.26-6.64,3.3-6.6,3.82,0,0,0,0,0,0,.21.52,4.25-.7,9-2.72C400.67,156.26,404.58,154.47,404.54,154Z"/><ellipse id="sprite-17" class="cls-2" cx="231.88" cy="170.13" rx="3.98" ry="4.21"/><ellipse id="sprite-15" class="cls-5" cx="346.18" cy="168.83" rx="3.98" ry="4.21"/><ellipse id="sprite-16-2" data-name="sprite-16" class="cls-5" cx="102.5" cy="166.77" rx="7.14" ry="7.57"/><path id="sprite-13-2" data-name="sprite-13" class="cls-3" d="M141.23,169.08l-3.11-3.2,3-3.32a3,3,0,0,0-4.43-4.06l-2.81,3.06-2.87-3a3,3,0,1,0-4.31,4.19l3.11,3.2-3,3.32a3,3,0,0,0,4.42,4.06l2.81-3.06,2.87,3a3,3,0,0,0,4.31-4.19Z"/><path id="sprite-12-2" data-name="sprite-12" class="cls-2" d="M184.33,157.64a2.8,2.8,0,0,0-2.28,1.23h-5.27l5.15-6,.23,0a3,3,0,1,0-2.84-3,3.31,3.31,0,0,0,.05.55l-6.64,7.73L168.57,151a3.11,3.11,0,0,0,.19-1.06,2.84,2.84,0,1,0-3.17,2.95l3.48,6h-4.71a2.81,2.81,0,0,0-2.29-1.23,3,3,0,0,0,0,6,2.8,2.8,0,0,0,2.29-1.22h4.77l-5.16,6-.22,0a3,3,0,1,0,2.84,3,2.51,2.51,0,0,0-.06-.55l5.64-6.57,3.64,6.3a3.12,3.12,0,0,0-.12.82,2.84,2.84,0,1,0,2.93-3l-3.46-6h6.89a2.79,2.79,0,0,0,2.28,1.22,3,3,0,0,0,0-6Z"/><ellipse id="sprite-9-2" data-name="sprite-9" class="cls-2" cx="77.58" cy="170.13" rx="3.98" ry="4.21"/><path id="sprite-7-2" data-name="sprite-7" class="cls-5" d="M47.44,169.08l-3.11-3.2,3-3.32A3,3,0,0,0,43,158.5l-2.81,3.06-2.87-3A3,3,0,1,0,33,162.79l3.11,3.2-3,3.32a3,3,0,0,0,4.42,4.06l2.82-3.06,2.87,3a3,3,0,0,0,4.31-4.19Z"/><ellipse id="sprite-17-2" data-name="sprite-17" class="cls-3" cx="11.88" cy="170.13" rx="3.98" ry="4.21"/><path class="cls-13" d="M427,37h15.15a15.89,15.89,0,1,1,31.77,0h3A66.64,66.64,0,0,1,489,38.14c0-.37,0-.74,0-1.11A31,31,0,0,0,427,37Z"/><path class="cls-13" d="M546.5,78.58h-7.16A66.82,66.82,0,0,0,489,36.46a67.54,67.54,0,0,0-12.15-1.11H396.53c.11-.23.11,133.38.14,133.43h80.21a66.73,66.73,0,0,0,62.46-43.23h7.16Z"/><path class="cls-14" d="M443.07,102.06l18.2,18.22v-7l11.17-11.18L461.27,90.88v-7Zm20.64,4.47-4.48-4.48,4.46-4.46,4.48,4.47Zm-1.4-10.32-5.84,5.84,0,.06,5.8,5.8-3.41,3.41-9.25-9.26,9.25-9.25Z"/></svg>