<?xml version="1.0" encoding="utf-8"?>
<!-- Generator: Adobe Illustrator 23.0.3, SVG Export Plug-In . SVG Version: 6.00 Build 0)  -->
<svg version="1.1" id="Layer_1" xmlns="http://www.w3.org/2000/svg" xmlns:xlink="http://www.w3.org/1999/xlink" x="0px" y="0px"
	 viewBox="0 0 470 181" style="enable-background:new 0 0 470 181;" xml:space="preserve">
<style type="text/css">
	.st0{fill:#FED504;}
	.st1{fill:#3DBFE3;}
	.st2{fill:none;stroke:#2D2A2A;stroke-width:3;stroke-linecap:round;stroke-linejoin:round;stroke-miterlimit:10;}
	.st3{fill:#FFFFFF;stroke:#2D2A2A;stroke-width:3;stroke-linecap:round;stroke-linejoin:round;stroke-miterlimit:10;}
	.st4{fill:#2D2D2D;stroke:#2D2A2A;stroke-miterlimit:10;}
	.st5{fill:#f03330;}
	.st6{fill:#FED330;stroke:#2D2A2A;stroke-width:3;stroke-linecap:round;stroke-linejoin:round;stroke-miterlimit:10;}
	.st7{fill:#f03330;stroke:#2D2A2A;stroke-width:3;stroke-linecap:round;stroke-linejoin:round;}
	.st8{fill:#3DBFE3;stroke:#2D2A2A;stroke-width:3;stroke-linecap:round;stroke-linejoin:round;}
	.st9{fill:#2D2D2D;}
	.st10{fill:#FED330;stroke:#2D2A2A;stroke-width:3;stroke-linecap:round;stroke-linejoin:round;}
	.st11{fill:none;stroke:#2D2D2D;stroke-width:3;stroke-linecap:round;stroke-linejoin:round;stroke-miterlimit:10;}
	.st12{fill:#FED330;}
	.st13{fill:#3DBFE3;stroke:#2D2D2D;stroke-width:3;stroke-linecap:round;stroke-linejoin:round;stroke-miterlimit:10;}
	.st14{fill:#f03330;stroke:#2D2D2D;stroke-width:3;stroke-linecap:round;stroke-linejoin:round;stroke-miterlimit:10;}
</style>
<path class="st0" d="M126,91.2l-9.5,0.4l0.1-9.4c0-1.7-1.3-3-3-3c0,0,0,0,0,0c-1.6,0-3,1.3-3,3l-0.1,9.8l-9.8,0.4
	c-1.7,0.1-2.9,1.5-2.9,3.1c0.1,1.6,1.4,2.9,3,2.9c0.1,0,0.1,0,0.1,0l9.5-0.4l-0.1,9.4c0,1.7,1.3,3,3,3c0,0,0,0,0,0c1.6,0,3-1.3,3-3
	l0.1-9.8l9.8-0.4c1.7-0.1,2.9-1.5,2.9-3.1C129.1,92.4,127.7,91.2,126,91.2z"/>
<g>
	<g>
		<path class="st0" d="M331.4,109.2c-3.7,0-5.6-2.4-7-4.2c-1.3-1.6-1.9-2.3-3-2.3s-1.8,0.6-3,2.3c-1.4,1.8-3.2,4.2-7,4.2
			s-5.6-2.4-7-4.2c-1.3-1.6-1.9-2.3-3-2.3s-1.8,0.6-3,2.3c-1.4,1.8-3.2,4.2-7,4.2s-5.6-2.4-7-4.2c-1.3-1.6-1.9-2.3-3-2.3
			c-1.4,0-2.5-1.1-2.5-2.5s1.1-2.5,2.5-2.5c3.7,0,5.6,2.4,7,4.2c1.3,1.6,1.9,2.3,3,2.3s1.8-0.6,3-2.3c1.4-1.8,3.2-4.2,7-4.2
			s5.6,2.4,7,4.2c1.3,1.6,1.9,2.3,3,2.3s1.8-0.6,3-2.3c1.4-1.8,3.2-4.2,7-4.2s5.6,2.4,7,4.2c1.3,1.6,1.9,2.3,3,2.3
			c1.4,0,2.5,1.1,2.5,2.5S332.8,109.2,331.4,109.2z"/>
	</g>
	<g>
		<path class="st0" d="M331.4,90.7c-3.7,0-5.6-2.4-7-4.2c-1.3-1.6-1.9-2.3-3-2.3s-1.8,0.6-3,2.3c-1.4,1.8-3.2,4.2-7,4.2
			s-5.6-2.4-7-4.2c-1.3-1.6-1.9-2.3-3-2.3s-1.8,0.6-3,2.3c-1.4,1.8-3.2,4.2-7,4.2s-5.6-2.4-7-4.2c-1.3-1.6-1.9-2.3-3-2.3
			c-1.4,0-2.5-1.1-2.5-2.5s1.1-2.5,2.5-2.5c3.7,0,5.6,2.4,7,4.2c1.3,1.6,1.9,2.3,3,2.3s1.8-0.6,3-2.3c1.4-1.8,3.2-4.2,7-4.2
			s5.6,2.4,7,4.2c1.3,1.6,1.9,2.3,3,2.3s1.8-0.6,3-2.3c1.4-1.8,3.2-4.2,7-4.2s5.6,2.4,7,4.2c1.3,1.6,1.9,2.3,3,2.3
			c1.4,0,2.5,1.1,2.5,2.5S332.8,90.7,331.4,90.7z"/>
	</g>
</g>
<g>
	<g>
		<g>
			<polygon id="SVGID_1_" class="st1" points="389.6,79.6 376.5,43.8 403.1,71.2 			"/>
		</g>
		<g>
			<polygon class="st2" points="389.6,79.6 376.5,43.8 403.1,71.2 			"/>
		</g>
	</g>
	<path class="st3" d="M402.1,113.2v17.8h39.8c0,0-0.4-27.1-0.4-38.3c0-13.3-10.2-24.2-23.3-25.3c0.1-0.6,0.1-1.1,0.1-1.7
		c0-6.2-5-11.2-11.2-11.2v14l-2.7,1.6c-1.2,0.6-2.3,1.3-3.4,2.1l-35.7,22.2l0,0c-4,1.5-6.8,5.4-6.8,9.9c0,5.9,4.8,10.7,10.7,10.7
		c4.9,0,9-3.3,10.2-7.7l14.2-2.6l0.1,0.1c1.6,5.2,6.4,9.1,12.2,9.1c7,0,12.7-5.7,12.7-12.7"/>
	<circle class="st4" cx="399.6" cy="84.2" r="2.1"/>
	<path class="st2" d="M367,100.9c1.2,0.7,1.7,2.2,1,3.4s-2.2,1.7-3.4,1"/>
	<g>
		<g>
			<path id="SVGID_3_" class="st5" d="M424.6,61.7v82.1c3.7-1,7.2-2.4,10.4-4.3c12.7-7.3,21.2-21.1,21.2-36.8
				C456.2,83.1,442.8,66.5,424.6,61.7z"/>
		</g>
		<g>
			<path class="st2" d="M424.6,61.7v82.1c3.7-1,7.2-2.4,10.4-4.3c12.7-7.3,21.2-21.1,21.2-36.8C456.2,83.1,442.8,66.5,424.6,61.7z"
				/>
		</g>
	</g>
	<line class="st2" x1="432" y1="133.5" x2="432" y2="95.9"/>
	<polygon class="st6" points="387.9,75.1 384.5,65.8 388.5,56.3 393.7,61.5 	"/>
	<line class="st2" x1="438.7" y1="109.6" x2="438.7" y2="88.7"/>
</g>
<g>
	<g>
		<path class="st7" d="M178.2,104.8l0.5,2.1c8.2,2.2,14.3,4.8,14.3,13.7h-38.2c0-8.9,6.1-11.5,14.2-13.7l0.5-2.1"/>
		<path class="st8" d="M180.4,107.3c-0.6-0.2-1.1-0.3-1.7-0.5l-0.5-2.1h-8.6l-0.5,2.1c-0.6,0.2-1.1,0.3-1.7,0.5
			c-7.3,2.1-12.6,4.9-12.6,13.2H193C193,112.3,187.8,109.4,180.4,107.3z"/>
		<path class="st8" d="M174.6,73.6h-1.4c-6.5,0-11.8,5.3-11.8,11.8v7.9c0,6.5,5.3,11.8,11.8,11.8h1.4c6.5,0,11.8-5.3,11.8-11.8v-7.9
			C186.4,78.8,181.1,73.6,174.6,73.6z"/>
		<circle class="st9" cx="169.7" cy="89.2" r="1.1"/>
		<circle class="st9" cx="178.1" cy="89.2" r="1.1"/>
	</g>
	<g>
		<path class="st7" d="M240,104.8l0.5,2.1c8.2,2.2,14.2,4.8,14.2,13.7h-38.2c0-8.9,6-11.5,14.2-13.7l0.5-2.1"/>
		<path class="st10" d="M242.2,107.3c-0.5-0.2-1.1-0.3-1.7-0.5l-0.5-2.1h-8.6l-0.5,2.1c-0.6,0.2-1.1,0.3-1.7,0.5
			c-7.3,2.1-12.6,4.9-12.6,13.2h38.2C254.8,112.3,249.6,109.4,242.2,107.3z"/>
		<path class="st10" d="M236.4,73.6H235c-6.5,0-11.8,5.3-11.8,11.8v7.9c0,6.5,5.3,11.8,11.8,11.8h1.4c6.5,0,11.8-5.3,11.8-11.8v-7.9
			C248.2,78.8,242.9,73.6,236.4,73.6z"/>
		<circle class="st9" cx="231.5" cy="89.2" r="1.1"/>
		<circle class="st9" cx="239.9" cy="89.2" r="1.1"/>
	</g>
	<g>
		<path class="st7" d="M209.6,102.7l0.6,2.3c9.3,2.4,16.2,5.4,16.2,15.6h-43.5c0-10.1,6.9-13.1,16.2-15.6l0.6-2.3"/>
		<path class="st7" d="M212.1,105.5c-0.6-0.2-1.2-0.3-1.9-0.5l-0.6-2.3h-9.9l-0.6,2.3c-0.6,0.2-1.3,0.3-1.9,0.5
			c-8.4,2.4-14.3,5.6-14.3,15.1h43.5C226.4,111.2,220.4,107.9,212.1,105.5z"/>
		<path class="st7" d="M205.5,67h-1.6c-7.4,0-13.4,6-13.4,13.4v9c0,7.4,6,13.4,13.4,13.4h1.6c7.4,0,13.4-6,13.4-13.4v-9
			C218.9,73,212.9,67,205.5,67z"/>
		<circle class="st9" cx="199.9" cy="84.8" r="1.3"/>
		<circle class="st9" cx="209.4" cy="84.8" r="1.3"/>
	</g>
</g>
<g>
	<line class="st11" x1="43.2" y1="57.4" x2="43.2" y2="47.3"/>
	<line class="st11" x1="29.1" y1="60.6" x2="24.1" y2="51.9"/>
	<line class="st11" x1="57.2" y1="60.6" x2="62.2" y2="51.9"/>
	<line class="st11" x1="18.1" y1="70.8" x2="9.4" y2="65.8"/>
	<line class="st11" x1="68.3" y1="70.8" x2="77" y2="65.8"/>
	<g>
		<g>
			<path id="SVGID_5_" class="st12" d="M67.1,89.7c0-13.2-10.7-23.9-23.9-23.9S19.3,76.5,19.3,89.7c0,9.5,5.6,17.8,13.7,21.6
				c0,0.1,0,0.2,0,0.4v1.1c0,1.5,0,3.6,0,3.6h20.6c0,0,0-2.1,0-3.6v-1.1c0-0.1,0-0.2,0-0.4C61.5,107.4,67.1,99.2,67.1,89.7z"/>
		</g>
		<g>
			<path class="st11" d="M67.1,89.7c0-13.2-10.7-23.9-23.9-23.9S19.3,76.5,19.3,89.7c0,9.5,5.6,17.8,13.7,21.6c0,0.1,0,0.2,0,0.4
				v1.1c0,1.5,0,3.6,0,3.6h20.6c0,0,0-2.1,0-3.6v-1.1c0-0.1,0-0.2,0-0.4C61.5,107.4,67.1,99.2,67.1,89.7z"/>
		</g>
	</g>
	<path class="st13" d="M53.7,120.2H32.7c-1.5,0-2.7-1.2-2.7-2.7l0,0c0-1.5,1.2-2.7,2.7-2.7h20.9c1.5,0,2.7,1.2,2.7,2.7l0,0
		C56.4,119,55.2,120.2,53.7,120.2z"/>
	<path class="st13" d="M53.7,125.7H32.7c-1.5,0-2.7-1.2-2.7-2.7l0,0c0-1.5,1.2-2.7,2.7-2.7h20.9c1.5,0,2.7,1.2,2.7,2.7l0,0
		C56.4,124.5,55.2,125.7,53.7,125.7z"/>
	<g>
		<path class="st14" d="M43.2,132.3c4.7,0,8.6-2.7,10.2-6.6H33C34.6,129.6,38.6,132.3,43.2,132.3z"/>
	</g>
	<g>
		<path class="st2" d="M40.7,94.1c0,1.4-1.1,2.6-2.6,2.6s-2.6-1.1-2.6-2.6l3.1,20.6"/>
		<path class="st2" d="M40.7,94.1c0,1.4,1.1,2.6,2.6,2.6s2.6-1.1,2.6-2.6"/>
		<path class="st2" d="M45.8,94.1c0,1.4,1.1,2.6,2.6,2.6s2.6-1.1,2.6-2.6l-3.1,20.6"/>
	</g>
</g>
</svg>
