<?xml version="1.0" encoding="utf-8"?>
<!-- Generator: Adobe Illustrator 23.0.6, SVG Export Plug-In . SVG Version: 6.00 Build 0)  -->
<svg version="1.1" id="Layer_1" xmlns="http://www.w3.org/2000/svg" xmlns:xlink="http://www.w3.org/1999/xlink" x="0px" y="0px"
	 viewBox="0 0 475 130" style="enable-background:new 0 0 475 130;" xml:space="preserve">
<style type="text/css">
	.st0{fill:#33BFE5;}
	.st1{fill:none;stroke:#FED504;stroke-width:3.443;stroke-linecap:round;stroke-miterlimit:10;}
	.st2{fill:none;stroke:#F03330;stroke-width:4.3617;stroke-linecap:round;stroke-miterlimit:10;}
	.st3{fill:#F03330;}
	.st4{clip-path:url(#SVGID_2_);}
	.st5{clip-path:url(#SVGID_4_);fill:none;stroke:#E81E25;stroke-width:2.9765;stroke-linecap:round;stroke-miterlimit:10;}
	.st6{clip-path:url(#SVGID_6_);}
	.st7{clip-path:url(#SVGID_8_);fill:none;stroke:#FFD506;stroke-width:4.1285;stroke-linecap:round;stroke-miterlimit:10;}
	.st8{clip-path:url(#SVGID_10_);}
	.st9{clip-path:url(#SVGID_12_);fill:#E81E25;}
	.st10{clip-path:url(#SVGID_14_);}
	.st11{clip-path:url(#SVGID_16_);fill:#FFD506;}
	.st12{clip-path:url(#SVGID_18_);}
	.st13{clip-path:url(#SVGID_20_);fill:#34BFE5;}
</style>
<path id="sprite-3_2_" class="st0" d="M412.3,40.9l-3.3-3.4l3.2-3.5c1.2-1.3,1.1-3.3-0.2-4.5c-1.3-1.2-3.3-1.1-4.5,0.2l-3,3.2
	l-3-3.1c-1.2-1.3-3.2-1.3-4.5-0.1c-1.3,1.2-1.3,3.2-0.1,4.5l3.3,3.4l-3.2,3.5c-1.2,1.3-1.1,3.3,0.2,4.5c0.6,0.6,1.4,0.8,2.1,0.8
	c0.9,0,1.7-0.3,2.3-1l3-3.2l3,3.1c0.6,0.6,1.5,1,2.3,1c0.8,0,1.6-0.3,2.2-0.9C413.5,44.1,413.6,42.1,412.3,40.9z"/>
<ellipse id="sprite-14_2_" class="st1" cx="124.9" cy="105.7" rx="11" ry="11"/>
<path id="sprite-2_6_" class="st2" d="M36.6,20.4c6.4,0,6.4,8.3,12.8,8.3c6.4,0,6.4-8.3,12.8-8.3c6.4,0,6.4,8.3,12.8,8.3
	s6.4-8.3,12.8-8.3s6.4,8.3,12.8,8.3"/>
<ellipse id="sprite-17_2_" class="st3" cx="149.7" cy="69.9" rx="4.9" ry="4.9"/>
<g id="color-shapes">
</g>
<path id="sprite-4_1_" class="st0" d="M225.4,21.4c-1,0-1.9,0.5-2.4,1.3h-5.6l5.4-6.3c0.1,0,0.2,0,0.2,0c1.6,0,3-1.4,3-3.1
	s-1.3-3.1-3-3.1s-3,1.4-3,3.1c0,0.2,0,0.4,0.1,0.6l-7,8.1l-4.4-7.6c0.1-0.4,0.2-0.7,0.2-1.1c0-1.7-1.3-3.1-3-3.1s-3,1.4-3,3.1
	c0,1.6,1.2,2.9,2.6,3.1l3.7,6.3h-5c-0.5-0.8-1.4-1.3-2.4-1.3c-1.6,0-3,1.4-3,3.1c0,1.7,1.3,3.1,3,3.1c1,0,1.9-0.5,2.4-1.3h5
	l-5.4,6.3c-0.1,0-0.2,0-0.2,0c-1.6,0-3,1.4-3,3.1s1.3,3.1,3,3.1s3-1.4,3-3.1c0-0.2,0-0.4-0.1-0.6l5.9-6.9l3.8,6.6
	c-0.1,0.3-0.1,0.6-0.1,0.9c0,1.7,1.3,3.1,3,3.1s3-1.4,3-3.1c0-1.7-1.3-3.1-2.9-3.1l-3.6-6.3h7.3c0.5,0.8,1.4,1.3,2.4,1.3
	c1.6,0,3-1.4,3-3.1C228.4,22.8,227.1,21.4,225.4,21.4z"/>
<path id="sprite-3_1_" class="st0" d="M35.8,89.2l-3.3-3.4l3.2-3.5c1.2-1.3,1.1-3.3-0.2-4.5c-1.3-1.2-3.3-1.1-4.5,0.2l-3,3.2l-3-3.1
	c-1.2-1.3-3.2-1.3-4.5-0.1c-1.3,1.2-1.3,3.2-0.1,4.5l3.3,3.4l-3.2,3.5c-1.2,1.3-1.1,3.3,0.2,4.5c0.6,0.6,1.4,0.8,2.1,0.8
	c0.9,0,1.7-0.3,2.3-1l3-3.2l3,3.1c0.6,0.6,1.5,1,2.3,1c0.8,0,1.6-0.3,2.2-0.9C36.9,92.5,37,90.5,35.8,89.2z"/>
<g id="Artwork_11_1_">
	<g>
		<defs>
			<rect id="SVGID_1_" x="255.5" y="80.2" width="22" height="22"/>
		</defs>
		<clipPath id="SVGID_2_">
			<use xlink:href="#SVGID_1_"  style="overflow:visible;"/>
		</clipPath>
		<g class="st4">
			<defs>
				<rect id="SVGID_3_" x="255.5" y="80.2" width="22" height="22"/>
			</defs>
			<clipPath id="SVGID_4_">
				<use xlink:href="#SVGID_3_"  style="overflow:visible;"/>
			</clipPath>
			<path class="st5" d="M275.2,87.6c2,4.9-0.4,10.4-5.2,12.4c-4.8,2-10.3-0.4-12.3-5.3s0.4-10.4,5.2-12.4
				C267.8,80.4,273.3,82.8,275.2,87.6z"/>
		</g>
	</g>
</g>
<g id="Artwork_2_1_">
	<g>
		<defs>
			<rect id="SVGID_5_" x="354.2" y="58.8" width="13" height="64.9"/>
		</defs>
		<clipPath id="SVGID_6_">
			<use xlink:href="#SVGID_5_"  style="overflow:visible;"/>
		</clipPath>
		<g class="st6">
			<defs>
				<rect id="SVGID_7_" x="354.2" y="58.8" width="13" height="64.9"/>
			</defs>
			<clipPath id="SVGID_8_">
				<use xlink:href="#SVGID_7_"  style="overflow:visible;"/>
			</clipPath>
			<path class="st7" d="M363.7,60.8c0.2,6.1-7.6,6.3-7.4,12.3c0.2,6.1,8,5.8,8.2,11.9c0.2,6.1-7.6,6.3-7.4,12.3
				c0.2,6.1,8,5.8,8.2,11.9c0.2,6.1-7.6,6.3-7.4,12.3"/>
		</g>
	</g>
</g>
<g id="Artwork_19_1_">
	<g>
		<defs>
			<rect id="SVGID_9_" x="438.2" y="71.4" width="29.4" height="28.9"/>
		</defs>
		<clipPath id="SVGID_10_">
			<use xlink:href="#SVGID_9_"  style="overflow:visible;"/>
		</clipPath>
		<g class="st8">
			<defs>
				<rect id="SVGID_11_" x="438.2" y="71.4" width="29.4" height="28.9"/>
			</defs>
			<clipPath id="SVGID_12_">
				<use xlink:href="#SVGID_11_"  style="overflow:visible;"/>
			</clipPath>
			<path class="st9" d="M464.6,82.7c-1,0-1.9,0.5-2.4,1.3h-5.6l5.4-6.3c0.1,0,0.2,0,0.2,0c1.7,0,3-1.4,3-3.1c0-1.7-1.3-3.1-3-3.1
				c-1.6,0-3,1.4-3,3.1c0,0.2,0,0.4,0.1,0.6l-7,8.2l-4.4-7.6c0.1-0.4,0.2-0.7,0.2-1.1c0-1.7-1.3-3.1-3-3.1c-1.7,0-3,1.4-3,3.1
				c0,1.6,1.2,2.9,2.6,3.1l3.7,6.3h-5c-0.5-0.8-1.4-1.3-2.4-1.3c-1.7,0-3,1.4-3,3.1c0,1.7,1.3,3.1,3,3.1c1,0,1.9-0.5,2.4-1.3h5
				l-5.4,6.3c-0.1,0-0.2,0-0.2,0c-1.7,0-3,1.4-3,3.1s1.3,3.1,3,3.1c1.6,0,3-1.4,3-3.1c0-0.2,0-0.4-0.1-0.6l5.9-6.9l3.8,6.6
				c-0.1,0.3-0.1,0.6-0.1,0.9c0,1.7,1.3,3.1,3,3.1c1.7,0,3-1.4,3-3.1c0-1.7-1.3-3.1-2.9-3.1l-3.6-6.3h7.3c0.5,0.8,1.4,1.3,2.4,1.3
				c1.7,0,3-1.4,3-3.1C467.6,84.2,466.3,82.7,464.6,82.7"/>
		</g>
	</g>
</g>
<g id="Artwork_7_1_">
	<g>
		<defs>
			<rect id="SVGID_13_" x="245.7" y="5.2" width="9.8" height="9.8"/>
		</defs>
		<clipPath id="SVGID_14_">
			<use xlink:href="#SVGID_13_"  style="overflow:visible;"/>
		</clipPath>
		<g class="st10">
			<defs>
				<rect id="SVGID_15_" x="245.7" y="5.2" width="9.8" height="9.8"/>
			</defs>
			<clipPath id="SVGID_16_">
				<use xlink:href="#SVGID_15_"  style="overflow:visible;"/>
			</clipPath>
			<path class="st11" d="M254.5,13c-1.6,2.2-4.6,2.7-6.8,1.1c-2.2-1.6-2.7-4.6-1.1-6.8c1.6-2.2,4.6-2.7,6.8-1.1
				C255.7,7.8,256.1,10.8,254.5,13"/>
		</g>
	</g>
</g>
<g id="Artwork_9_1_">
	<g>
		<defs>
			<rect id="SVGID_17_" x="288.5" y="112.7" width="8" height="8"/>
		</defs>
		<clipPath id="SVGID_18_">
			<use xlink:href="#SVGID_17_"  style="overflow:visible;"/>
		</clipPath>
		<g class="st12">
			<defs>
				<rect id="SVGID_19_" x="288.5" y="112.7" width="8" height="8"/>
			</defs>
			<clipPath id="SVGID_20_">
				<use xlink:href="#SVGID_19_"  style="overflow:visible;"/>
			</clipPath>
			<path class="st13" d="M295.7,119.1c-1.3,1.8-3.8,2.2-5.6,0.9c-1.8-1.3-2.2-3.8-0.9-5.6s3.8-2.2,5.6-0.9
				C296.7,114.8,297,117.3,295.7,119.1"/>
		</g>
	</g>
</g>
</svg>
