<?xml version="1.0" encoding="utf-8"?>
<!-- Generator: Adobe Illustrator 23.0.3, SVG Export Plug-In . SVG Version: 6.00 Build 0)  -->
<svg version="1.1" xmlns="http://www.w3.org/2000/svg" xmlns:xlink="http://www.w3.org/1999/xlink" x="0px" y="0px"
	 viewBox="0 0 226.09 132.39" style="enable-background:new 0 0 226.09 132.39;" xml:space="preserve">
<style type="text/css">
	.st0{fill:#33BFE5;}
	.st1{fill:none;stroke:#FED504;stroke-width:2.828;stroke-linecap:round;stroke-miterlimit:10;}
	.st2{fill:none;stroke:#f03330;stroke-width:3.5762;stroke-linecap:round;stroke-miterlimit:10;}
	.st3{fill:#f03330;}
	.st4{fill:none;stroke:#33BFE5;stroke-width:2.828;stroke-linecap:round;stroke-miterlimit:10;}
	.st5{fill:#FED504;}
</style>
<g id="texture-shapes">
	<path id="sprite-3_2_" class="st0" d="M53.98,106.9l-2.69-2.77l2.63-2.86c0.97-1.06,0.9-2.7-0.16-3.67
		c-1.06-0.97-2.7-0.9-3.67,0.16l-2.43,2.64l-2.48-2.55c-1-1.03-2.64-1.05-3.67-0.06c-1.03,1-1.05,2.64-0.05,3.67l2.69,2.77
		l-2.63,2.86c-0.97,1.06-0.9,2.7,0.16,3.67c0.5,0.46,1.13,0.68,1.75,0.68c0.7,0,1.4-0.28,1.91-0.84l2.43-2.64l2.48,2.55
		c0.51,0.52,1.19,0.79,1.86,0.79c0.65,0,1.3-0.24,1.81-0.73C54.95,109.57,54.98,107.93,53.98,106.9z"/>
	<ellipse id="sprite-14_6_" class="st1" cx="133.12" cy="83.12" rx="8.76" ry="9.28"/>
	<path id="sprite-2_6_" class="st2" d="M32.03,29.46c5.24,0,5.24,6.77,10.49,6.77c5.24,0,5.24-6.77,10.49-6.77
		c5.24,0,5.24,6.77,10.49,6.77c5.25,0,5.25-6.77,10.49-6.77s5.25,6.77,10.49,6.77"/>
	<path id="sprite-4_1_" class="st3" d="M122.66,375.6c-0.81,0-1.53,0.42-1.97,1.06h-4.56l4.45-5.19c0.06,0.01,0.13,0.02,0.19,0.02
		c1.35,0,2.45-1.16,2.45-2.58s-1.1-2.58-2.45-2.58s-2.45,1.16-2.45,2.58c0,0.16,0.02,0.32,0.05,0.47l-5.73,6.68l-3.6-6.24
		c0.11-0.29,0.17-0.6,0.17-0.92c0-1.42-1.1-2.58-2.45-2.58s-2.45,1.16-2.45,2.58c0,1.32,0.95,2.4,2.17,2.55l3,5.2h-4.07
		c-0.45-0.64-1.16-1.06-1.97-1.06c-1.35,0-2.45,1.16-2.45,2.58s1.1,2.58,2.45,2.58c0.81,0,1.53-0.42,1.97-1.06h4.12l-4.46,5.19
		c-0.06-0.01-0.13-0.02-0.19-0.02c-1.35,0-2.45,1.16-2.45,2.58s1.1,2.58,2.45,2.58s2.45-1.16,2.45-2.58c0-0.16-0.02-0.32-0.05-0.47
		l4.87-5.68l3.14,5.44c-0.06,0.23-0.11,0.46-0.11,0.71c0,1.42,1.1,2.58,2.45,2.58s2.45-1.16,2.45-2.58c0-1.39-1.06-2.52-2.37-2.57
		l-2.99-5.18h5.95c0.45,0.64,1.16,1.06,1.97,1.06c1.35,0,2.45-1.16,2.45-2.58S124.02,375.6,122.66,375.6z"/>
	<ellipse id="sprite-17_2_" class="st3" cx="181.53" cy="107.82" rx="3.44" ry="3.64"/>
	<ellipse id="sprite-16_2_" class="st0" cx="196.88" cy="22.93" rx="6.17" ry="6.54"/>
	<ellipse id="sprite-14_1_" class="st4" cx="49.5" cy="463.41" rx="8.76" ry="9.28"/>
	<path id="sprite-3_1_" class="st5" d="M174.24,473.39l-2.69-2.77l2.63-2.86c0.97-1.06,0.9-2.7-0.16-3.67
		c-1.06-0.97-2.7-0.9-3.67,0.16l-2.43,2.64l-2.48-2.55c-1-1.03-2.64-1.05-3.67-0.06c-1.03,1-1.05,2.64-0.05,3.67l2.69,2.77
		l-2.63,2.86c-0.97,1.06-0.9,2.7,0.16,3.67c0.5,0.46,1.13,0.68,1.75,0.68c0.7,0,1.4-0.28,1.91-0.84l2.43-2.64l2.48,2.55
		c0.51,0.52,1.19,0.79,1.86,0.79c0.65,0,1.3-0.24,1.81-0.73C175.21,476.06,175.23,474.42,174.24,473.39z"/>
	<path id="sprite-3_3_" class="st3" d="M29.3,388.16l-2.69-2.77l2.63-2.86c0.97-1.06,0.9-2.7-0.16-3.67
		c-1.06-0.97-2.7-0.9-3.67,0.16l-2.43,2.64l-2.48-2.55c-1-1.03-2.64-1.05-3.67-0.06c-1.03,1-1.05,2.64-0.05,3.67l2.69,2.77
		l-2.63,2.86c-0.97,1.06-0.9,2.7,0.16,3.67c0.5,0.46,1.13,0.68,1.75,0.68c0.7,0,1.4-0.28,1.91-0.84l2.43-2.64l2.48,2.55
		c0.51,0.52,1.19,0.79,1.86,0.79c0.65,0,1.3-0.24,1.81-0.73C30.28,390.83,30.3,389.19,29.3,388.16z"/>
	<ellipse id="sprite-17_1_" class="st5" cx="82.53" cy="403.19" rx="3.44" ry="3.64"/>
	<ellipse id="sprite-16_1_" class="st0" cx="181.53" cy="365.79" rx="6.17" ry="6.54"/>
</g>
<g id="color-shapes">
</g>
</svg>
