<?xml version="1.0" encoding="utf-8"?>
<!-- Generator: Adobe Illustrator 23.0.3, SVG Export Plug-In . SVG Version: 6.00 Build 0)  -->
<svg version="1.1" id="Layer_1" xmlns="http://www.w3.org/2000/svg" xmlns:xlink="http://www.w3.org/1999/xlink" x="0px" y="0px"
	 viewBox="0 0 182.5 149.05" style="enable-background:new 0 0 182.5 149.05;" xml:space="preserve">
<style type="text/css">
	.st0{fill:#f03330;}
	.st1{fill:#FED504;}
	.st2{fill:#33BFE5;}
	.st3{fill:#FFFFFF;}
</style>
<g>
	<g>
		<g>
			<polygon class="st0" points="79.58,111.63 69.17,101.23 79.58,90.83 89.99,101.23 			"/>
			<polyline class="st1" points="89.96,101.2 100.36,111.61 89.96,122.02 79.54,111.61 			"/>
			
				<rect x="93.01" y="93.84" transform="matrix(0.7072 -0.7071 0.7071 0.7072 -42.1645 100.599)" class="st2" width="14.71" height="14.71"/>
			<path class="st3" d="M89.96,5.06L5.05,89.91l32.81,0.01l52.09,52.07l52.11-52.09l32.77,0.01L89.96,5.06z M69.14,101.24
				L90.01,80.4l20.81,20.78l-20.85,20.85L69.14,101.24z M117.26,94.74L90.01,67.5l-0.27,0.26L62.7,94.8L46.8,78.9l43.16-43.14
				l43.15,43.14L117.26,94.74z"/>
		</g>
	</g>
</g>
</svg>
