<?xml version="1.0" encoding="utf-8"?>
<!-- Generator: Adobe Illustrator 22.1.0, SVG Export Plug-In . SVG Version: 6.00 Build 0)  -->
<svg version="1.1" id="Layer_1" xmlns="http://www.w3.org/2000/svg" xmlns:xlink="http://www.w3.org/1999/xlink" x="0px" y="0px"
	 viewBox="0 0 837 184" style="enable-background:new 0 0 837 184;" xml:space="preserve">
<style type="text/css">
	.st0{fill:none;stroke:#31BEE4;stroke-width:3.2732;stroke-linecap:round;stroke-miterlimit:10;}
	.st1{fill:#31BEE4;}
	.st2{fill:#E51E25;}
	.st3{fill:none;stroke:#E51E25;stroke-width:4.1392;stroke-linecap:round;stroke-miterlimit:10;}
	.st4{fill:#FDD402;}
	.st5{fill:none;stroke:#E51E25;stroke-width:3.2732;stroke-linecap:round;stroke-miterlimit:10;}
	.st6{fill:#FFD603;}
	.st7{fill:none;stroke:#31BEE4;stroke-width:3.9179;stroke-linecap:round;stroke-miterlimit:10;}
	.st8{fill:none;stroke:#31BEE4;stroke-width:1.5838;stroke-linecap:round;stroke-miterlimit:10;}
	.st9{fill:#33BFE5;}
	.st10{fill:none;stroke:#FDD402;stroke-width:4.1392;stroke-linecap:round;stroke-miterlimit:10;}
	.st11{fill:#FFFFFF;}
	.st12{fill:#FFFFFF;stroke:#2D2D2D;stroke-width:5.7497;stroke-linecap:round;stroke-linejoin:round;stroke-miterlimit:10;}
	.st13{fill:#2D2D2D;}
	.st14{fill:none;stroke:#E51E25;stroke-width:3.18;stroke-linecap:round;stroke-miterlimit:10;}
	.st15{fill:none;stroke:#31BEE4;stroke-width:4.1392;stroke-linecap:round;stroke-miterlimit:10;}
</style>
<ellipse id="sprite-25_3_" class="st0" cx="667.6" cy="144.4" rx="10.1" ry="10.7"/>
<path id="sprite-24_3_" class="st1" d="M686.1,151l-3.1-3.2l3-3.3c1.1-1.2,1-3.1-0.2-4.2c-1.2-1.1-3.1-1-4.2,0.2l-2.8,3.1l-2.9-3
	c-1.2-1.2-3.1-1.2-4.2-0.1c-1.2,1.2-1.2,3.1-0.1,4.2l3.1,3.2l-3,3.3c-1.1,1.2-1,3.1,0.2,4.2c0.6,0.5,1.3,0.8,2,0.8
	c0.8,0,1.6-0.3,2.2-1l2.8-3.1l2.9,3c0.6,0.6,1.4,0.9,2.2,0.9c0.8,0,1.5-0.3,2.1-0.8C687.2,154.1,687.2,152.2,686.1,151z"/>
<path id="sprite-23_6_" class="st2" d="M646.6,174.5l-3.1-3.2l3-3.3c1.1-1.2,1-3.1-0.2-4.2c-1.2-1.1-3.1-1-4.2,0.2l-2.8,3.1l-2.9-3
	c-1.2-1.2-3.1-1.2-4.2-0.1c-1.2,1.2-1.2,3.1-0.1,4.2l3.1,3.2l-3,3.3c-1.1,1.2-1,3.1,0.2,4.2c0.6,0.5,1.3,0.8,2,0.8
	c0.8,0,1.6-0.3,2.2-1l2.8-3.1l2.9,3c0.6,0.6,1.4,0.9,2.2,0.9c0.8,0,1.5-0.3,2.1-0.8C647.7,177.6,647.7,175.6,646.6,174.5z"/>
<ellipse id="sprite-22_3_" class="st1" cx="682" cy="153.1" rx="4" ry="4.2"/>
<path id="sprite-21_3_" class="st3" d="M636.5,150.8c6.1,0,6.1,7.8,12.1,7.8c6.1,0,6.1-7.8,12.1-7.8c6.1,0,6.1,7.8,12.1,7.8
	c6.1,0,6.1-7.8,12.1-7.8s6.1,7.8,12.1,7.8"/>
<path id="sprite-20_3_" class="st4" d="M712.2,137.6c-0.9,0-1.8,0.5-2.3,1.2h-5.3l5.2-6c0.1,0,0.1,0,0.2,0c1.6,0,2.8-1.3,2.8-3
	c0-1.6-1.3-3-2.8-3c-1.6,0-2.8,1.3-2.8,3c0,0.2,0,0.4,0.1,0.5l-6.6,7.7l-4.2-7.2c0.1-0.3,0.2-0.7,0.2-1.1c0-1.6-1.3-3-2.8-3
	c-1.6,0-2.8,1.3-2.8,3c0,1.5,1.1,2.8,2.5,3l3.5,6h-4.7c-0.5-0.7-1.3-1.2-2.3-1.2c-1.6,0-2.8,1.3-2.8,3c0,1.6,1.3,3,2.8,3
	c0.9,0,1.8-0.5,2.3-1.2h4.8l-5.2,6c-0.1,0-0.1,0-0.2,0c-1.6,0-2.8,1.3-2.8,3s1.3,3,2.8,3c1.6,0,2.8-1.3,2.8-3c0-0.2,0-0.4-0.1-0.5
	l5.6-6.6l3.6,6.3c-0.1,0.3-0.1,0.5-0.1,0.8c0,1.6,1.3,3,2.8,3c1.6,0,2.8-1.3,2.8-3c0-1.6-1.2-2.9-2.7-3l-3.5-6h6.9
	c0.5,0.7,1.3,1.2,2.3,1.2c1.6,0,2.8-1.3,2.8-3C715.1,138.9,713.8,137.6,712.2,137.6z"/>
<ellipse id="sprite-19_3_" class="st5" cx="688.9" cy="153.6" rx="10.1" ry="10.7"/>
<path id="sprite-18_3_" class="st6" d="M699.6,160l-3.1-3.2l3-3.3c1.1-1.2,1-3.1-0.2-4.2c-1.2-1.1-3.1-1-4.2,0.2l-2.8,3.1l-2.9-3
	c-1.2-1.2-3.1-1.2-4.2-0.1c-1.2,1.2-1.2,3.1-0.1,4.2l3.1,3.2l-3,3.3c-1.1,1.2-1,3.1,0.2,4.2c0.6,0.5,1.3,0.8,2,0.8
	c0.8,0,1.6-0.3,2.2-1l2.8-3.1l2.9,3c0.6,0.6,1.4,0.9,2.2,0.9c0.8,0,1.5-0.3,2.1-0.8C700.7,163.1,700.7,161.1,699.6,160z"/>
<ellipse id="sprite-16_8_" class="st2" cx="611.5" cy="173.8" rx="7.1" ry="7.6"/>
<ellipse id="sprite-14_9_" class="st0" cx="659.6" cy="165.7" rx="10.1" ry="10.7"/>
<path id="sprite-13_5_" class="st2" d="M571.2,173.8l-3.1-3.2l3-3.3c1.1-1.2,1-3.1-0.2-4.2c-1.2-1.1-3.1-1-4.2,0.2l-2.8,3.1l-2.9-3
	c-1.2-1.2-3.1-1.2-4.2-0.1c-1.2,1.2-1.2,3.1-0.1,4.2l3.1,3.2l-3,3.3c-1.1,1.2-1,3.1,0.2,4.2c0.6,0.5,1.3,0.8,2,0.8
	c0.8,0,1.6-0.3,2.2-1l2.8-3.1l2.9,3c0.6,0.6,1.4,0.9,2.2,0.9c0.8,0,1.5-0.3,2.1-0.8C572.4,176.9,572.4,175,571.2,173.8z"/>
<path id="sprite-12_5_" class="st1" d="M639.3,162.8c-0.9,0-1.8,0.5-2.3,1.2h-5.3l5.2-6c0.1,0,0.1,0,0.2,0c1.6,0,2.8-1.3,2.8-3
	c0-1.6-1.3-3-2.8-3c-1.6,0-2.8,1.3-2.8,3c0,0.2,0,0.4,0.1,0.5l-6.6,7.7l-4.2-7.2c0.1-0.3,0.2-0.7,0.2-1.1c0-1.6-1.3-3-2.8-3
	c-1.6,0-2.8,1.3-2.8,3c0,1.5,1.1,2.8,2.5,3l3.5,6h-4.7c-0.5-0.7-1.3-1.2-2.3-1.2c-1.6,0-2.8,1.3-2.8,3c0,1.6,1.3,3,2.8,3
	c0.9,0,1.8-0.5,2.3-1.2h4.8l-5.2,6c-0.1,0-0.1,0-0.2,0c-1.6,0-2.8,1.3-2.8,3c0,1.6,1.3,3,2.8,3c1.6,0,2.8-1.3,2.8-3
	c0-0.2,0-0.4-0.1-0.5l5.6-6.6l3.6,6.3c-0.1,0.3-0.1,0.5-0.1,0.8c0,1.6,1.3,3,2.8,3c1.6,0,2.8-1.3,2.8-3c0-1.6-1.2-2.9-2.7-3l-3.5-6
	h6.9c0.5,0.7,1.3,1.2,2.3,1.2c1.6,0,2.8-1.3,2.8-3C642.2,164.1,640.9,162.8,639.3,162.8z"/>
<path id="sprite-11_4_" class="st7" d="M694.2,137.3c0.2,5.7-7.2,6-7.1,11.7c0.2,5.7,7.6,5.5,7.8,11.3c0.2,5.7-7.2,6-7.1,11.7"/>
<ellipse id="sprite-9_5_" class="st2" cx="468.6" cy="177.1" rx="4" ry="4.2"/>
<ellipse id="sprite-8_3_" class="st8" cx="683.2" cy="165.3" rx="4.9" ry="5.2"/>
<path id="sprite-7_5_" class="st4" d="M603.4,175.8l-3.1-3.2l3-3.3c1.1-1.2,1-3.1-0.2-4.2c-1.2-1.1-3.1-1-4.2,0.2l-2.8,3.1l-2.9-3
	c-1.2-1.2-3.1-1.2-4.2-0.1c-1.2,1.2-1.2,3.1-0.1,4.2l3.1,3.2l-3,3.3c-1.1,1.2-1,3.1,0.2,4.2c0.6,0.5,1.3,0.8,2,0.8
	c0.8,0,1.6-0.3,2.2-1l2.8-3.1l2.9,3c0.6,0.6,1.4,0.9,2.2,0.9c0.8,0,1.5-0.3,2.1-0.8C604.6,178.9,604.6,177,603.4,175.8z"/>
<ellipse id="sprite-6_3_" class="st1" cx="692.6" cy="156.9" rx="4" ry="4.2"/>
<ellipse id="sprite-5_8_" class="st9" cx="678.6" cy="162.1" rx="7.1" ry="7.6"/>
<ellipse id="sprite-5_7_" class="st0" cx="591.6" cy="168.7" rx="10.1" ry="10.7"/>
<path id="sprite-4_6_" class="st4" d="M687.9,136.4c-0.9,0-1.8,0.5-2.3,1.2h-5.3l5.2-6c0.1,0,0.1,0,0.2,0c1.6,0,2.8-1.3,2.8-3
	c0-1.6-1.3-3-2.8-3s-2.8,1.3-2.8,3c0,0.2,0,0.4,0.1,0.5l-6.6,7.7l-4.2-7.2c0.1-0.3,0.2-0.7,0.2-1.1c0-1.6-1.3-3-2.8-3
	c-1.6,0-2.8,1.3-2.8,3c0,1.5,1.1,2.8,2.5,3l3.5,6h-4.7c-0.5-0.7-1.3-1.2-2.3-1.2c-1.6,0-2.8,1.3-2.8,3c0,1.6,1.3,3,2.8,3
	c0.9,0,1.8-0.5,2.3-1.2h4.8l-5.2,6c-0.1,0-0.1,0-0.2,0c-1.6,0-2.8,1.3-2.8,3c0,1.6,1.3,3,2.8,3c1.6,0,2.8-1.3,2.8-3
	c0-0.2,0-0.4-0.1-0.5l5.6-6.6l3.6,6.3c-0.1,0.3-0.1,0.5-0.1,0.8c0,1.6,1.3,3,2.8,3c1.6,0,2.8-1.3,2.8-3c0-1.6-1.2-2.9-2.7-3l-3.5-6
	h6.9c0.5,0.7,1.3,1.2,2.3,1.2c1.6,0,2.8-1.3,2.8-3C690.7,137.8,689.5,136.4,687.9,136.4z"/>
<path id="sprite-3_5_" class="st4" d="M659.2,157.6l-3.1-3.2l3-3.3c1.1-1.2,1-3.1-0.2-4.2c-1.2-1.1-3.1-1-4.2,0.2l-2.8,3.1l-2.9-3
	c-1.2-1.2-3.1-1.2-4.2-0.1c-1.2,1.2-1.2,3.1-0.1,4.2l3.1,3.2l-3,3.3c-1.1,1.2-1,3.1,0.2,4.2c0.6,0.5,1.3,0.8,2,0.8
	c0.8,0,1.6-0.3,2.2-1l2.8-3.1l2.9,3c0.6,0.6,1.4,0.9,2.2,0.9c0.8,0,1.5-0.3,2.1-0.8C660.3,160.7,660.3,158.8,659.2,157.6z"/>
<path id="sprite-3_4_" class="st4" d="M501.2,176.1l-3.1-3.2l3-3.3c1.1-1.2,1-3.1-0.2-4.2c-1.2-1.1-3.1-1-4.2,0.2l-2.8,3.1l-2.9-3
	c-1.2-1.2-3.1-1.2-4.2-0.1c-1.2,1.2-1.2,3.1-0.1,4.2l3.1,3.2l-3,3.3c-1.1,1.2-1,3.1,0.2,4.2c0.6,0.5,1.3,0.8,2,0.8
	c0.8,0,1.6-0.3,2.2-1l2.8-3.1l2.9,3c0.6,0.6,1.4,0.9,2.2,0.9c0.8,0,1.5-0.3,2.1-0.8C502.3,179.2,502.3,177.3,501.2,176.1z"/>
<path id="sprite-2_8_" class="st10" d="M522.4,171.5c6.1,0,6.1,7.8,12.1,7.8c6.1,0,6.1-7.8,12.1-7.8c6.1,0,6.1,7.8,12.1,7.8
	c6.1,0,6.1-7.8,12.1-7.8s6.1,7.8,12.1,7.8"/>
<path id="sprite-1_4_" class="st2" d="M696.5,118.5c-8,0-14.4,5.3-14.4,11.9c0,6,5.4,10.9,12.3,11.8v7l7.2-7.6
	c5.5-1.7,9.4-6,9.4-11.1C710.9,123.8,704.5,118.5,696.5,118.5z M699.3,136.8h-10.8v-1.5h10.8V136.8z M704.5,133.1h-16v-1.5h16V133.1
	z M704.5,129.4h-16v-1.5h16V129.4z M704.5,125.8h-16v-1.5h16V125.8z"/>
<g>
	<g>
		<circle class="st11" cx="655.9" cy="172.6" r="4.6"/>
		<polygon class="st11" points="651.8,179.8 647.8,169.1 649.2,168.2 654.8,179.5 		"/>
		<polygon class="st11" points="658.3,163.3 660.6,162.2 666.4,176 664,177.2 		"/>
	</g>
	<g>
		<g>
			<path class="st2" d="M671.5,161.1c0.7-3.2,2.6-6.1,5.6-7.8c-2-0.1-4.1,0.2-6,1.1c-0.1,0-0.1,0.1-0.2,0.1c-3.4,1.5-4.4,4-5.6,6.7
				L671.5,161.1z"/>
		</g>
		<g>
			<path class="st2" d="M669.2,173.4c3.7,1.2,10.1,1.1,11.6,0.6c1.1-0.3,3-1.9,4.2-3.2c-3.8,1.1-7.9,0.1-10.8-2.4
				C672.9,169.9,671.2,171.7,669.2,173.4z"/>
		</g>
		<g>
			<path class="st4" d="M639.7,178.4c-0.1,0.2-0.1,0.5,0,0.7c0.1,0.1,0.1,0.2,0.2,0.3c0.1,0.1,0.2,0.1,0.3,0.1
				c0.5,0.1,11.7,3.3,22.2-1.1c10.5-4.4,16-14.7,16.2-15.1c0.1-0.2,0.1-0.5,0-0.7c-0.1-0.1-0.1-0.2-0.2-0.3
				c-0.1-0.1-0.2-0.1-0.3-0.1c-0.5-0.1-11.7-3.3-22.2,1.1C645.4,167.7,639.9,178,639.7,178.4z M660.4,162.6l5.4,12.9l-1.2,0.8
				l-5.6-13.2L660.4,162.6z M657.4,175.5c-1.2,0.5-2.6,0.3-3.6-0.5c-0.5-0.4-0.9-0.9-1.1-1.4c-0.4-0.9-0.4-1.9,0-2.7
				c0.4-0.9,1-1.6,1.9-2c1.2-0.5,2.6-0.3,3.6,0.5c0.5,0.4,0.9,0.9,1.1,1.4C660.1,172.6,659.2,174.7,657.4,175.5z M649.2,168.3
				l4.7,11.2l-1.4,0.2l-4.4-10.4L649.2,168.3z"/>
		</g>
		<g>
			<path class="st2" d="M682.5,161c0-0.4-5.4,0.8-8.7,2.2c-3,1.3-6.6,3.3-6.6,3.8c0,0,0,0,0,0c0.2,0.5,4.3-0.7,9-2.7
				C678.7,163.3,682.6,161.5,682.5,161z"/>
		</g>
	</g>
</g>
<ellipse id="sprite-17_8_" class="st1" cx="509.9" cy="177.1" rx="4" ry="4.2"/>
<ellipse id="sprite-15_5_" class="st4" cx="624.2" cy="175.8" rx="4" ry="4.2"/>
<ellipse id="sprite-16_7_" class="st4" cx="380.5" cy="173.8" rx="7.1" ry="7.6"/>
<path id="sprite-13_4_" class="st2" d="M419.2,176.1l-3.1-3.2l3-3.3c1.1-1.2,1-3.1-0.2-4.2c-1.2-1.1-3.1-1-4.2,0.2l-2.8,3.1l-2.9-3
	c-1.2-1.2-3.1-1.2-4.2-0.1c-1.2,1.2-1.2,3.1-0.1,4.2l3.1,3.2l-3,3.3c-1.1,1.2-1,3.1,0.2,4.2c0.6,0.5,1.3,0.8,2,0.8
	c0.8,0,1.6-0.3,2.2-1l2.8-3.1l2.9,3c0.6,0.6,1.4,0.9,2.2,0.9c0.8,0,1.5-0.3,2.1-0.8C420.4,179.2,420.4,177.3,419.2,176.1z"/>
<path id="sprite-12_4_" class="st1" d="M462.3,164.6c-0.9,0-1.8,0.5-2.3,1.2h-5.3l5.2-6c0.1,0,0.1,0,0.2,0c1.6,0,2.8-1.3,2.8-3
	c0-1.6-1.3-3-2.8-3s-2.8,1.3-2.8,3c0,0.2,0,0.4,0.1,0.5l-6.6,7.7l-4.2-7.2c0.1-0.3,0.2-0.7,0.2-1.1c0-1.6-1.3-3-2.8-3
	s-2.8,1.3-2.8,3c0,1.5,1.1,2.8,2.5,3l3.5,6h-4.7c-0.5-0.7-1.3-1.2-2.3-1.2c-1.6,0-2.8,1.3-2.8,3c0,1.6,1.3,3,2.8,3
	c0.9,0,1.8-0.5,2.3-1.2h4.8l-5.2,6c-0.1,0-0.1,0-0.2,0c-1.6,0-2.8,1.3-2.8,3c0,1.6,1.3,3,2.8,3s2.8-1.3,2.8-3c0-0.2,0-0.4-0.1-0.5
	l5.6-6.6l3.6,6.3c-0.1,0.3-0.1,0.5-0.1,0.8c0,1.6,1.3,3,2.8,3s2.8-1.3,2.8-3c0-1.6-1.2-2.9-2.7-3l-3.5-6h6.9
	c0.5,0.7,1.3,1.2,2.3,1.2c1.6,0,2.8-1.3,2.8-3C465.2,166,463.9,164.6,462.3,164.6z"/>
<ellipse id="sprite-9_4_" class="st1" cx="355.6" cy="177.1" rx="4" ry="4.2"/>
<path id="sprite-7_4_" class="st4" d="M325.4,176.1l-3.1-3.2l3-3.3c1.1-1.2,1-3.1-0.2-4.2c-1.2-1.1-3.1-1-4.2,0.2l-2.8,3.1l-2.9-3
	c-1.2-1.2-3.1-1.2-4.2-0.1c-1.2,1.2-1.2,3.1-0.1,4.2l3.1,3.2l-3,3.3c-1.1,1.2-1,3.1,0.2,4.2c0.6,0.5,1.3,0.8,2,0.8
	c0.8,0,1.6-0.3,2.2-1l2.8-3.1l2.9,3c0.6,0.6,1.4,0.9,2.2,0.9c0.8,0,1.5-0.3,2.1-0.8C326.6,179.2,326.6,177.3,325.4,176.1z"/>
<ellipse id="sprite-5_6_" transform="matrix(0.3752 -0.9269 0.9269 0.3752 7.4768 350.2909)" class="st14" cx="263.6" cy="169.6" rx="10.1" ry="10.1"/>
<path id="sprite-2_4_" class="st15" d="M89.4,171.5c6.1,0,6.1,7.8,12.1,7.8c6.1,0,6.1-7.8,12.1-7.8c6.1,0,6.1,7.8,12.1,7.8
	c6.1,0,6.1-7.8,12.1-7.8s6.1,7.8,12.1,7.8"/>
<ellipse id="sprite-17_7_" class="st4" cx="201.9" cy="177.1" rx="4" ry="4.2"/>
<ellipse id="sprite-15_4_" class="st4" cx="21.2" cy="177.1" rx="4" ry="4.2"/>
<g>
	<g>
		<path class="st12" d="M705,44h15.1c0-8.8,7.1-15.9,15.9-15.9s15.9,7.1,15.9,15.9h3c4.1,0,8.2,0.4,12.1,1.1c0-0.4,0-0.7,0-1.1
			c0-17.1-13.9-31-31-31C718.9,13,705,26.9,705,44z"/>
		<path class="st12" d="M824.5,85.6h-7.2C809.2,64,790.2,47.7,767,43.5c-3.9-0.7-8-1.1-12.1-1.1h-3h-31.8H705h-30.5
			c0.1-0.2,0.1,133.4,0.1,133.4h79.9c0.1,0,0.2,0,0.3,0c28.6,0,53-18,62.5-43.2h7.2V85.6z"/>
	</g>
	<path class="st13" d="M721.1,109.1l18.2,18.2l0-7l11.2-11.2l-11.2-11.2l0-7L721.1,109.1z M741.7,113.5l-4.5-4.5l4.5-4.5l4.5,4.5
		L741.7,113.5z M740.3,103.2l-5.8,5.8l0.1,0.1l5.8,5.8l-3.4,3.4l-9.3-9.3l9.3-9.3L740.3,103.2z"/>
</g>
</svg>
