<?xml version="1.0" encoding="utf-8"?>
<!-- Generator: Adobe Illustrator 23.0.3, SVG Export Plug-In . SVG Version: 6.00 Build 0)  -->
<svg version="1.1" id="Layer_1" xmlns="http://www.w3.org/2000/svg" xmlns:xlink="http://www.w3.org/1999/xlink" x="0px" y="0px"
	 viewBox="0 0 536 181" style="enable-background:new 0 0 536 181;" xml:space="preserve">
<style type="text/css">
	.st0{fill:#FED504;}
	.st1{fill:none;stroke:#2D2A2A;stroke-width:3;stroke-linecap:round;stroke-linejoin:round;}
	.st2{fill:#2D2A2A;}
	.st3{fill:#f03330;stroke:#2D2A2A;stroke-width:3;stroke-linecap:round;stroke-linejoin:round;stroke-miterlimit:10;}
	.st4{fill:none;stroke:#2D2A2A;stroke-width:3;stroke-linecap:round;stroke-linejoin:round;stroke-miterlimit:10;}
	.st5{fill:#FED330;stroke:#2D2A2A;stroke-width:3;stroke-linecap:round;stroke-linejoin:round;stroke-miterlimit:10;}
	.st6{fill:#3DBFE3;stroke:#2D2A2A;stroke-width:3;stroke-linecap:round;stroke-linejoin:round;stroke-miterlimit:10;}
	.st7{fill:#FED330;stroke:#2D2D2D;stroke-width:3;stroke-linecap:round;stroke-linejoin:round;}
	.st8{fill:#FFFFFF;stroke:#2D2D2D;stroke-width:3;stroke-linecap:round;stroke-linejoin:round;}
	.st9{fill:#3DBFE3;}
	.st10{fill:#2D2D2D;}
	.st11{fill:#f03330;}
</style>
<path class="st0" d="M144.37,73.87l-6.45,6.96l-6.54-6.81c-1.15-1.19-3.05-1.23-4.24-0.08c-0.01,0.01-0.02,0.02-0.03,0.03
	c-1.17,1.15-1.2,3.03-0.06,4.22l6.78,7.05l-6.7,7.23c-1.13,1.22-1.05,3.11,0.16,4.24c1.18,1.09,3.01,1.06,4.14-0.06
	c0.03-0.03,0.07-0.07,0.1-0.1l6.46-6.97l6.54,6.8c1.15,1.19,3.05,1.23,4.24,0.08c0.01-0.01,0.02-0.02,0.03-0.03
	c1.17-1.15,1.2-3.03,0.06-4.22l-6.78-7.05l6.69-7.22c1.13-1.22,1.05-3.11-0.16-4.24C147.39,72.58,145.49,72.66,144.37,73.87z"/>
<g>
	<g>
		<path class="st0" d="M345.04,100.18c-3.73,0-5.6-2.42-6.98-4.19c-1.27-1.64-1.86-2.26-3.02-2.26s-1.75,0.62-3.02,2.26
			c-1.37,1.77-3.25,4.19-6.98,4.19s-5.6-2.42-6.98-4.19c-1.27-1.64-1.86-2.26-3.02-2.26s-1.75,0.62-3.02,2.26
			c-1.37,1.77-3.25,4.19-6.98,4.19s-5.6-2.42-6.98-4.19c-1.27-1.64-1.86-2.26-3.02-2.26c-1.38,0-2.5-1.12-2.5-2.5s1.12-2.5,2.5-2.5
			c3.73,0,5.6,2.42,6.98,4.19c1.27,1.64,1.86,2.26,3.02,2.26s1.75-0.62,3.02-2.26c1.37-1.77,3.25-4.19,6.98-4.19s5.6,2.42,6.98,4.19
			c1.27,1.64,1.86,2.26,3.02,2.26s1.75-0.62,3.02-2.26c1.37-1.77,3.25-4.19,6.98-4.19s5.6,2.42,6.98,4.19
			c1.27,1.64,1.86,2.26,3.02,2.26c1.38,0,2.5,1.12,2.5,2.5S346.42,100.18,345.04,100.18z"/>
	</g>
	<g>
		<path class="st0" d="M345.04,81.69c-3.73,0-5.6-2.42-6.98-4.19c-1.27-1.64-1.86-2.26-3.02-2.26s-1.75,0.62-3.02,2.26
			c-1.37,1.77-3.25,4.19-6.98,4.19s-5.6-2.42-6.98-4.19c-1.27-1.64-1.86-2.26-3.02-2.26s-1.75,0.62-3.02,2.26
			c-1.37,1.77-3.25,4.19-6.98,4.19s-5.6-2.42-6.98-4.19c-1.27-1.64-1.86-2.26-3.02-2.26c-1.38,0-2.5-1.12-2.5-2.5s1.12-2.5,2.5-2.5
			c3.73,0,5.6,2.42,6.98,4.19c1.27,1.64,1.86,2.26,3.02,2.26s1.75-0.62,3.02-2.26c1.37-1.77,3.25-4.19,6.98-4.19s5.6,2.42,6.98,4.19
			c1.27,1.64,1.86,2.26,3.02,2.26s1.75-0.62,3.02-2.26c1.37-1.77,3.25-4.19,6.98-4.19s5.6,2.42,6.98,4.19
			c1.27,1.64,1.86,2.26,3.02,2.26c1.38,0,2.5,1.12,2.5,2.5S346.42,81.69,345.04,81.69z"/>
	</g>
</g>
<g>
	<g>
		<g>
			<path class="st1" d="M46.72,55.78h8.65c1.19,0,2.15,0.96,2.15,2.15v8.62"/>
			<g>
				<polygon class="st2" points="61.16,66.06 53.87,66.06 57.51,69.7 				"/>
			</g>
		</g>
	</g>
	<g>
		<g>
			<line class="st1" x1="46.3" y1="90.5" x2="41.53" y2="90.5"/>
			<g>
				<polygon class="st2" points="42.02,94.15 42.02,86.86 38.38,90.5 				"/>
			</g>
		</g>
	</g>
	<g>
		<g>
			<path class="st1" d="M86.68,76.55v-3.4c0-1.19-0.96-2.15-2.15-2.15h-4.65c-1.19,0-2.15-0.96-2.15-2.15v-7.34"/>
			<g>
				<polygon class="st2" points="83.04,76.06 90.33,76.06 86.68,79.7 				"/>
			</g>
		</g>
	</g>
	<g>
		<g>
			<path class="st1" d="M76.76,122.13h8.17c1.19,0,2.15-0.96,2.15-2.15v-7.1"/>
			<g>
				<polygon class="st2" points="77.25,118.48 77.25,125.77 73.61,122.13 				"/>
			</g>
		</g>
	</g>
	<g>
		<g>
			<path class="st1" d="M42.95,127.54h-2.92c-1.19,0-2.15-0.89-2.15-1.99v-2.59c0-1.1-0.96-1.99-2.15-1.99h-6.46
				c-1.19,0-2.15-0.89-2.15-1.99v-5.71"/>
			<g>
				<polygon class="st2" points="42.46,131.19 42.46,123.9 46.1,127.54 				"/>
			</g>
		</g>
	</g>
	<g>
		<rect x="70.42" y="35.21" class="st3" width="15.97" height="22.81"/>
		<line class="st4" x1="75.16" y1="41.89" x2="81.6" y2="41.89"/>
		<line class="st4" x1="75.16" y1="46.03" x2="78.76" y2="46.03"/>
	</g>
	<g>
		<rect x="27.27" y="49.44" class="st3" width="15.97" height="22.81"/>
		<line class="st4" x1="32" y1="56.11" x2="38.44" y2="56.11"/>
		<line class="st4" x1="32" y1="60.25" x2="35.61" y2="60.25"/>
	</g>
	<g>
		<rect x="18.84" y="84.86" class="st5" width="15.97" height="22.81"/>
		<line class="st4" x1="23.57" y1="91.54" x2="30.01" y2="91.54"/>
		<line class="st4" x1="23.57" y1="95.68" x2="27.18" y2="95.68"/>
	</g>
	<g>
		<rect x="51.6" y="76.32" class="st5" width="15.97" height="22.81"/>
		<line class="st4" x1="56.33" y1="83" x2="62.77" y2="83"/>
		<line class="st4" x1="56.33" y1="87.14" x2="59.94" y2="87.14"/>
	</g>
	<g>
		<rect x="78.99" y="84.18" class="st5" width="15.97" height="22.81"/>
		<line class="st4" x1="83.72" y1="90.86" x2="90.17" y2="90.86"/>
		<line class="st4" x1="83.72" y1="95" x2="87.33" y2="95"/>
	</g>
	<g>
		<rect x="51.27" y="112.4" class="st6" width="15.97" height="22.81"/>
		<line class="st4" x1="56" y1="119.08" x2="62.44" y2="119.08"/>
		<line class="st4" x1="56" y1="123.22" x2="59.61" y2="123.22"/>
	</g>
</g>
<g>
	<path class="st7" d="M247.61,47.31c-1.06-0.41-2.14-0.66-3.22-0.81c-1.85-3.98-5.18-7.28-9.6-8.98c-4.87-1.87-10.05-1.42-14.35,0.8
		c-1.1-0.91-2.36-1.67-3.76-2.21c-6.96-2.68-14.78,0.79-17.46,7.76c-0.83,2.15-1.06,4.37-0.8,6.51c-2.8,1.68-5.08,4.27-6.34,7.55
		c-3.02,7.84,0.89,16.64,8.73,19.66c4.27,1.64,8.82,1.22,12.57-0.76c1.87,2.3,4.34,4.17,7.31,5.31c8.19,3.15,17.27-0.26,21.51-7.63
		c5.78,0.14,11.29-3.29,13.49-9C258.48,58.25,254.86,50.11,247.61,47.31z"/>
	<circle class="st7" cx="261.29" cy="70.92" r="6.03"/>
	<circle class="st7" cx="250.7" cy="82.32" r="4.48"/>
	<circle class="st7" cx="182.54" cy="66.48" r="5.87"/>
	<circle class="st7" cx="191.86" cy="81.29" r="4.21"/>
	<polygon class="st8" points="213.78,66.58 223.85,47.81 233.92,66.58 	"/>
	<g>
		<path class="st9" d="M225.43,136.71c-0.83,0-1.5-0.67-1.5-1.5c0-9.74,6.94-12.74,14.32-14.75c-4.7-2.32-7.76-7.16-7.76-12.46
			v-7.27c0-7.66,6.24-13.9,13.9-13.9s13.9,6.24,13.9,13.9V108c0,5.3-3.07,10.14-7.76,12.46c7.38,2.01,14.32,5.01,14.32,14.75
			c0,0.83-0.67,1.5-1.5,1.5H225.43z"/>
		<path class="st10" d="M244.38,88.33c6.85,0,12.4,5.55,12.4,12.4V108c0,5.34-3.38,9.87-8.11,11.62l0.53,2.04
			c8.14,2.13,14.14,4.75,14.14,13.55h-37.91c0-8.8,6-11.42,14.14-13.55l0.53-2.04c-4.73-1.75-8.11-6.28-8.11-11.62v-7.27
			C231.99,93.88,237.54,88.33,244.38,88.33 M244.38,85.33c-8.49,0-15.4,6.91-15.4,15.4V108c0,4.71,2.18,9.08,5.73,11.96
			c-6.49,2.2-12.28,5.96-12.28,15.25c0,1.66,1.34,3,3,3h37.91c1.66,0,3-1.34,3-3c0-9.29-5.79-13.05-12.28-15.25
			c3.54-2.88,5.73-7.25,5.73-11.96v-7.27C259.78,92.24,252.88,85.33,244.38,85.33L244.38,85.33z"/>
	</g>
	<g>
		<path class="st11" d="M184.36,136.71c-0.83,0-1.5-0.67-1.5-1.5c0-9.75,6.94-12.74,14.32-14.75c-4.7-2.32-7.76-7.16-7.76-12.46
			v-7.27c0-7.66,6.23-13.9,13.9-13.9s13.9,6.24,13.9,13.9V108c0,5.3-3.07,10.14-7.76,12.46c7.38,2.01,14.32,5.01,14.32,14.75
			c0,0.83-0.67,1.5-1.5,1.5H184.36z"/>
		<path class="st10" d="M203.31,88.33c6.85,0,12.4,5.55,12.4,12.4V108c0,5.34-3.38,9.87-8.11,11.62l0.53,2.04
			c8.14,2.13,14.14,4.75,14.14,13.55h-37.91c0-8.8,6-11.42,14.14-13.55l0.53-2.04c-4.73-1.75-8.11-6.28-8.11-11.62v-7.27
			C190.91,93.88,196.46,88.33,203.31,88.33 M203.31,85.33c-8.49,0-15.4,6.91-15.4,15.4V108c0,4.71,2.18,9.08,5.73,11.96
			c-6.49,2.2-12.28,5.96-12.28,15.25c0,1.66,1.34,3,3,3h37.91c1.66,0,3-1.34,3-3c0-9.29-5.79-13.05-12.28-15.25
			c3.54-2.88,5.73-7.25,5.73-11.96v-7.27C218.71,92.24,211.8,85.33,203.31,85.33L203.31,85.33z"/>
	</g>
</g>
<g>
	<line class="st4" x1="359.65" y1="135.21" x2="369.68" y2="117.83"/>
	<line class="st4" x1="372.8" y1="135.21" x2="379.53" y2="123.56"/>
	<line class="st4" x1="385.67" y1="135.21" x2="389.65" y2="128.32"/>
	<path class="st3" d="M389.23,81.76c-0.22,0.89-0.41,1.78-0.59,2.67c-0.02,0.11-0.04,0.21-0.06,0.32c-0.16,0.8-0.3,1.6-0.42,2.41
		c-0.04,0.24-0.07,0.48-0.1,0.72c-0.1,0.67-0.19,1.34-0.26,2.01c-0.04,0.38-0.07,0.76-0.11,1.14c-0.05,0.54-0.1,1.08-0.14,1.63
		c-0.01,0.11-0.02,0.22-0.03,0.33c-5.68-0.23-11.3,2.02-15.23,6.34c0.34-2.61,1.19-5.19,2.58-7.61c3.19-5.52,8.55-9.01,14.38-10.01
		C389.24,81.72,389.24,81.74,389.23,81.76z"/>
	<path class="st3" d="M405.68,100.21c0.54-0.4,1.07-0.81,1.6-1.23c0.19-0.15,0.39-0.3,0.59-0.46c0.63-0.51,1.25-1.03,1.87-1.57
		c0.08-0.07,0.17-0.14,0.25-0.21c0.68-0.6,1.35-1.21,2.01-1.84c0.02-0.02,0.04-0.03,0.05-0.05c2.05,5.55,1.71,11.94-1.48,17.46
		c-1.4,2.42-3.21,4.44-5.3,6.04c1.78-5.56,0.91-11.56-2.13-16.36c0.09-0.06,0.18-0.13,0.27-0.19c0.45-0.3,0.89-0.62,1.33-0.93
		C405.05,100.66,405.37,100.44,405.68,100.21z"/>
	<path class="st5" d="M431.41,35.21c-14.29,5.05-26.93,15.02-35.11,29.17c-3.23,5.59-5.53,11.46-6.97,17.43
		c-0.22,0.89-0.41,1.78-0.59,2.67c-0.02,0.11-0.04,0.21-0.06,0.32c-0.16,0.8-0.3,1.6-0.42,2.41c-0.04,0.24-0.07,0.48-0.1,0.72
		c-0.1,0.67-0.19,1.34-0.26,2.01c-0.04,0.38-0.08,0.76-0.11,1.14c-0.05,0.54-0.1,1.08-0.14,1.63c-0.23,3.35-0.19,6.7,0.09,10.03
		c0.18-0.34,0.36-0.69,0.55-1.03c2.84-4.92,6.8-8.78,11.37-11.49c-0.06,5.31-1.42,10.67-4.26,15.59c-0.2,0.34-0.41,0.66-0.62,0.99
		c3.02-1.42,5.94-3.05,8.73-4.93c0.45-0.3,0.89-0.62,1.33-0.93c0.31-0.22,0.63-0.44,0.94-0.67c0.54-0.4,1.07-0.81,1.6-1.23
		c0.2-0.15,0.39-0.3,0.59-0.46c0.63-0.51,1.25-1.03,1.87-1.57c0.08-0.07,0.17-0.14,0.25-0.21c0.68-0.6,1.35-1.21,2.01-1.84
		c4.45-4.24,8.39-9.17,11.62-14.76C431.87,66.04,434.18,50.11,431.41,35.21z M431.5,58.9l-20.66-11.93 M418.61,87.76L392.3,72.57"/>
	<path class="st3" d="M384.02,117.29c4.57-2.7,8.53-6.56,11.37-11.49c2.84-4.92,4.2-10.28,4.26-15.59
		c-4.57,2.7-8.53,6.56-11.37,11.49C385.44,106.62,384.08,111.99,384.02,117.29z"/>
	<path class="st6" d="M419.06,69.87c-1.83,3.17-5.88,4.26-9.06,2.43c-3.17-1.83-4.26-5.88-2.43-9.06c1.83-3.17,5.88-4.26,9.06-2.43
		C419.8,62.64,420.89,66.69,419.06,69.87z"/>
</g>
</svg>
