<svg id="Icons" xmlns="http://www.w3.org/2000/svg" width="125" height="125" viewBox="0 0 125 125"><title>better_together_inverse</title><path d="M53.1,104.6a42.1,42.1,0,1,1,9.75-83.06,1.5,1.5,0,0,1,0,2.92,39.1,39.1,0,0,0,0,76.08A1.5,1.5,0,0,1,64,102a1.52,1.52,0,0,1-1.15,1.46A42.37,42.37,0,0,1,53.1,104.6Z" style="fill:#e51921"/><path d="M53.1,21.9A41,41,0,0,1,62.5,23a40.6,40.6,0,0,0,0,79,40.6,40.6,0,1,1-9.4-80.1m0-3a43.6,43.6,0,0,0,0,87.2,44.15,44.15,0,0,0,10.09-1.18,3,3,0,0,0,0-5.84,37.6,37.6,0,0,1,0-73.16,3,3,0,0,0,0-5.84A44.15,44.15,0,0,0,53.1,18.9Z" style="fill:#2d2a2a"/><path d="M71.9,104.6a42.37,42.37,0,0,1-9.75-1.14A1.52,1.52,0,0,1,61,102a1.5,1.5,0,0,1,1.15-1.46,39.1,39.1,0,0,0,0-76.08,1.5,1.5,0,0,1,0-2.92A42.1,42.1,0,1,1,71.9,104.6Z" style="fill:#3dbfe3"/><path d="M71.9,21.9A40.6,40.6,0,1,1,62.5,102a40.6,40.6,0,0,0,0-79,41,41,0,0,1,9.4-1.1m0-3a44.15,44.15,0,0,0-10.09,1.18,3,3,0,0,0,0,5.84,37.6,37.6,0,0,1,0,73.16,3,3,0,0,0,0,5.84A44.15,44.15,0,0,0,71.9,106.1a43.6,43.6,0,0,0,0-87.2Z" style="fill:#2d2a2a"/><path d="M62.5,103.5a2.09,2.09,0,0,1-.35,0,42.11,42.11,0,0,1,0-81.92,1.55,1.55,0,0,1,.7,0,42.11,42.11,0,0,1,0,81.92A2.09,2.09,0,0,1,62.5,103.5Z" style="fill:#fed330"/><path d="M62.5,23a40.6,40.6,0,0,1,0,79,40.6,40.6,0,0,1,0-79m0-3a3.25,3.25,0,0,0-.69.08,43.61,43.61,0,0,0,0,84.84,3,3,0,0,0,1.38,0,43.61,43.61,0,0,0,0-84.84A3.25,3.25,0,0,0,62.5,20Z" style="fill:#2d2a2a"/><circle cx="54.52" cy="57.3" r="3.06" style="fill:#2d2a2a"/><circle cx="73.26" cy="57.3" r="3.06" style="fill:#2d2a2a"/><path d="M73.26,68.21a9.37,9.37,0,1,1-18.74,0Z" style="fill:#fff;stroke:#2d2a2a;stroke-linecap:round;stroke-linejoin:round;stroke-width:3px"/></svg>