<svg id="Icons" xmlns="http://www.w3.org/2000/svg" width="125" height="125" viewBox="0 0 125 125"><title>Gaslight_Icons_All_2.0</title><rect x="21.47" y="41.02" width="87.54" height="60.75" style="fill:#ffd603;stroke:#2d2d2d;stroke-linecap:round;stroke-linejoin:round;stroke-width:3px"/><circle cx="96.73" cy="52.55" r="3.65" style="fill:#3dbfe3;stroke:#2d2a2a;stroke-linecap:round;stroke-linejoin:round;stroke-width:3px"/><circle cx="84.46" cy="52.55" r="3.65" style="fill:#fff;stroke:#2d2a2a;stroke-linecap:round;stroke-linejoin:round;stroke-width:3px"/><circle cx="72.19" cy="52.55" r="3.65" style="fill:#f03330;stroke:#2d2a2a;stroke-linecap:round;stroke-linejoin:round;stroke-width:3px"/><line x1="36.57" y1="69.42" x2="93.73" y2="69.42" style="fill:none;stroke:#2d2d2d;stroke-linecap:round;stroke-linejoin:round;stroke-width:3px"/><line x1="36.57" y1="77.16" x2="88.11" y2="77.16" style="fill:none;stroke:#2d2d2d;stroke-linecap:round;stroke-linejoin:round;stroke-width:3px"/><path d="M53.53,95.14A20.38,20.38,0,0,1,33.18,74.78V57.42h6V74.78a14.36,14.36,0,1,0,28.71,0h6A20.39,20.39,0,0,1,53.53,95.14Z" style="fill:#33bfe5;stroke:#2d2d2d;stroke-linecap:round;stroke-linejoin:round;stroke-width:3px"/><path d="M36.12,63.47A20.14,20.14,0,0,1,16,43.35V26.23a3,3,0,0,1,3-3h8a3,3,0,0,1,0,6H22V43.35a14.12,14.12,0,0,0,28.24,0V29.23h-5a3,3,0,0,1,0-6h8a3,3,0,0,1,3,3V43.35A20.14,20.14,0,0,1,36.12,63.47Z" style="fill:#33bfe5;stroke:#2d2d2d;stroke-miterlimit:10;stroke-width:3px"/><circle cx="70.86" cy="72.42" r="8.57" style="fill:#fff;stroke:#2d2d2d;stroke-linecap:round;stroke-linejoin:round;stroke-width:3px"/><circle cx="70.86" cy="72.42" r="3.5" style="fill:#e81212;stroke:#2d2d2d;stroke-linecap:round;stroke-linejoin:round;stroke-width:2.405835891634285px"/></svg>