<svg id="Icons" xmlns="http://www.w3.org/2000/svg" width="125" height="125" viewBox="0 0 125 125"><title>deliver_value_inverse</title><polygon points="66.33 53.06 58.25 27.1 57.63 27.1 57.63 97.9 104.26 97.9 104.26 53.06 66.33 53.06" style="fill:#fed330;stroke:#2d2a2a;stroke-linecap:round;stroke-linejoin:round;stroke-width:3px"/><polygon points="49.4 53.06 20.43 53.06 20.43 97.9 57.49 97.9 57.49 27.1 49.4 53.06" style="fill:#fed330;stroke:#2d2a2a;stroke-linecap:round;stroke-linejoin:round;stroke-width:3px"/><path d="M68.39,72.6a13.32,13.32,0,0,0-.18,2.1A13.69,13.69,0,0,0,81.9,88.39V74.7Z" style="fill:#3dbfe3;stroke:#2d2a2a;stroke-linecap:round;stroke-linejoin:round;stroke-width:3px"/><path d="M81.9,61A13.68,13.68,0,0,0,68.39,72.6L81.9,74.7l12.65-5.22A13.69,13.69,0,0,0,81.9,61Z" style="fill:#fff;stroke:#2d2a2a;stroke-linecap:round;stroke-linejoin:round;stroke-width:3px"/><path d="M94.55,69.48,81.9,74.7l12.66-5.18L81.9,74.7V88.39A13.68,13.68,0,0,0,94.55,69.48Z" style="fill:#e51921;stroke:#2d2a2a;stroke-linecap:round;stroke-linejoin:round;stroke-width:3px"/><polygon points="20.43 27.1 57.49 27.1 49.4 53.06 12.35 53.06 20.43 27.1" style="fill:#fed330;stroke:#2d2a2a;stroke-linecap:round;stroke-linejoin:round;stroke-width:3px"/><polygon points="58.25 27.1 104.26 27.1 112.35 53.06 66.33 53.06 58.25 27.1" style="fill:#fed330;stroke:#2d2a2a;stroke-linecap:round;stroke-linejoin:round;stroke-width:3px"/></svg>