<svg id="Icons" xmlns="http://www.w3.org/2000/svg" width="125" height="125" viewBox="0 0 125 125"><title>grow_sustainably_inverse</title><circle cx="65.28" cy="72.39" r="40.39" style="fill:#fed330;stroke:#2d2d2d;stroke-linecap:round;stroke-linejoin:round;stroke-width:3px"/><path d="M109.82,37.39h0a0,0,0,0,1,0,0V65a47.19,47.19,0,0,1-47.19,47.19h0a0,0,0,0,1,0,0V84.58a47.19,47.19,0,0,1,47.19-47.19Z" style="fill:#e51921;stroke:#2d2d2d;stroke-linecap:round;stroke-linejoin:round;stroke-width:3px"/><line x1="62.63" y1="112.16" x2="83.43" y2="76.13" style="fill:none;stroke:#2d2d2d;stroke-linecap:round;stroke-linejoin:round;stroke-width:3px"/><path d="M27.24,57.2h0A37.59,37.59,0,0,1,64.82,94.78v22a0,0,0,0,1,0,0h0A37.59,37.59,0,0,1,27.24,79.16v-22a0,0,0,0,1,0,0Z" transform="translate(113 159.07) rotate(165)" style="fill:#3dbfe3;stroke:#2d2d2d;stroke-linecap:round;stroke-linejoin:round;stroke-width:3px"/><line x1="71.89" y1="110.87" x2="48.46" y2="87.44" style="fill:#3dbfe3;stroke:#2d2d2d;stroke-linecap:round;stroke-linejoin:round;stroke-width:3px"/><line x1="65.28" y1="12.78" x2="65.28" y2="22.04" style="fill:none;stroke:#fff;stroke-linecap:round;stroke-linejoin:round;stroke-width:3px"/><line x1="94.52" y1="21.41" x2="89.89" y2="29.43" style="fill:none;stroke:#fff;stroke-linecap:round;stroke-linejoin:round;stroke-width:3px"/><line x1="34.34" y1="19.37" x2="38.97" y2="27.39" style="fill:none;stroke:#fff;stroke-linecap:round;stroke-linejoin:round;stroke-width:3px"/><line x1="14.68" y1="43.18" x2="22.71" y2="47.81" style="fill:none;stroke:#fff;stroke-linecap:round;stroke-linejoin:round;stroke-width:3px"/></svg>