<svg id="Icons" xmlns="http://www.w3.org/2000/svg" width="125" height="125" viewBox="0 0 125 125"><title>plan</title><path d="M51.74,32.53h8.64a2.14,2.14,0,0,1,2.15,2.14v8.62" style="fill:none;stroke:#2d2a2a;stroke-linecap:round;stroke-linejoin:round;stroke-width:3px"/><polygon points="66.17 42.8 58.88 42.8 62.53 46.45 66.17 42.8" style="fill:#2d2a2a"/><line x1="51.32" y1="67.25" x2="46.55" y2="67.25" style="fill:none;stroke:#2d2a2a;stroke-linecap:round;stroke-linejoin:round;stroke-width:3px"/><polygon points="47.04 70.89 47.04 63.6 43.39 67.25 47.04 70.89" style="fill:#2d2a2a"/><path d="M91.7,53.29v-3.4a2.15,2.15,0,0,0-2.15-2.15H84.9a2.14,2.14,0,0,1-2.15-2.14V38.25" style="fill:none;stroke:#2d2a2a;stroke-linecap:round;stroke-linejoin:round;stroke-width:3px"/><polygon points="88.05 52.8 95.34 52.8 91.7 56.45 88.05 52.8" style="fill:#2d2a2a"/><path d="M81.78,98.87H90a2.15,2.15,0,0,0,2.15-2.15V89.63" style="fill:none;stroke:#2d2a2a;stroke-linecap:round;stroke-linejoin:round;stroke-width:3px"/><polygon points="82.26 95.23 82.26 102.52 78.62 98.87 82.26 95.23" style="fill:#2d2a2a"/><path d="M48,104.28H45a2.08,2.08,0,0,1-2.15-2V99.71a2.07,2.07,0,0,0-2.14-2H34.29a2.09,2.09,0,0,1-2.15-2V90" style="fill:none;stroke:#2d2a2a;stroke-linecap:round;stroke-linejoin:round;stroke-width:3px"/><polygon points="47.47 107.93 47.47 100.64 51.12 104.28 47.47 107.93" style="fill:#2d2a2a"/><rect x="75.44" y="11.95" width="15.97" height="22.81" style="fill:#e51921;stroke:#2d2a2a;stroke-linecap:round;stroke-linejoin:round;stroke-width:3px"/><line x1="80.17" y1="18.63" x2="86.61" y2="18.63" style="fill:none;stroke:#2d2a2a;stroke-linecap:round;stroke-linejoin:round;stroke-width:3px"/><line x1="80.17" y1="22.77" x2="83.78" y2="22.77" style="fill:none;stroke:#2d2a2a;stroke-linecap:round;stroke-linejoin:round;stroke-width:3px"/><rect x="32.28" y="26.18" width="15.97" height="22.81" style="fill:#e51921;stroke:#2d2a2a;stroke-linecap:round;stroke-linejoin:round;stroke-width:3px"/><line x1="37.02" y1="32.86" x2="43.46" y2="32.86" style="fill:none;stroke:#2d2a2a;stroke-linecap:round;stroke-linejoin:round;stroke-width:3px"/><line x1="37.02" y1="37" x2="40.62" y2="37" style="fill:none;stroke:#2d2a2a;stroke-linecap:round;stroke-linejoin:round;stroke-width:3px"/><rect x="23.85" y="61.61" width="15.97" height="22.81" style="fill:#fed330;stroke:#2d2a2a;stroke-linecap:round;stroke-linejoin:round;stroke-width:3px"/><line x1="28.59" y1="68.28" x2="35.03" y2="68.28" style="fill:none;stroke:#2d2a2a;stroke-linecap:round;stroke-linejoin:round;stroke-width:3px"/><line x1="28.59" y1="72.42" x2="32.19" y2="72.42" style="fill:none;stroke:#2d2a2a;stroke-linecap:round;stroke-linejoin:round;stroke-width:3px"/><rect x="56.61" y="53.07" width="15.97" height="22.81" style="fill:#fed330;stroke:#2d2a2a;stroke-linecap:round;stroke-linejoin:round;stroke-width:3px"/><line x1="61.35" y1="59.75" x2="67.79" y2="59.75" style="fill:none;stroke:#2d2a2a;stroke-linecap:round;stroke-linejoin:round;stroke-width:3px"/><line x1="61.35" y1="63.89" x2="64.95" y2="63.89" style="fill:none;stroke:#2d2a2a;stroke-linecap:round;stroke-linejoin:round;stroke-width:3px"/><rect x="84.01" y="60.92" width="15.97" height="22.81" style="fill:#fed330;stroke:#2d2a2a;stroke-linecap:round;stroke-linejoin:round;stroke-width:3px"/><line x1="88.74" y1="67.6" x2="95.18" y2="67.6" style="fill:none;stroke:#2d2a2a;stroke-linecap:round;stroke-linejoin:round;stroke-width:3px"/><line x1="88.74" y1="71.74" x2="92.35" y2="71.74" style="fill:none;stroke:#2d2a2a;stroke-linecap:round;stroke-linejoin:round;stroke-width:3px"/><rect x="56.29" y="89.14" width="15.97" height="22.81" style="fill:#3dbfe3;stroke:#2d2a2a;stroke-linecap:round;stroke-linejoin:round;stroke-width:3px"/><line x1="61.02" y1="95.82" x2="67.46" y2="95.82" style="fill:none;stroke:#2d2a2a;stroke-linecap:round;stroke-linejoin:round;stroke-width:3px"/><line x1="61.02" y1="99.96" x2="64.62" y2="99.96" style="fill:none;stroke:#2d2a2a;stroke-linecap:round;stroke-linejoin:round;stroke-width:3px"/></svg>