<svg id="Layer_1" data-name="Layer 1" xmlns="http://www.w3.org/2000/svg" xmlns:xlink="http://www.w3.org/1999/xlink" width="25" height="25" viewBox="0 0 25 25"><defs><clipPath id="clip-path"><rect x="5.51" y="5.24" width="13.98" height="14.53" style="fill:none"/></clipPath></defs><title>cross--red</title><g id="Artwork_16" data-name="Artwork 16"><g style="clip-path:url(#clip-path)"><g style="clip-path:url(#clip-path)"><path d="M18.76,15.22l-2.69-2.77L18.7,9.59a2.59,2.59,0,1,0-3.82-3.51L12.45,8.72,10,6.17A2.6,2.6,0,0,0,6.24,9.78l2.69,2.77L6.3,15.41a2.59,2.59,0,0,0,.16,3.67,2.54,2.54,0,0,0,1.75.68,2.57,2.57,0,0,0,1.91-.84l2.43-2.64L15,18.83a2.6,2.6,0,0,0,3.67.06,2.6,2.6,0,0,0,.06-3.67" style="fill:#e81e25"/></g></g></g></svg>