<svg id="Layer_1" data-name="Layer 1" xmlns="http://www.w3.org/2000/svg" xmlns:xlink="http://www.w3.org/1999/xlink" width="24.14" height="23.7" viewBox="0 0 24.14 23.7"><defs><clipPath id="clip-path"><rect width="24.14" height="23.7" style="fill:none"/></clipPath></defs><title>star--blue</title><g id="Artwork_21" data-name="Artwork 21"><g style="clip-path:url(#clip-path)"><g style="clip-path:url(#clip-path)"><path d="M21.69,9.27a2.4,2.4,0,0,0-2,1.06H15.16l4.46-5.19.19,0a2.52,2.52,0,0,0,2.45-2.58,2.46,2.46,0,1,0-4.91,0,2.42,2.42,0,0,0,0,.47L11.67,9.74,8.07,3.5a2.82,2.82,0,0,0,.16-.92A2.52,2.52,0,0,0,5.78,0,2.52,2.52,0,0,0,3.33,2.58,2.53,2.53,0,0,0,5.5,5.13l3,5.2H4.43a2.43,2.43,0,0,0-2-1.06,2.58,2.58,0,0,0,0,5.16,2.43,2.43,0,0,0,2-1.06H8.55L4.09,18.56l-.19,0a2.58,2.58,0,0,0,0,5.16,2.52,2.52,0,0,0,2.45-2.58,2.42,2.42,0,0,0,0-.47L11.18,15l3.14,5.44a2.77,2.77,0,0,0-.1.71,2.45,2.45,0,1,0,2.53-2.57l-3-5.18h6a2.4,2.4,0,0,0,2,1.06,2.58,2.58,0,0,0,0-5.16" style="fill:#34bfe5"/></g></g></g></svg>