<?xml version="1.0" encoding="utf-8"?>
<!-- Generator: Adobe Illustrator 23.0.4, SVG Export Plug-In . SVG Version: 6.00 Build 0)  -->
<svg version="1.1" id="Layer_1" xmlns="http://www.w3.org/2000/svg" xmlns:xlink="http://www.w3.org/1999/xlink" x="0px" y="0px"
	 viewBox="0 0 687.5 154.1" style="enable-background:new 0 0 687.5 154.1;" xml:space="preserve">
<style type="text/css">
	.st0{fill:url(#SVGID_1_);}
	.st1{fill:url(#SVGID_2_);}
	.st2{fill:#00548D;}
</style>
<radialGradient id="SVGID_1_" cx="66.4263" cy="-175.0658" r="64.2377" fx="66.3698" fy="-175.0229" gradientTransform="matrix(1 0 0 -1.0848 0 -126.8574)" gradientUnits="userSpaceOnUse">
	<stop  offset="0.2102" style="stop-color:#007474"/>
	<stop  offset="0.2614" style="stop-color:#007676"/>
	<stop  offset="0.2976" style="stop-color:#027C7C"/>
	<stop  offset="0.3293" style="stop-color:#0C8787"/>
	<stop  offset="0.3584" style="stop-color:#169697"/>
	<stop  offset="0.3853" style="stop-color:#20AAAB"/>
	<stop  offset="0.402" style="stop-color:#23BDBE"/>
	<stop  offset="0.5489" style="stop-color:#25B7B9"/>
	<stop  offset="0.6557" style="stop-color:#25ACAC"/>
	<stop  offset="0.7496" style="stop-color:#239D9B"/>
	<stop  offset="0.8363" style="stop-color:#1F8984"/>
	<stop  offset="0.9171" style="stop-color:#19716B"/>
	<stop  offset="0.9932" style="stop-color:#0E5750"/>
</radialGradient>
<path class="st0" d="M22.5,100.1c0-43.6,26.8-79.1,78.1-77.5c4.2,0.1,8.1,0.4,11.8,0.8C101.2,13.8,86.7,8,70.8,8
	C35.6,8,7,36.6,7,71.8c0,16.7,6.4,31.8,16.9,43.2C23,110.2,22.5,105.3,22.5,100.1z"/>
<g>
	
		<radialGradient id="SVGID_2_" cx="78.6637" cy="-189.5242" r="98.9934" fx="74.467" fy="-226.4098" gradientTransform="matrix(1 0 0 -1 0 -101.3999)" gradientUnits="userSpaceOnUse">
		<stop  offset="4.950940e-03" style="stop-color:#B5E3F4"/>
		<stop  offset="9.632865e-02" style="stop-color:#8BD5E8"/>
		<stop  offset="0.2038" style="stop-color:#59C8DC"/>
		<stop  offset="0.2596" style="stop-color:#3FC3D8"/>
		<stop  offset="0.3652" style="stop-color:#1BA8C9"/>
		<stop  offset="0.5533" style="stop-color:#0088B7"/>
		<stop  offset="0.7271" style="stop-color:#0073AB"/>
		<stop  offset="0.8795" style="stop-color:#0068A4"/>
		<stop  offset="0.994" style="stop-color:#0064A2"/>
	</radialGradient>
	<path class="st1" d="M135.7,71.3c0-12.3-3.9-23.6-10.2-33.1c-8.5-5-17.4-7.8-25.3-7.8c-42.9,0-58.1,28-58.1,62.5
		c0,17.1,3.8,30.3,10.3,40.1c6.4,2,13.5,3.1,21.3,3.1C107.9,136,135.7,107.1,135.7,71.3z"/>
</g>
<g>
	<path class="st2" d="M200.4,76c0,13.3-11.7,23.3-27.5,23.3s-27.5-9.9-27.5-23.3c0-13.3,11.7-23.1,27.5-23.1S200.4,62.7,200.4,76z
		 M160.7,76.1c0,6.9,5.8,12,12.4,12s12-5.1,12-12s-5.3-11.9-12-11.9C166.4,64.2,160.7,69.2,160.7,76.1z"/>
	<path class="st2" d="M241,72.2l-11.2,4.9c-1.4-2.2-3.5-3.5-6.3-3.5c-3.9,0-6.5,3-6.5,7.5c0,4.6,2.6,7.6,6.5,7.6
		c2.8,0,5-1.2,6.2-3.9l11.3,5.1c-3,5.8-9.6,9.1-18.3,9.1c-12.3,0-20.4-7.1-20.4-18c0-11,8.1-18.2,20.5-18.2
		C231.1,63,237.7,66.4,241,72.2z"/>
	<path class="st2" d="M282.3,84.3h-26.4c1.2,3.4,3.9,5.2,7.6,5.2c3.1,0,6-1.2,8.6-3.4l7.6,6.7c-4.1,4.1-10,6.4-17.4,6.4
		c-13.1,0-21.1-7.1-21.1-18c0-11,8.3-18.2,20.7-18.2C275.7,63,283.2,71.3,282.3,84.3z M268,77.9c0.1-3.5-2.4-6-5.9-6
		c-3.4,0-5.7,2.4-6.4,6H268z"/>
	<path class="st2" d="M323.4,75.9v22.9h-14.3v-3.9c-2.4,2.9-6.3,4.5-11.4,4.5c-8.4,0-13.2-4.5-13.2-11.1c0-6.8,5.3-10.6,15.1-10.7
		h9.6v-0.1c0-2.9-2.3-4.7-6.8-4.7c-3.1,0-7.5,0.8-11.8,2.5l-3.6-8.7c6.4-2.3,12.7-3.6,18.9-3.6C316.9,63,323.4,67.7,323.4,75.9z
		 M309.2,87.1v-3.2h-6.6c-2.9,0-4.4,1.1-4.4,3.3s1.6,3.5,4.4,3.5C305.5,90.8,308.1,89.3,309.2,87.1z"/>
	<path class="st2" d="M371.5,76.4v22.4H357V80.2c0-3.5-2.2-5.7-5.6-5.7c-4,0.1-6.4,2.9-6.4,6.9v17.4h-14.6V63.5h14.5v5.4
		c2.7-3.9,7-6,12.5-6C365.8,63,371.5,68.2,371.5,76.4z"/>
	<path class="st2" d="M423.1,61l-8.6,9.2c-3.2-3.6-7.8-6-12-6c-6.8,0-12,5-12,11.7s5.2,11.7,12,11.7c3.9,0,8.6-2.1,12-5.2l8.6,8.3
		c-5.5,5.3-13.8,8.7-21.4,8.7c-15.3,0-26.6-10-26.6-23.4c0-13.2,11.5-23,27.1-23C409.8,52.9,418,56,423.1,61z"/>
	<path class="st2" d="M466.8,81.1c0,10.9-8.6,18.1-21.7,18.1c-13.2,0-21.8-7.2-21.8-18.1c0-11,8.6-18.1,21.8-18.1
		C458.2,63,466.8,70.2,466.8,81.1z M437.9,81.2c0,4.7,2.8,7.8,7.1,7.8c4.2,0,7.1-3.1,7.1-7.8s-2.8-7.8-7.1-7.8
		C440.7,73.4,437.9,76.6,437.9,81.2z"/>
	<path class="st2" d="M512.9,76.4v22.4h-14.5V80.2c0-3.5-2.2-5.7-5.6-5.7c-4,0.1-6.4,2.9-6.4,6.9v17.4h-14.5V63.5h14.5v5.4
		c2.7-3.9,7-6,12.5-6C507.2,63,512.9,68.2,512.9,76.4z"/>
	<path class="st2" d="M561,76.4v22.4h-14.5V80.2c0-3.5-2.2-5.7-5.6-5.7c-4,0.1-6.4,2.9-6.4,6.9v17.4H520V63.5h14.5v5.4
		c2.7-3.9,7-6,12.5-6C555.3,63,561,68.2,561,76.4z"/>
	<path class="st2" d="M606,84.3h-26.4c1.2,3.4,3.9,5.2,7.6,5.2c3.1,0,6-1.2,8.6-3.4l7.6,6.7c-4.1,4.1-10,6.4-17.4,6.4
		c-13.1,0-21.1-7.1-21.1-18c0-11,8.3-18.2,20.7-18.2C599.4,63,606.9,71.3,606,84.3z M591.7,77.9c0.1-3.5-2.4-6-5.9-6
		c-3.4,0-5.7,2.4-6.4,6H591.7z"/>
	<path class="st2" d="M646.7,72.2l-11.2,4.9c-1.4-2.2-3.5-3.5-6.3-3.5c-3.9,0-6.5,3-6.5,7.5c0,4.6,2.6,7.6,6.5,7.6
		c2.8,0,5-1.2,6.2-3.9l11.3,5.1c-3,5.8-9.6,9.1-18.3,9.1c-12.3,0-20.4-7.1-20.4-18c0-11,8.1-18.2,20.5-18.2
		C636.9,63,643.4,66.4,646.7,72.2z"/>
	<path class="st2" d="M677.7,97.1c-2.7,1.4-6.9,2.3-10.9,2.3c-8.4,0.1-14-4.3-14-11.6V73.7h-5.4v-8.4h5.4v-9.8h14.5v9.8h9.6v8.4
		h-9.6v12.1c0,2.3,1.3,3.4,3.3,3.4c1.2,0,2.7-0.5,4.5-1L677.7,97.1z"/>
</g>
<g>
	<path class="st2" d="M517.9,143.4v-24.8l-11,21.6h-2.1l-10.9-21.6v24.8h-3.3v-30.1h4.3l11,21.7l11-21.7h4.2v30.1H517.9z"/>
	<path class="st2" d="M552.5,139.9c-1.8,2.5-4.7,3.7-8.3,3.7c-4.7,0-7.7-3-7.7-6.9c0-4,3.1-6.5,8.5-6.5h7.4v-1.3
		c0-3.3-2.1-5.3-6.1-5.3c-2.5,0-4.8,0.9-7.2,2.6l-1.4-2.5c2.9-1.9,5.4-3.1,9.2-3.1c5.6,0,8.7,3,8.7,7.8v15h-3.3v-3.5H552.5z
		 M552.4,135.5v-2.7h-7.1c-3.8,0-5.8,1.2-5.8,3.7s2,4.1,5.2,4.1C548.6,140.6,551.6,138.7,552.4,135.5z"/>
	<path class="st2" d="M575.2,125.7c1.5-3.3,4.3-5.1,8.1-5.2v3.4c-4.8-0.1-7.7,2.9-8.1,7.4v12h-3.4v-22.7h3.4V125.7z"/>
	<path class="st2" d="M600.2,114.2c0,1.3-0.9,2.3-2.2,2.3s-2.2-1-2.2-2.3s0.9-2.3,2.2-2.3S600.2,112.9,600.2,114.2z M596.4,143.4
		v-22.7h3.3v22.7H596.4z"/>
	<path class="st2" d="M637.2,129.4v14h-3.4v-13.1c0-4-2.4-6.4-6.4-6.4c-4.5,0-7.2,3-7.6,7.3v12.2h-3.4v-22.7h3.4v5
		c1.6-3.4,4.6-5.1,8.8-5.1C634,120.6,637.2,123.9,637.2,129.4z"/>
	<path class="st2" d="M672.8,133.3h-18.5c0.6,4.4,3.8,7.2,8.2,7.2c2.8,0,5.2-1,7-2.8l1.8,2c-2.1,2.4-5.3,3.8-9.1,3.8
		c-6.7,0-11.3-4.7-11.3-11.4c0-6.8,4.6-11.4,11.2-11.4C669.6,120.6,673.2,125.6,672.8,133.3z M669.8,130.6c-0.2-4.3-3.1-7.1-7.6-7.1
		c-4.3,0-7.4,2.8-7.9,7.1H669.8z"/>
</g>
</svg>
