<?xml version="1.0" encoding="utf-8"?>
<!-- Generator: Adobe Illustrator 23.0.4, SVG Export Plug-In . SVG Version: 6.00 Build 0)  -->
<svg version="1.1" id="Layer_1" xmlns="http://www.w3.org/2000/svg" xmlns:xlink="http://www.w3.org/1999/xlink" x="0px" y="0px"
	 viewBox="0 0 271.1 75" style="enable-background:new 0 0 271.1 75;" xml:space="preserve">
<style type="text/css">
	.st0{fill:#1E647C;}
	.st1{fill:#4A7783;}
	.st2{fill:#6B8D89;}
	.st3{fill:#8AA690;}
	.st4{fill:#AAC194;}
</style>
<g>
	<rect x="88.9" y="50.3" class="st0" width="18.7" height="18.7"/>
	<rect x="111.1" y="50.3" class="st1" width="18.7" height="18.7"/>
	<rect x="111.1" y="28.1" class="st2" width="18.7" height="18.7"/>
	<rect x="133.3" y="28.1" class="st3" width="18.7" height="18.7"/>
	<rect x="133.3" y="5.9" class="st4" width="18.7" height="18.7"/>
	<g>
		<path d="M5.2,30.6H2v-1.5h3.2v-5.4h1.6v5.4h5.4v1.5H6.8V40c0,1,0.1,1.7,0.2,2.3c0.1,0.6,0.3,1,0.6,1.3s0.6,0.5,0.9,0.6
			c0.4,0.1,0.7,0.1,1.2,0.1c0.6,0,1.1-0.1,1.5-0.3c0.4-0.2,0.8-0.6,1.3-1.1l1,1c-0.5,0.6-1,1.1-1.6,1.4s-1.4,0.5-2.3,0.5
			c-0.6,0-1.2-0.1-1.8-0.2c-0.5-0.2-1-0.4-1.4-0.8s-0.7-1-0.9-1.7s-0.3-1.6-0.3-2.7V30.6z"/>
		<path d="M30.2,42.9c-0.7,0.9-1.7,1.6-2.9,2.1s-2.4,0.8-3.7,0.8c-1.2,0-2.3-0.2-3.3-0.6s-1.9-1-2.6-1.7c-0.7-0.8-1.3-1.7-1.7-2.7
			s-0.6-2.2-0.6-3.5c0-1.2,0.2-2.3,0.6-3.3c0.4-1,0.9-1.9,1.6-2.7c0.7-0.8,1.5-1.4,2.5-1.8s2-0.7,3.2-0.7c1.1,0,2.1,0.2,3.1,0.6
			s1.8,1,2.5,1.7c0.7,0.8,1.2,1.7,1.6,2.8c0.4,1.1,0.6,2.4,0.6,3.9h-14c0,0.9,0.2,1.8,0.5,2.6c0.3,0.8,0.8,1.5,1.3,2.1
			c0.6,0.6,1.2,1.1,2,1.4s1.7,0.5,2.6,0.5c0.5,0,1-0.1,1.5-0.2s1-0.3,1.5-0.5s0.9-0.5,1.4-0.7c0.4-0.3,0.8-0.6,1-1L30.2,42.9z
			 M29.1,36.3c-0.2-2-0.8-3.5-1.9-4.5c-1.1-1-2.4-1.6-4.1-1.6c-0.9,0-1.7,0.2-2.4,0.5s-1.3,0.8-1.9,1.3c-0.5,0.6-0.9,1.2-1.3,1.9
			c-0.3,0.7-0.5,1.5-0.5,2.4L29.1,36.3L29.1,36.3z"/>
		<path d="M34.8,32.5c0-0.4,0-0.8,0-1.1s0-0.6,0-0.8c0-0.2,0-0.5,0-0.7s0-0.5-0.1-0.7h1.5c0,0.3,0,0.5,0.1,0.7c0,0.2,0,0.5,0,0.8
			s0,0.6,0,0.9s0,0.7,0,1.2c0.2-0.4,0.4-0.7,0.8-1.2c0.3-0.4,0.7-0.8,1.2-1.2c0.5-0.4,1.1-0.7,1.7-1c0.7-0.3,1.4-0.4,2.3-0.4
			c0.5,0,1,0.1,1.3,0.2l-0.5,1.5c-0.2-0.1-0.4-0.1-0.6-0.1c-0.2,0-0.4,0-0.6,0c-0.8,0-1.6,0.2-2.3,0.6s-1.3,0.9-1.8,1.5
			s-0.9,1.3-1.1,2.1c-0.3,0.8-0.4,1.6-0.4,2.4v8.3h-1.6v-13H34.8z"/>
		<path d="M46.5,32.5c0-0.4,0-0.8,0-1.1s0-0.6,0-0.8c0-0.2,0-0.5,0-0.7s0-0.5-0.1-0.7h1.5c0,0.3,0,0.5,0.1,0.7c0,0.2,0,0.5,0,0.8
			s0,0.6,0,0.9s0,0.7,0,1.2c0.2-0.4,0.4-0.7,0.8-1.2c0.3-0.4,0.7-0.8,1.2-1.2c0.5-0.4,1.1-0.7,1.7-1c0.7-0.3,1.4-0.4,2.3-0.4
			c0.5,0,1,0.1,1.3,0.2l-0.5,1.5c-0.2-0.1-0.4-0.1-0.6-0.1c-0.2,0-0.4,0-0.6,0c-0.8,0-1.6,0.2-2.3,0.6s-1.3,0.9-1.8,1.5
			s-0.9,1.3-1.1,2.1c-0.3,0.8-0.4,1.6-0.4,2.4v8.3h-1.6v-13H46.5z"/>
		<path d="M68.2,45.3c0-0.2,0-0.4,0-0.7c0-0.2,0-0.5,0-0.8s0-0.7,0-1.2c-0.4,0.6-0.9,1.1-1.4,1.5s-1,0.7-1.6,1
			c-0.6,0.2-1.1,0.4-1.6,0.5s-1,0.1-1.5,0.1c-0.7,0-1.4-0.1-2-0.2c-0.7-0.1-1.3-0.4-1.8-0.8s-1-0.9-1.3-1.5s-0.5-1.4-0.5-2.4
			c0-0.8,0.1-1.5,0.4-2.2c0.3-0.7,0.7-1.3,1.2-1.8s1.3-0.9,2.2-1.2c0.9-0.3,2-0.4,3.2-0.4c1,0,1.9,0,2.6,0.1c0.8,0.1,1.4,0.2,2,0.2
			v-0.9c0-0.9-0.1-1.6-0.3-2.2s-0.5-1.1-1-1.4c-0.4-0.4-0.9-0.6-1.6-0.7c-0.6-0.1-1.3-0.2-2.1-0.2c-1.3,0-2.4,0.2-3.2,0.6
			s-1.4,0.8-1.8,1.1l-0.8-1.1c0.4-0.4,1.2-0.9,2.2-1.3c1-0.5,2.2-0.7,3.6-0.7c2.1,0,3.7,0.4,4.8,1.3s1.7,2.4,1.7,4.4v7.5
			c0,0.5,0,0.9,0,1.3s0,0.8,0,1.1c0,0.4,0,0.7,0.1,1L68.2,45.3L68.2,45.3z M68.1,37c-0.5-0.1-1.1-0.2-1.9-0.3
			c-0.7-0.1-1.7-0.1-2.8-0.1c-1.2,0-2.1,0.1-2.9,0.4c-0.7,0.3-1.2,0.7-1.6,1.1c-0.4,0.4-0.6,0.9-0.7,1.4c-0.1,0.5-0.2,1-0.2,1.4
			c0,1.2,0.4,2,1.2,2.6c0.8,0.5,1.8,0.8,3,0.8c0.8,0,1.6-0.1,2.3-0.4s1.3-0.7,1.9-1.1c0.5-0.5,0.9-1,1.3-1.6
			c0.3-0.6,0.5-1.2,0.5-1.8V37H68.1z"/>
		<path d="M87.5,42.9c-0.7,0.8-1.6,1.5-2.7,2s-2.3,0.8-3.8,0.8c-1.2,0-2.3-0.2-3.3-0.7c-1-0.4-1.9-1-2.6-1.8
			c-0.7-0.8-1.3-1.7-1.7-2.7s-0.6-2.2-0.6-3.4c0-1.2,0.2-2.3,0.6-3.4c0.4-1,1-1.9,1.7-2.7c0.7-0.8,1.6-1.4,2.6-1.8s2.1-0.7,3.2-0.7
			c1.4,0,2.6,0.3,3.6,0.8c1,0.5,1.9,1.2,2.6,2.1l-1.2,0.9c-0.5-0.7-1.2-1.3-2-1.7c-0.8-0.4-1.8-0.6-3-0.6c-0.9,0-1.8,0.2-2.6,0.6
			s-1.5,0.9-2,1.5c-0.6,0.6-1,1.4-1.3,2.2c-0.3,0.9-0.5,1.8-0.5,2.7c0,1,0.2,1.9,0.5,2.7c0.3,0.9,0.8,1.6,1.4,2.2
			c0.6,0.6,1.3,1.1,2,1.5C79.2,43.8,80,44,81,44c1.2,0,2.2-0.2,3.1-0.6s1.6-1,2.2-1.7L87.5,42.9z"/>
		<path d="M105.1,42.9c-0.7,0.9-1.7,1.6-2.9,2.1c-1.2,0.5-2.4,0.8-3.7,0.8c-1.2,0-2.3-0.2-3.3-0.6s-1.9-1-2.6-1.7
			c-0.7-0.8-1.3-1.7-1.7-2.7c-0.4-1-0.6-2.2-0.6-3.5c0-1.2,0.2-2.3,0.6-3.3s0.9-1.9,1.6-2.7c0.7-0.8,1.5-1.4,2.5-1.8s2-0.7,3.2-0.7
			c1.1,0,2.1,0.2,3.1,0.6s1.8,1,2.5,1.7c0.7,0.8,1.2,1.7,1.6,2.8c0.4,1.1,0.6,2.4,0.6,3.9H92.2c0,0.9,0.2,1.8,0.5,2.6
			c0.3,0.8,0.8,1.5,1.3,2.1c0.6,0.6,1.2,1.1,2,1.4s1.7,0.5,2.6,0.5c0.5,0,1-0.1,1.5-0.2s1-0.3,1.5-0.5s0.9-0.5,1.4-0.7
			c0.4-0.3,0.8-0.6,1-1L105.1,42.9z M104.1,36.3c-0.2-2-0.8-3.5-1.9-4.5s-2.4-1.6-4.1-1.6c-0.9,0-1.7,0.2-2.4,0.5
			C95,31,94.4,31.5,93.8,32c-0.5,0.6-0.9,1.2-1.3,1.9c-0.3,0.7-0.5,1.5-0.5,2.4L104.1,36.3L104.1,36.3z"/>
	</g>
	<g>
		<path class="st0" d="M156.5,28.7h4l0.1,1.9c0.2-0.2,0.4-0.5,0.7-0.8c0.3-0.3,0.6-0.5,1-0.7s0.8-0.4,1.3-0.5s1.1-0.2,1.7-0.2
			c2.2,0,3.8,0.8,4.9,2.4c0.8-0.9,1.7-1.5,2.6-1.8s1.9-0.5,3.1-0.5c2.1,0,3.7,0.6,4.8,1.8c1.1,1.2,1.7,2.9,1.7,5v10h-4.1v-9.9
			c0-1.1-0.3-1.9-0.8-2.4c-0.5-0.6-1.2-0.9-2.2-0.9c-0.6,0-1.1,0.1-1.5,0.3c-0.5,0.2-0.9,0.5-1.2,0.9c-0.3,0.4-0.6,0.9-0.8,1.4
			s-0.3,1.1-0.3,1.7v8.9h-4.1v-9.9c0-1.1-0.3-1.9-0.8-2.4c-0.5-0.6-1.2-0.9-2.2-0.9c-0.6,0-1.1,0.1-1.5,0.3
			c-0.5,0.2-0.9,0.5-1.2,0.9c-0.3,0.4-0.6,0.9-0.8,1.4c-0.2,0.5-0.3,1.1-0.3,1.7v8.9h-4.1L156.5,28.7L156.5,28.7z"/>
		<path class="st0" d="M201.1,42.8c-0.1,0.1-0.3,0.3-0.6,0.6s-0.8,0.6-1.4,1s-1.4,0.7-2.3,0.9c-0.9,0.3-2,0.4-3.3,0.4
			s-2.5-0.2-3.6-0.7c-1.1-0.4-2-1.1-2.7-1.8c-0.8-0.8-1.3-1.7-1.8-2.8c-0.4-1.1-0.6-2.3-0.6-3.6c0-1.2,0.2-2.3,0.6-3.4
			c0.4-1,1-1.9,1.7-2.7c0.7-0.8,1.6-1.4,2.6-1.8s2.1-0.7,3.4-0.7c1.5,0,2.8,0.3,3.8,0.8s1.9,1.3,2.5,2.2c0.6,0.9,1.1,1.9,1.4,3
			s0.4,2.3,0.4,3.4v0.6h-12.1c0,0.6,0.1,1.2,0.4,1.6c0.3,0.5,0.6,0.9,1.1,1.3c0.4,0.4,0.9,0.6,1.5,0.8c0.5,0.2,1.1,0.3,1.6,0.3
			c0.8,0,1.5-0.1,2.1-0.2c0.6-0.2,1.1-0.3,1.5-0.5s0.8-0.4,1-0.6c0.3-0.2,0.5-0.4,0.6-0.5L201.1,42.8z M197.1,35.2
			c0-0.4-0.1-0.8-0.2-1.3c-0.2-0.4-0.4-0.8-0.7-1.1c-0.3-0.3-0.7-0.6-1.2-0.8c-0.5-0.2-1.1-0.3-1.7-0.3c-0.7,0-1.3,0.1-1.8,0.3
			c-0.5,0.2-1,0.5-1.3,0.8c-0.4,0.3-0.6,0.7-0.8,1.1c-0.2,0.4-0.3,0.8-0.3,1.3H197.1z"/>
		<path class="st0" d="M205.2,32.1h-2.8v-3.4h2.8v-5.3h4.1v5.3h4.4v3.4h-4.4v7.2c0,0.9,0.2,1.7,0.5,2.2s0.8,0.8,1.5,0.8
			s1.2-0.1,1.6-0.3c0.4-0.2,0.8-0.4,1.1-0.7l1.8,2.6c-0.8,0.7-1.6,1.2-2.4,1.5s-1.7,0.4-2.7,0.4s-1.9-0.1-2.6-0.4s-1.3-0.7-1.7-1.2
			c-0.4-0.5-0.7-1.2-0.9-1.9c-0.2-0.8-0.3-1.6-0.3-2.5V32.1z"/>
		<path class="st0" d="M217.2,28.7h4l0.1,2.1c0.2-0.2,0.4-0.5,0.7-0.8c0.3-0.3,0.6-0.5,1-0.8c0.4-0.2,0.9-0.4,1.4-0.6
			s1.1-0.2,1.8-0.2c0.4,0,0.8,0,1.1,0.1c0.3,0,0.6,0.1,1,0.2l-0.8,3.9c-0.3-0.1-0.6-0.2-0.9-0.2s-0.6-0.1-1-0.1
			c-0.6,0-1.1,0.1-1.6,0.3c-0.5,0.2-1,0.5-1.3,0.8c-0.4,0.4-0.7,0.8-0.9,1.3c-0.2,0.5-0.3,1-0.3,1.6v8.9h-4.1V28.7H217.2z"/>
		<path class="st0" d="M229.9,21.8h4.4v4.3h-4.4V21.8z M230,28.7h4.1v16.4H230V28.7z"/>
		<path class="st0" d="M252.2,43c-0.8,0.8-1.7,1.5-2.7,2c-1.1,0.5-2.3,0.7-3.7,0.7s-2.7-0.2-3.7-0.6c-1.1-0.4-2-1-2.8-1.8
			c-0.7-0.8-1.3-1.7-1.7-2.8c-0.4-1.1-0.6-2.3-0.6-3.6c0-1.2,0.2-2.3,0.6-3.4s1-2,1.8-2.8s1.7-1.4,2.8-1.9c1.1-0.5,2.3-0.7,3.6-0.7
			c1.3,0,2.5,0.2,3.6,0.7s2,1.1,2.8,1.9l-2.6,2.7c-0.5-0.5-1-1-1.6-1.3s-1.4-0.5-2.2-0.5c-0.8,0-1.5,0.1-2.1,0.4s-1.1,0.7-1.5,1.1
			c-0.4,0.5-0.7,1-0.9,1.6c-0.2,0.6-0.3,1.3-0.3,1.9s0.1,1.2,0.3,1.9c0.2,0.6,0.5,1.2,0.9,1.6c0.4,0.5,0.9,0.9,1.5,1.2
			c0.6,0.3,1.3,0.5,2.1,0.5c0.8,0,1.6-0.2,2.2-0.5c0.7-0.3,1.2-0.7,1.7-1.3L252.2,43z"/>
		<path class="st0" d="M255.9,40.4c0.5,0.5,1.2,0.9,1.9,1.3c0.8,0.3,1.7,0.5,2.7,0.5c0.9,0,1.6-0.1,2.1-0.4c0.5-0.2,0.8-0.6,0.8-1.2
			c0-0.2,0-0.4-0.1-0.6c-0.1-0.2-0.3-0.4-0.6-0.6c-0.3-0.2-0.7-0.4-1.3-0.6c-0.5-0.2-1.3-0.4-2.2-0.6c-0.6-0.1-1.1-0.3-1.8-0.6
			c-0.6-0.2-1.2-0.6-1.7-1c-0.5-0.4-1-0.9-1.3-1.5s-0.5-1.3-0.5-2c0-0.8,0.2-1.5,0.6-2.2c0.4-0.6,0.9-1.2,1.6-1.6
			c0.6-0.4,1.4-0.8,2.2-1s1.6-0.4,2.4-0.4c1.4,0,2.7,0.2,3.7,0.5s1.9,0.8,2.7,1.4l-2.1,2.9c-0.4-0.3-1-0.6-1.8-0.9
			c-0.7-0.3-1.6-0.4-2.6-0.4s-1.7,0.1-2,0.4c-0.4,0.3-0.6,0.6-0.6,1.1s0.3,0.9,1,1.2c0.6,0.3,1.6,0.6,3,0.9c0.8,0.2,1.6,0.4,2.3,0.7
			c0.7,0.3,1.2,0.6,1.7,1.1c0.5,0.4,0.8,0.9,1.1,1.5c0.3,0.6,0.4,1.3,0.4,2c0,0.8-0.2,1.5-0.6,2.2c-0.4,0.6-0.9,1.2-1.5,1.6
			c-0.6,0.4-1.4,0.8-2.2,1c-0.9,0.2-1.8,0.4-2.7,0.4c-1.5,0-2.9-0.2-4.2-0.6c-1.2-0.4-2.2-1.1-3-1.9L255.9,40.4z"/>
	</g>
</g>
</svg>
