<?xml version="1.0" encoding="utf-8"?>
<!-- Generator: Adobe Illustrator 23.0.1, SVG Export Plug-In . SVG Version: 6.00 Build 0)  -->
<svg version="1.1" id="Layer_1" xmlns="http://www.w3.org/2000/svg" xmlns:xlink="http://www.w3.org/1999/xlink" x="0px" y="0px"
	 viewBox="0 0 933 473" style="enable-background:new 0 0 933 473;" xml:space="preserve">
<style type="text/css">
	.st0{fill:#FFFFFF;}
	.st1{fill:#25A248;}
	.st2{fill:none;stroke:#25A248;stroke-width:0.75;stroke-miterlimit:10;}
	.st3{fill:#262626;}
</style>
<path class="st3" d="M128.44,336.39l18.7-0.03l0.14,87.21l-18.7,0.03l-0.06-37.51l-39.85,0.06l0.06,37.51l-18.7,0.03l-0.14-87.21
	l18.7-0.03l0.05,32.72l39.85-0.06L128.44,336.39z"/>
<path class="st3" d="M222.32,336.26l36.55,87.15l-20.17,0.03l-7.9-18.68l-37.02,0.06l-7.72,18.71l-20.29,0.03l36.27-87.27
	L222.32,336.26z M223.76,387.79l-11.48-27.41l-11.39,27.45L223.76,387.79z"/>
<path class="st3" d="M326.54,336.1l18.7-0.03l0.09,55.72c0.01,4.35-0.89,8.53-2.69,12.55c-1.8,4.02-4.26,7.55-7.38,10.59
	c-3.12,3.04-6.75,5.47-10.89,7.27c-4.14,1.81-8.6,2.72-13.36,2.73c-4.68,0.01-9.12-0.89-13.31-2.68s-7.83-4.21-10.92-7.24
	c-3.08-3.03-5.54-6.55-7.35-10.57c-1.81-4.01-2.72-8.19-2.73-12.54l-0.09-55.72l18.7-0.03l0.08,52.03c0,2.46,0.42,4.78,1.24,6.95
	c0.82,2.17,1.93,4.1,3.32,5.78c1.39,1.68,3.05,3.01,4.97,3.99c1.92,0.98,3.94,1.47,6.07,1.47c2.2,0,4.24-0.5,6.12-1.49
	c1.88-0.99,3.53-2.32,4.96-4c1.43-1.68,2.55-3.61,3.36-5.79c0.81-2.17,1.22-4.49,1.21-6.95L326.54,336.1z"/>
<path class="st3" d="M384.75,406.26l35.79-0.06l0.03,16.97l-54.49,0.09l-0.14-87.21l18.7-0.03L384.75,406.26z"/>
<path class="st1" d="M500.21,361.81c0,2.79-0.38,5.43-1.16,7.94c-0.78,2.5-1.86,4.8-3.25,6.89c-1.39,2.09-3.07,3.94-5.03,5.54
	c-1.96,1.6-4.1,2.9-6.39,3.88l28.96,36.98l-21.77,0.04l-26.99-35.13l-8.36,0.01l0.06,35.18l-18.7,0.03l-0.14-87.21l37.64-0.06
	c3.44-0.01,6.7,0.67,9.78,2.01c3.08,1.35,5.74,3.19,8,5.52c2.26,2.33,4.05,5.08,5.36,8.23C499.54,354.82,500.2,358.2,500.21,361.81z
	 M472.79,370.96c2.38,0,4.43-0.89,6.15-2.65c1.72-1.77,2.58-3.92,2.57-6.46c0-2.46-0.87-4.57-2.59-6.33
	c-1.72-1.76-3.78-2.64-6.15-2.63l-16.6,0.03l0.03,18.08L472.79,370.96z"/>
<path class="st1" d="M563.67,335.77l0.03,15.74l-6.52,0.01l0.09,55.84l6.52-0.01l0.02,15.62l-31.73,0.05l-0.02-15.62l6.52-0.01
	l-0.09-55.84l-6.52,0.01l-0.03-15.74L563.67,335.77z"/>
<path class="st1" d="M628.34,373.56l32.96-0.05l0.05,31.98c-4.91,6.24-10.36,10.96-16.34,14.17c-5.98,3.21-12.25,4.82-18.81,4.83
	c-5.9,0.01-11.48-1.19-16.73-3.6c-5.25-2.41-9.81-5.66-13.67-9.76c-3.86-4.09-6.92-8.86-9.19-14.32c-2.26-5.45-3.4-11.25-3.41-17.4
	s1.11-11.93,3.35-17.35c2.25-5.42,5.29-10.18,9.14-14.28c3.85-4.11,8.39-7.35,13.64-9.74c5.24-2.39,10.82-3.58,16.72-3.59
	c5.58-0.01,10.84,1.01,15.81,3.05c4.96,2.04,9.79,5.44,14.47,10.19l-10.8,13.18c-3.45-3.19-6.69-5.34-9.73-6.44
	c-3.04-1.1-6.23-1.65-9.6-1.65c-3.45,0.01-6.66,0.71-9.65,2.11c-2.99,1.4-5.59,3.29-7.8,5.67c-2.21,2.38-3.95,5.19-5.21,8.43
	c-1.27,3.24-1.9,6.71-1.89,10.4s0.65,7.13,1.92,10.33c1.28,3.2,3.02,6,5.24,8.42c2.22,2.42,4.82,4.32,7.82,5.71
	c3,1.39,6.21,2.08,9.66,2.08c3.03,0,6.04-0.56,9.04-1.68c2.99-1.11,6-2.94,9.03-5.49l-0.02-9.47l-15.99,0.03L628.34,373.56z"/>
<path class="st1" d="M739.75,335.52l18.7-0.03l0.14,87.21l-18.7,0.03l-0.06-37.51l-39.85,0.06l0.06,37.51l-18.7,0.03l-0.14-87.21
	l18.7-0.03l0.05,32.72l39.85-0.06L739.75,335.52z"/>
<path class="st1" d="M777.06,335.47l63.22-0.1l0.03,16.97l-22.26,0.04l0.11,70.23l-18.7,0.03l-0.11-70.23l-22.26,0.04L777.06,335.47
	z"/>
<g>
</g>
<g>
	<path d="M848.29,331.23h-2.69v-1.87h7.41v1.87h-2.72v8.6h-2.01V331.23z M863.01,329.36h1.9v10.47h-2.07v-7.04l-2.45,3.4H859
		l-2.52-3.4v7.04h-2.01v-10.47h1.87l3.33,4.56L863.01,329.36z"/>
</g>
<g>
	<g>
		<path class="st3" d="M615.62,92.27l-9.03-21.81c-0.36-0.88-1.22-1.46-2.18-1.46H470.84c-0.57,0-1.11,0.2-1.54,0.57L443.2,92.17
			c-0.43,0.37-0.98,0.57-1.54,0.57H255.7h-99.25c-1.68,0-2.82,1.7-2.18,3.25l10.41,25.43c0.37,0.9,1.25,1.48,2.22,1.46l53.54-0.84
			h233.82c0.64,0,1.26-0.26,1.7-0.73l23.98-25.07c0.44-0.46,1.06-0.73,1.7-0.73h131.79C615.12,95.52,616.26,93.82,615.62,92.27z"/>
		<path class="st3" d="M468.29,162.45h-266.1c-0.96,0-1.83-0.59-2.19-1.48l-6.88-17.13c-0.62-1.55,0.52-3.23,2.19-3.23h75.21h190.76
			c0.96,0,1.82,0.58,2.18,1.46l7.01,17.13C471.1,160.75,469.96,162.45,468.29,162.45z"/>
		<path class="st3" d="M485.02,203.06H239.41c-0.96,0-1.82-0.58-2.18-1.46l-7.01-17.13c-0.63-1.55,0.51-3.25,2.18-3.25h52.37H477.9
			c0.95,0,1.81,0.57,2.18,1.45l7.12,17.13C487.84,201.36,486.7,203.06,485.02,203.06z"/>
		<path class="st3" d="M501.6,243.84H275.93c-0.96,0-1.82-0.58-2.18-1.46l-7.03-17.13c-0.64-1.55,0.5-3.25,2.18-3.25h43.25h182.51
			c0.96,0,1.82,0.58,2.18,1.47l6.94,17.13C504.41,242.15,503.27,243.84,501.6,243.84z"/>
		<path class="st3" d="M519.52,288H313.31c-0.96,0-1.82-0.58-2.18-1.47l-6.94-17.13c-0.63-1.55,0.51-3.24,2.18-3.24h7.67h198.64
			c0.96,0,1.83,0.59,2.19,1.48l6.84,17.13C522.32,286.32,521.18,288,519.52,288z"/>
		<path class="st3" d="M497.78,137.1l-8.72-21.65c-0.62-1.55,0.51-3.23,2.18-3.24l103.74-0.23c0.95,0,1.8,0.56,2.17,1.43l23.41,55.1
			c0.33,0.78,1.06,1.32,1.9,1.42L711,179c7,1,8.43,2.25,10,5c4,7,3,5,10.05,21.06c0.71,1.61-0.34,3.44-2.1,3.45l-6.73,0.04h-42.88
			c-1.67,0-2.82,1.7-2.18,3.25l2.06,5.04c0.36,0.89,1.23,1.47,2.19,1.46l53.57-0.27c0.96-0.01,1.83,0.57,2.2,1.47l1.71,4.19
			c0.63,1.54-0.5,3.24-2.17,3.25l-8.86,0.05h-35.02c-1.67,0-2.81,1.68-2.19,3.23l2.14,5.36c0.36,0.9,1.23,1.48,2.19,1.48l47.43-0.02
			c0.9,0,1.73,0.52,2.12,1.33l2.31,4.77c0.76,1.57-0.38,3.39-2.12,3.38l-37.94-0.04c-1.66,0-2.8,1.66-2.2,3.21l2.3,5.94
			c0.35,0.91,1.23,1.51,2.21,1.51l40.39-0.17c0.92,0,1.76,0.53,2.15,1.36l10.58,22.81c0.72,1.56-0.41,3.34-2.13,3.35l-19.98,0.09
			H552.28c-0.96,0-1.82-0.58-2.18-1.47l-43.23-106.18c-0.63-1.55,0.51-3.24,2.18-3.24h70.37c1.66,0,2.8-1.67,2.19-3.22l-11.9-30.39
			c-0.35-0.9-1.22-1.5-2.19-1.5h-67.55C499.01,138.57,498.14,137.99,497.78,137.1z"/>
	</g>
</g>
</svg>
