<?xml version="1.0" encoding="utf-8"?>
<!-- Generator: Adobe Illustrator 23.0.4, SVG Export Plug-In . SVG Version: 6.00 Build 0)  -->
<svg version="1.1" id="Layer_1" xmlns="http://www.w3.org/2000/svg" xmlns:xlink="http://www.w3.org/1999/xlink" x="0px" y="0px"
	 viewBox="0 0 335 87.7" style="enable-background:new 0 0 335 87.7;" xml:space="preserve">
<style type="text/css">
	.st0{opacity:0.64;fill-rule:evenodd;clip-rule:evenodd;fill:url(#SVGID_1_);}
	.st1{fill-rule:evenodd;clip-rule:evenodd;fill:url(#SVGID_2_);}
	.st2{fill-rule:evenodd;clip-rule:evenodd;fill:url(#SVGID_3_);}
	.st3{fill:url(#SVGID_4_);}
	.st4{fill:#777067;}
</style>
<g>
	<g>
		<g>
			
				<linearGradient id="SVGID_1_" gradientUnits="userSpaceOnUse" x1="80.5749" y1="63.3193" x2="120.0501" y2="63.3193" gradientTransform="matrix(0.9993 -3.870000e-02 3.870000e-02 0.9993 27.0492 -35.177)">
				<stop  offset="0" style="stop-color:#F48220"/>
				<stop  offset="0.4969" style="stop-color:#28A8E0"/>
				<stop  offset="0.5646" style="stop-color:#3DACDC"/>
				<stop  offset="0.6691" style="stop-color:#60B7D5"/>
				<stop  offset="0.797" style="stop-color:#8ACBCA"/>
				<stop  offset="0.8282" style="stop-color:#95D3C7"/>
				<stop  offset="1" style="stop-color:#E5DED5;stop-opacity:0.7"/>
			</linearGradient>
			<path class="st0" d="M122,39.7c-4.7-1.3-9.4,2.6-11.2,4.2c-0.1,0.1-0.1,0.1,0,0c0.7-1.1,1.1-2.5,1.5-3.5c0.9-2.6,2.3-5.4,5.6-6.8
				c3-1.3,5.6,0.4,8.6,1.6c1.3,0.5,2.6,0.4,3.6-0.3c1.4-0.9,1.9-3.1,2.3-4.6c2-9,7.7-19.4,12.3-24.6c1.9-2.1,2.5-1.3,3,0.3
				c1.5,4.8,2.5,16.6-0.4,23.4C144.8,35.3,137.8,44,122,39.7z"/>
			
				<linearGradient id="SVGID_2_" gradientUnits="userSpaceOnUse" x1="164.6091" y1="15.3794" x2="204.0831" y2="15.3794" gradientTransform="matrix(0.9946 -0.1041 0.1041 0.9946 -56.5498 26.9154)">
				<stop  offset="0" style="stop-color:#9A857A"/>
				<stop  offset="2.337052e-03" style="stop-color:#9A857A"/>
				<stop  offset="0.1932" style="stop-color:#99A497"/>
				<stop  offset="0.3614" style="stop-color:#97BBAF"/>
				<stop  offset="0.499" style="stop-color:#96CBBF"/>
				<stop  offset="0.589" style="stop-color:#95D3C7"/>
				<stop  offset="1" style="stop-color:#FFFFFF"/>
			</linearGradient>
			<path class="st1" d="M121.7,39c-4.8-1-9.3,3.2-10.9,4.9c-0.1,0.1-0.1,0.1,0,0c0.6-1.1,1-2.6,1.2-3.6c0.7-2.6,1.9-5.5,5.1-7.1
				c2.9-1.5,5.6,0,8.7,1c1.3,0.5,2.6,0.2,3.6-0.5c1.4-1,1.7-3.2,1.9-4.8c1.4-9.1,6.4-19.9,10.7-25.4c1.7-2.2,2.4-1.5,3,0.1
				c1.9,4.7,3.6,16.4,1.2,23.4C144.1,33.1,137.7,42.3,121.7,39z"/>
			
				<linearGradient id="SVGID_3_" gradientUnits="userSpaceOnUse" x1="257.2631" y1="-29.5724" x2="296.7355" y2="-29.5724" gradientTransform="matrix(0.9848 -0.174 0.174 0.9848 -140.7681 99.1479)">
				<stop  offset="0" style="stop-color:#1D76BB"/>
				<stop  offset="3.899565e-02" style="stop-color:#2E7DBC"/>
				<stop  offset="0.2229" style="stop-color:#5D9EC2"/>
				<stop  offset="0.3846" style="stop-color:#7BB9C5"/>
				<stop  offset="0.5162" style="stop-color:#8ECAC6"/>
				<stop  offset="0.6012" style="stop-color:#95D3C7"/>
				<stop  offset="1" style="stop-color:#FFFFFF"/>
			</linearGradient>
			<path class="st2" d="M121.3,38.3c-4.9-0.6-8.9,3.7-10.5,5.7c-0.1,0.1-0.1,0.1,0,0c0.5-1.2,0.8-2.7,1-3.7c0.6-2.7,1.6-5.6,4.6-7.5
				c2.8-1.7,5.6-0.4,8.8,0.4c1.3,0.4,2.6,0,3.6-0.8c1.3-1.1,1.5-3.3,1.6-4.9c0.7-9.2,5-20.3,8.9-26.1c1.6-2.3,2.3-1.6,3-0.1
				c2.2,4.6,4.7,16.1,2.8,23.3C143.2,30.7,137.5,40.4,121.3,38.3z"/>
			
				<linearGradient id="SVGID_4_" gradientUnits="userSpaceOnUse" x1="74.4023" y1="109.5482" x2="117.2424" y2="66.708" gradientTransform="matrix(0.9993 -3.870000e-02 3.870000e-02 0.9993 27.0492 -35.177)">
				<stop  offset="0.1227" style="stop-color:#9A857A"/>
				<stop  offset="0.589" style="stop-color:#EB2227"/>
				<stop  offset="0.7669" style="stop-color:#8CC541"/>
				<stop  offset="0.9202" style="stop-color:#95D3C7"/>
			</linearGradient>
			<path class="st3" d="M157.4,38.2c-10.5-3-9.1,3.7-20.3,4.9c-11.2,1.2-16.1-7.9-23.2-2.3c-5.2,4.2-12.9,17.4-13.4,25.7
				c0,0-0.4,0.2-0.1-1.8c1.1-8.1,5.7-16.7,12.1-23.6l0,0c3.2-3.5,4.8-6.1,8.7-8.4c2.1-1.2,5.3,2.5,7.4,1.8c2.5-0.9,4.2-4.6,8-6.2
				c7.7-3.3,14.9,1.7,21.1,9.5C157.9,38.1,157.9,38.3,157.4,38.2z"/>
		</g>
		<g>
			<polygon class="st4" points="28.9,51.4 23,51.4 5.1,69.9 5.1,51.4 0.4,51.4 0.4,86.5 5.1,86.5 5.1,76.3 10.9,70.2 23.3,86.3 
				23.4,86.5 29.4,86.5 14.2,66.7 			"/>
			<polygon class="st4" points="64.5,78 43.6,51.4 39.3,51.4 39.3,86.5 44,86.5 44,59.2 65.3,86.3 65.4,86.5 69.1,86.5 69.1,51.4 
				64.5,51.4 			"/>
			<polygon class="st4" points="137.2,80.2 125.3,51.4 120,51.4 135.1,86.8 139.1,86.8 154.2,51.4 149.1,51.4 			"/>
			<path class="st4" d="M170.6,51.2l-16,35.4h4.9l4.1-9.1h18.1l4,9.1h5.1l-16-35.4H170.6z M179.7,73.1h-14.3l7.2-16L179.7,73.1z"/>
			<polygon class="st4" points="189.8,55.8 201.2,55.8 201.2,86.5 206,86.5 206,55.8 217.5,55.8 217.5,51.4 189.8,51.4 			"/>
			<path class="st4" d="M108.3,53.3c0.1-0.6,0.5-1.5,0.7-2.2c0-0.2-2.2,2-3.1,3.6c-1.3,2.4-0.5,4.3,0.9,6.2c2.5,3.4,3.6,5.2,3.6,8.9
				c0,7.3-5.9,13.3-13.3,13.3c-7.3,0-13.3-6-13.3-13.3c0-7.8,6.9-11.8,13.4-13.4c2.7-0.7,4.3-2,5.4-4.3c0.8-1.6,1.5-4.4,1.8-6.7
				c-3.6,4.6-5.5,6.1-8.4,6.7c-10.3,2.5-16.9,8-16.9,17.7c0,9.9,8.1,17.9,17.9,17.9c9.9,0,17.9-8,17.9-17.9c0-4.8-2-8.2-5.1-12.1
				C109.1,56.5,108,55.5,108.3,53.3z"/>
			<rect x="228" y="51.4" class="st4" width="4.7" height="35.1"/>
			<polygon class="st4" points="313.8,51.4 313.8,78 292.9,51.4 288.7,51.4 288.7,86.5 293.3,86.5 293.3,59.2 314.6,86.3 
				314.7,86.5 318.5,86.5 318.5,51.4 			"/>
			<path class="st4" d="M260.7,50.8c-9.9,0-17.9,8-17.9,17.9c0,9.9,8,17.9,17.9,17.9c9.9,0,17.9-8,17.9-17.9
				C278.7,58.9,270.6,50.8,260.7,50.8z M260.7,82.1c-7.3,0-13.3-6-13.3-13.3c0-7.3,6-13.3,13.3-13.3c7.3,0,13.3,6,13.3,13.3
				C274,76.1,268,82.1,260.7,82.1z"/>
		</g>
		<path class="st4" d="M323.1,57.1L323.1,57.1c0-3.2,2.6-5.8,5.8-5.8c3.2,0,5.8,2.6,5.8,5.8v0c0,3.1-2.5,5.8-5.8,5.8
			C325.6,62.8,323.1,60.2,323.1,57.1z M334,57L334,57c0-2.8-2.2-5.2-5.1-5.2c-2.9,0-5.1,2.4-5.1,5.2v0c0,2.8,2.2,5.1,5.1,5.1
			C331.8,62.2,334,59.9,334,57z M326.5,53.9h2.8c1.4,0,2.4,0.6,2.4,2c0,1-0.5,1.6-1.3,1.9l1.5,2.2h-1.8l-1.3-1.9h-0.9v1.9h-1.5V53.9
			z M329.2,56.8c0.7,0,1-0.3,1-0.8c0-0.5-0.4-0.8-1-0.8h-1.3v1.7H329.2z"/>
	</g>
</g>
</svg>
