<?xml version="1.0" encoding="utf-8"?>
<!-- Generator: Adobe Illustrator 23.0.3, SVG Export Plug-In . SVG Version: 6.00 Build 0)  -->
<svg version="1.1" id="Layer_1" xmlns="http://www.w3.org/2000/svg" xmlns:xlink="http://www.w3.org/1999/xlink" x="0px" y="0px"
	 viewBox="0 0 50 50" style="enable-background:new 0 0 50 50;" xml:space="preserve">
<style type="text/css">
	.st0{fill:#393939;}
</style>
<g id="surface1">
	<path class="st0" d="M33,29c-1.8,0-3,1.52-3,4s0.89,5.05,3,5c2.22-0.05,3.02-2.22,3-5C35.98,30.52,34.79,29,33,29z M44.26,17.07
		c0.27-1.34,0.39-6.1-1.58-11.07c0,0-4.53,0.5-11.38,5.2c-1.43-0.4-3.87-0.6-6.3-0.6s-4.86,0.2-6.3,0.59C11.85,6.5,7.32,6,7.32,6
		c-1.98,4.96-1.88,9.61-1.59,11.07C3.42,19.59,2,22.61,2,26.74C2,44.71,16.91,45,20.67,45c0.85,0,2.54,0,4.33,0
		c1.79,0,3.48,0,4.33,0C33.09,45,48,44.71,48,26.74C48,22.61,46.58,19.59,44.26,17.07z M25.14,43H25c-9.43,0-16.84-1.34-16.84-10.5
		c0-2.2,0.78-4.23,2.62-5.92c3.07-2.82,8.26-1.33,14.16-1.33c0.02,0,0.12,0,0.14,0c5.89,0,11.09-1.49,14.16,1.33
		c1.84,1.69,2.61,3.73,2.61,5.92C41.84,41.66,34.57,43,25.14,43z M17,29c-1.79,0-3,2.02-3,4.5s1.21,4.5,3,4.5c1.8,0,3-2.02,3-4.5
		S18.8,29,17,29z"/>
</g>
</svg>
